<svg xmlns="http://www.w3.org/2000/svg" viewBox="0 0 500 500"><path d="M123.31 264.58h7.52l.22 144.06a2.74 2.74 0 01-2.73 2.74 2.73 2.73 0 01-2.73-2.7z" fill="#263238"/><path d="M123.31 264.58h7.52l.22 144.06a2.74 2.74 0 01-2.73 2.74 2.73 2.73 0 01-2.73-2.7z" fill="#fff" opacity=".2"/><path d="M82.18 264.58h7.53l.21 144.06a2.73 2.73 0 01-2.73 2.74 2.73 2.73 0 01-2.73-2.7z" fill="#263238"/><path d="M82.18 264.58h7.53l.21 144.06a2.73 2.73 0 01-2.73 2.74 2.73 2.73 0 01-2.73-2.7z" fill="#fff" opacity=".2"/><path d="M302.19 264.58h7.53l.21 144.06a2.73 2.73 0 01-2.73 2.74 2.73 2.73 0 01-2.73-2.7z" fill="#263238"/><path d="M302.19 264.58h7.53l.21 144.06a2.73 2.73 0 01-2.73 2.74 2.73 2.73 0 01-2.73-2.7z" fill="#fff" opacity=".2"/><path d="M261.07 264.58h7.52l.22 144.06a2.74 2.74 0 01-2.73 2.74 2.74 2.74 0 01-2.74-2.7z" fill="#263238"/><path d="M261.07 264.58h7.52l.22 144.06a2.74 2.74 0 01-2.73 2.74 2.74 2.74 0 01-2.74-2.7z" fill="#fff" opacity=".2"/><path fill="#57c278" d="M82.48 291.58l226.53-1.7v-25.3H82.43l.05 27z"/><path opacity=".3" d="M123.31 264.77l.42 26.49-41.25.32-.05-27 40.88.19z"/><path d="M317.83 258.51c0-3.41-1.27-6.17-2.83-6.18H79c-1.56 0-2.83 2.77-2.83 6.18 0 3.4 1.27 6.16 2.83 6.18h236c1.56-.02 2.83-2.78 2.83-6.18z" fill="#263238"/><path d="M317.83 258.51c0-3.41-1.27-6.17-2.83-6.18H79c-1.56 0-2.83 2.77-2.83 6.18 0 3.4 1.27 6.16 2.83 6.18h236c1.56-.02 2.83-2.78 2.83-6.18z" fill="#fff" opacity=".1"/><path d="M137.09 258.51c0-3.41-1.27-6.17-2.84-6.18H79c-1.56 0-2.83 2.77-2.83 6.18 0 3.4 1.27 6.16 2.83 6.18h55.24c1.58-.02 2.84-2.78 2.85-6.18z" opacity=".3"/><g fill="#57c278"><path d="M231.08 135.57a2.73 2.73 0 01-2.73-2.73v-6.73H227a3.51 3.51 0 01-3.51-3.51V90.73a3.51 3.51 0 013.5-3.49h49.74a3.5 3.5 0 013.5 3.5v31.86a3.51 3.51 0 01-3.51 3.51h-32.5l-11.5 8.89a2.7 2.7 0 01-1.64.57zM227 88.24a2.51 2.51 0 00-2.5 2.49v31.87a2.52 2.52 0 002.51 2.51h2.32v7.73a1.73 1.73 0 001.73 1.73 1.77 1.77 0 001-.34l11.79-9.12h32.84a2.52 2.52 0 002.51-2.51V90.74a2.5 2.5 0 00-2.5-2.5H227zm15.98-4.98h6.23v.76h-6.23z"/><path d="M220.08 92.24h-.77v-3.76a5.24 5.24 0 015.24-5.23h13.89V84h-13.89a4.47 4.47 0 00-4.47 4.47z"/><circle cx="240.65" cy="106.11" r="3.3"/><path d="M255.08 106.11a3.31 3.31 0 11-3.31-3.3 3.31 3.31 0 013.31 3.3z"/><circle cx="262.9" cy="106.11" r="3.3"/></g><path d="M142 186.47l4-.19 5.57 61.57h-4.21c-2.11-.2-2.6-2.56-3.19-7l-3.9-43c-.98-10.19.73-11.38 1.73-11.38z" fill="#57c278"/><path d="M142 186.47l4-.19 5.57 61.57h-4.21c-2.11-.2-2.6-2.56-3.19-7l-3.9-43c-.98-10.19.73-11.38 1.73-11.38z" opacity=".3"/><path d="M148.29 247.85h83.44a1.63 1.63 0 001.49-1.93L228 188.21a2 2 0 00-1.85-1.93h-83.44a1.63 1.63 0 00-1.49 1.93l5.22 57.71a2 2 0 001.85 1.93z" fill="#57c278"/><path fill="#57c278" d="M151.49 240.56h75.78l-4.2-48.04h-75.78l4.2 48.04z"/><path d="M152.53 244.32h74.68a3.46 3.46 0 003.5-3.84l-4.18-47.74a4.27 4.27 0 00-4.17-3.83h-74.68a3.47 3.47 0 00-3.5 3.83l4.18 47.74a4.27 4.27 0 004.17 3.84z" fill="#263238"/><path fill="#57c278" d="M151.49 240.56h75.78l-4.2-48.04h-75.78l4.2 48.04z"/><path fill="#fff" opacity=".4" d="M151.49 240.56h75.78l-4.2-48.04h-75.78l4.2 48.04z"/><path style="isolation:isolate" fill="#fff" opacity=".1" d="M173.29 188.93l-14.8 55.37h4.98l14.64-55.37h-4.82zm7.69 0l-14.8 55.37h9.87l14.64-55.37h-9.71z"/><path d="M158.21 206.85a3.33 3.33 0 01-3.37 3.84 4.47 4.47 0 01-4.31-3.84 3.33 3.33 0 013.37-3.85 4.47 4.47 0 014.31 3.85z" fill="#57c278"/><path d="M158.21 206.85a3.33 3.33 0 01-3.37 3.84 4.47 4.47 0 01-4.31-3.84 3.33 3.33 0 013.37-3.85 4.47 4.47 0 014.31 3.85z" opacity=".3"/><path d="M154.84 210.69A3.46 3.46 0 00157 210l-.36-1.2a1.1 1.1 0 00-1-.79h-.46l-.06-.5a1.42 1.42 0 00.67-1.47 1.78 1.78 0 00-1.64-1.61 1.33 1.33 0 00-1.24 1.61 1.88 1.88 0 001 1.47l.06.5h-.46a.82.82 0 00-.84.79l-.07 1.2a4.29 4.29 0 002.24.69zm6.16-4.57h15.1c.7 0 .56-1.08-.13-1.08h-15.16c-.69 0-.56 1.08.14 1.08zm.26 2.54h19.9c.46 0 .37-.72-.09-.72h-19.9c-.46 0-.38.72.09.72z" fill="#fff"/><path d="M184.9 208.3a.72.72 0 01-.74.84 1 1 0 01-.95-.84.73.73 0 01.74-.85 1 1 0 01.95.85z" fill="#263238"/><path d="M184.9 208.3a.72.72 0 01-.74.84 1 1 0 01-.95-.84.73.73 0 01.74-.85 1 1 0 01.95.85z" fill="#fff" opacity=".5"/><path fill="#57c278" d="M147.29 192.52l.37 4.3h75.78l-.37-4.3h-75.78z"/><path d="M150.77 194.43a.79.79 0 01-.8.87 1 1 0 01-.94-.87.78.78 0 01.79-.86 1 1 0 01.95.86zm2.28 0a.78.78 0 01-.79.87 1 1 0 01-.94-.87.78.78 0 01.79-.86 1 1 0 01.94.86zm2.29 0a.79.79 0 01-.79.87 1 1 0 01-1-.87.78.78 0 01.79-.86 1 1 0 011 .86z" fill="#fff"/><rect x="145.72" y="248.02" width="88.68" height="4.7" rx="1.81" fill="#57c278"/><rect x="145.72" y="248.02" width="88.68" height="4.7" rx="1.81" opacity=".3"/><path d="M179.47 248h87.95v1.07a3.62 3.62 0 01-3.62 3.62h-80.7a3.62 3.62 0 01-3.62-3.62V248h-.01z" fill="#57c278"/><path d="M179.47 248h87.95v1.07a3.62 3.62 0 01-3.62 3.62h-80.7a3.62 3.62 0 01-3.62-3.62V248h-.01z" fill="#fff" opacity=".4"/><path d="M219.1 248.15a2.36 2.36 0 002.35 2.35h10.76a2.35 2.35 0 002.35-2.35z" opacity=".3"/><path fill="#57c278" d="M227.27 240.67h-75.72l-.41-4.68h75.72l.41 4.68z"/><path fill="#fff" d="M217.12 238.63h-52.6l-.03-.42h52.6l.03.42zm1.49.02c0 .2-.11.36-.41.36a.75.75 0 01-.43-.13l.08-.16a.52.52 0 00.33.11c.15 0 .23-.06.22-.17s-.08-.17-.31-.17h-.27v-.6h.65v.17H218v.26h.11c.34 0 .48.14.5.33zm.07-.38a.12.12 0 01.12-.13.13.13 0 01.14.13.11.11 0 01-.11.13.14.14 0 01-.15-.13zm.06.6a.11.11 0 01.12-.13.14.14 0 01.14.13.12.12 0 01-.12.13.13.13 0 01-.14-.13zm.35-.43c0-.36.15-.57.41-.57s.48.21.52.57-.15.57-.42.57a.55.55 0 01-.51-.57zm.72 0c0-.27-.14-.39-.29-.39s-.25.12-.22.39.14.39.29.39.24-.12.22-.39zm.34 0c0-.36.15-.57.42-.57a.55.55 0 01.51.57c0 .36-.15.57-.41.57s-.48-.21-.52-.57zm.72 0c0-.27-.14-.39-.29-.39s-.24.12-.22.39.14.39.29.39.24-.12.22-.39zm-66.97.38v.17h-.82v-.13l.4-.42a.3.3 0 00.11-.23c0-.1-.08-.16-.22-.16a.29.29 0 00-.25.12l-.15-.12a.46.46 0 01.4-.18c.24 0 .41.12.42.32a.41.41 0 01-.15.35l-.27.28zm.1-.55a.11.11 0 01.11-.13.14.14 0 01.15.13.12.12 0 01-.12.13.13.13 0 01-.14-.13zm.05.6a.11.11 0 01.12-.13.14.14 0 01.14.13.12.12 0 01-.12.13.14.14 0 01-.19-.13zm1.15-.22c0 .2-.11.36-.41.36a.75.75 0 01-.43-.13l.08-.16a.52.52 0 00.33.11c.15 0 .23-.06.22-.17s-.08-.17-.31-.17h-.27v-.6h.65v.17h-.48v.26h.11c.31 0 .49.14.51.33zm.1-.21c0-.36.14-.57.41-.57a.55.55 0 01.51.57c0 .36-.15.57-.41.57s-.48-.21-.51-.57zm.71 0c0-.27-.14-.39-.29-.39s-.24.12-.22.39.14.39.29.39.21-.12.21-.39zm69.77 1.65h-3.33l-.3-3.34h3.34zm-2.83-.56h2.23l-.18-2.23h-2.23z"/><path fill="#263238" d="M187.35 237.84h-30.07l.1 1.15h30.07l-.1-1.15z"/><path d="M188.45 238.38a1 1 0 01-1 1.06 1.19 1.19 0 01-1.15-1.06 1 1 0 011-1.06 1.18 1.18 0 011.15 1.06z" fill="#263238"/><path d="M188.45 238.38a1 1 0 01-1 1.06 1.19 1.19 0 01-1.15-1.06 1 1 0 011-1.06 1.18 1.18 0 011.15 1.06z" fill="#fff"/><path d="M217.36 163.85a16.72 16.72 0 0112.4 9.67c4.1 8.78 7.37 21.53 10.44 22.87s16.51-11.89 16.51-11.89-2.74-8.75 1.36-10.12 3.28-7.49 7.11-6.2 6 6.75 5.74 9.76-7.38 9.84-7.38 9.84-12.85 22.86-26 20.77-20.21-32.74-20.21-32.74-3.66-12.43.03-11.96z" fill="#eec8c0"/><path d="M221 187.07c2.88 7.76 5.25 13.37 10.72 18.35-5.92-9.51-5.28-26.54-5.28-26.54z" opacity=".1"/><path d="M172.41 166.56a140.05 140.05 0 0114.25-3.29l.16.13.25.24 2.11 1.62 5.74 3.45 4.71.74 4.56-1.11 2.92-4.06.54-2.34v-.07a42.67 42.67 0 0114.88 3.33 5.06 5.06 0 012.92 4.3 151.15 151.15 0 002 16.1c1.9 11.22-3.92 36.33-6.18 45.38a5.1 5.1 0 01-4.27 3.82 150.27 150.27 0 01-38.85.25 5.1 5.1 0 01-4.44-5c-.16-14.37-3.67-46.47-5-58a5.12 5.12 0 013.7-5.49z" fill="#57c278"/><path d="M172.41 166.56a140.05 140.05 0 0114.25-3.29l.16.13.25.24 2.11 1.62 5.74 3.45 4.71.74 4.56-1.11 2.92-4.06.54-2.34v-.07a42.67 42.67 0 0114.88 3.33 5.06 5.06 0 012.92 4.3 151.15 151.15 0 002 16.1c1.9 11.22-3.92 36.33-6.18 45.38a5.1 5.1 0 01-4.27 3.82 150.27 150.27 0 01-38.85.25 5.1 5.1 0 01-4.44-5c-.16-14.37-3.67-46.47-5-58a5.12 5.12 0 013.7-5.49zM187.08 126c-1.87 5.44-5 11.36-3.64 16.95s7.39 10.78 12.85 12.59c6.33 2.11 13.7 4.39 18.39-.37 2.32-2.35 1-7.09-1.16-9.6a8.17 8.17 0 00-9-2.22 22.33 22.33 0 00-.54-8.56 14.05 14.05 0 00-5.86-9c-3.12-2-9.83-3.28-11.04.21z" fill="#263238"/><path d="M189.08 162.86c3.71-3.9 2.22-21.4 2.22-21.4l10.86 7.37s.64 10.83 3.23 12.92c.61.49 1.51.07 2.23.12l-.66 2.76-2 3.42-2.78 2h-4.11l-3.71-1.05-4.21-3-3.44-2.77c.8-.11 1.83.19 2.37-.37z" fill="#eec8c0"/><path d="M203.11 156.08c-7.14-.81-10.42-4.52-11.91-7.45l.31-2.92 10.85 7.37z" opacity=".1"/><path d="M187.05 134.47c2.29 9 3.07 12.87 8.56 16.67 8.27 5.73 18.84.93 19.29-8.57.4-8.57-3.42-21.92-13-23.79a12.68 12.68 0 00-14.81 15.69z" fill="#eec8c0"/><path d="M202 134.1c.15.74.65 1.27 1.13 1.18s.77-.77.64-1.51-.66-1.27-1.14-1.19-.69.81-.63 1.52zm8.43-1.58c.14.76.65 1.27 1.13 1.19s.77-.78.63-1.52-.65-1.27-1.13-1.17-.77.76-.63 1.5z" fill="#263238"/><path d="M210.85 131.1l1.68-.85s-.64 1.57-1.68.85z" fill="#263238"/><path d="M208.09 134.36a20.66 20.66 0 003.56 4.24 3.31 3.31 0 01-2.56 1z" fill="#ed893e"/><path d="M198.35 133.05a.43.43 0 00.41-.32 5.22 5.22 0 013.08-2.85.45.45 0 00.28-.57.43.43 0 00-.55-.28 6 6 0 00-3.65 3.46.44.44 0 00.3.54.32.32 0 00.13.02zm13.86-4.87a.49.49 0 00.39-.24.45.45 0 00-.18-.6 4.35 4.35 0 00-4.1-.18.42.42 0 00-.19.56.42.42 0 00.59.18 3.55 3.55 0 013.2.19.58.58 0 00.29.09zm-9.75 4.56l1.69-.85s-.65 1.51-1.69.85z" fill="#263238"/><path d="M215.76 116.78a7.23 7.23 0 012.88 7.51c-.34 1.24-1.07 2.41-1.13 3.7a2.67 2.67 0 002.44 2.8 16.83 16.83 0 01-6.17-.09c-2-.53-3.87-2-3.94-3.86a19.44 19.44 0 01.23-2 2 2 0 00-.77-1.84c-1.11-.73-2.58.06-3.92.23-2.45.33-4.87-1.94-4.57-4.09s6.19-8.92 14.95-2.36z" fill="#263238"/><path d="M206.68 113.68c3.28 1.81 12.07 10.88-11.65 9.39 0 0 .05 14.83-7.4 16.84l-19.52-3.22s7.76-40.03 38.57-23.01z" fill="#263238"/><path d="M170.69 127.69c-1.87 5.43-5 11.36-3.64 16.95s7.39 10.77 12.85 12.59c6.33 2.11 13.7 4.39 18.39-.37 2.31-2.36 1-7.09-1.16-9.61a8.17 8.17 0 00-9-2.21 22.32 22.32 0 00-.54-8.56 14.08 14.08 0 00-5.86-9.06c-3.15-1.95-9.83-3.22-11.04.27z" fill="#263238"/><path d="M185.9 142a6.74 6.74 0 004 3.1c2.27.58 3.37-1.46 2.7-3.59-.62-1.91-2.53-4.52-4.79-4.2a3 3 0 00-2.44 3.48 3.14 3.14 0 00.53 1.21z" fill="#eec8c0"/><path d="M209.87 142.18a9.13 9.13 0 01-7.39 0s-.3 4.55 5.1 4.18c.57 0 2.29-.3 2.29-.3a9.55 9.55 0 010-3.88z" fill="#263238"/><path d="M202.72 143.75a4.72 4.72 0 01-.24-1.57 9.64 9.64 0 006.14.46v1.49s-3.57.63-5.9-.38z" fill="#fff"/><path d="M203.23 144.75a11.37 11.37 0 011.19-.07 7.91 7.91 0 014.81 1.47c-.55.08-1.31.18-1.65.21-2.41.16-3.68-.65-4.35-1.61z" fill="#c13b37"/><path d="M209.7 161.87s-2.54-.86-3.56 0c0 0 .19 6.59-5.13 7.42s-13.49-6.38-13.49-6.38a4.91 4.91 0 00-3.56.56l20.91 22.79c8.39-8.82 4.83-24.39 4.83-24.39z" fill="#57c278"/><path d="M171.41 188.34c-2-2.73-6.13-14.08-1.63-20.24s31.63 30.9 31.63 30.9c4.58-2.27 25.85-9.4 25.85-9.4s.71-7.43 3.84-9.24 4.57-6.57 7.23-3.75 5.78 10.64 1.68 13.6a89.91 89.91 0 01-8.21 5.22S215.43 207 203.54 211s-23.73-11.32-32.13-22.66z" fill="#eec8c0"/><path d="M171.41 188.34c-2-2.73-6.13-14.08-1.63-20.24s31.63 30.9 31.63 30.9c4.58-2.27 25.85-9.4 25.85-9.4s.71-7.43 3.84-9.24 4.57-6.57 7.23-3.75 5.78 10.64 1.68 13.6a89.91 89.91 0 01-8.21 5.22S215.43 207 203.54 211s-23.73-11.32-32.13-22.66z" fill="#fff" opacity=".1"/><path d="M171.41 188.34c-2-2.73-6.13-14.08-1.63-20.24s31.63 30.9 31.63 30.9c4.58-2.27 25.85-9.4 25.85-9.4s.71-7.43 3.84-9.24 4.57-6.57 7.23-3.75 5.78 10.64 1.68 13.6a89.91 89.91 0 01-8.21 5.22S215.43 207 203.54 211s-23.73-11.32-32.13-22.66z" fill="#fff" opacity=".1"/><path d="M222.59 237.07l-1.28-6.07s-33.25 3.45-47.44.29l-1.85 5.8z" fill="#263238"/><path d="M189.83 146.75A1.81 1.81 0 11188 145a1.8 1.8 0 011.83 1.75z" fill="#fff"/><path d="M302.22 162.28a27 27 0 01-3.88 6c1.19 1.23 3.4.77 3.4.77z" fill="#a02724"/><path d="M327.34 173.6l-6.65 5-9.08 6.75a9.22 9.22 0 01.83 3.3c.29 2.52.58 4.39-5.05 5.86a3.17 3.17 0 00-2.42 2.45c-.24 1.49.64 3.3 5.8 4.26a23.79 23.79 0 0014.65-2.27c2.21-1.07 2.23-2.39 1.34-4.62-2.67-6.42-1.22-14.47.58-20.73z" fill="#ff8b7b"/><path d="M300.46 161.58c-.2.78 0 1.5.38 1.6s.89-.45 1.09-1.23 0-1.5-.38-1.61-.9.45-1.09 1.24zm5.9-1.18a.5.5 0 01-.43-.25 4.86 4.86 0 00-4-2.4.5.5 0 010-1 5.92 5.92 0 014.88 2.9.52.52 0 01-.19.69.54.54 0 01-.26.06z" fill="#263238"/><path d="M300.41 172.64a14.62 14.62 0 006.83 11 13.46 13.46 0 004.19 1.73 12.44 12.44 0 0010.43-2.37c5.79-4.38 6.46-10.31 8.47-20.27a14.12 14.12 0 00-17-16.67c-10.33 2.48-13.82 17.21-12.92 26.58z" fill="#ff8b7b"/><path d="M307.24 183.61a13.46 13.46 0 004.19 1.73h.18l-.63-2s-.86 1.43-3.74.27z" opacity=".2"/><path d="M333.23 169.9c-1.68 3.43-3.76 6.87-6.93 9-1.17.8-10.05.21-10.05.21.09-3-3.73-13.4-5.57-16.89-.58 1.43.24 3.39-.49 4.71-1-.19-18.79-6.59-10.95-19.38 5.54-9 20.4-9.82 26.57-.92a7.5 7.5 0 017.43 2.22 12.39 12.39 0 013 7.44c.45 4.71-.95 9.37-3.01 13.61z" fill="#263238"/><path d="M316.77 164.78a9.29 9.29 0 01-2.87 6c-2.14 2-4.82-.12-5.15-3-.3-2.57.95-6.33 3.56-7.23s4.69 1.45 4.46 4.23zm-86.01 224.75l-9.21-4.52 6.81-22.44 11.22 6.26-8.82 20.7z" fill="#ff8b7b"/><path style="isolation:isolate" opacity=".2" d="M242 362.67l-11.81-6.81-4.68 16.17 10.66 5.02 5.83-14.38z"/><path d="M221 383.22l10.55 4.87a.86.86 0 01.41 1.09l-3.45 10.25a1.91 1.91 0 01-2.45 1.24c-3.64-1.77-5.31-2.83-9.94-5-2.86-1.31-9.37-4.42-13.43-5.89s-2.38-6.24-.52-6.05c8.37.89 13.29.69 16.93-.58a2.54 2.54 0 011.9.07z" fill="#263238"/><path d="M215.57 383.92a13.11 13.11 0 002.61.72.21.21 0 00.23-.1.24.24 0 00.06-.25c-.21-.34-2.13-3.3-3.47-3.35a.85.85 0 00-.77.4 1.33 1.33 0 00-.24 1.34 2.8 2.8 0 001.58 1.24zm2.2.16c-1.83-.44-3.07-1-3.32-1.6a.86.86 0 01.2-.84.45.45 0 01.38-.22c.7.02 1.97 1.49 2.74 2.66z" fill="#57c278"/><path d="M218.19 384.64h.11a.29.29 0 00.2-.14c0-.12 1.43-2.75.86-4.07a1.18 1.18 0 00-.81-.71.91.91 0 00-1.08.33c-.66.94-.08 3.52.62 4.48a.16.16 0 00.1.11zm.34-4.39a.7.7 0 01.39.4 5.33 5.33 0 01-.66 3.27 4.92 4.92 0 01-.4-3.57c0-.13.21-.24.55-.14zm82.39-106.71s-54.28-9.34-61.11 20.35c-5.27 20.79-7.82 29.25-14.53 75.35l14.33 3.23s23.1-47.22 24.45-67.3c16.2 2.74 53.06 10.42 60.91-3.29a65.74 65.74 0 007.75-22.52z" fill="#57c278"/><path d="M300.92 273.54s-54.28-9.34-61.11 20.35c-5.27 20.79-7.82 29.25-14.53 75.35l14.33 3.23s23.1-47.22 24.45-67.3c16.2 2.74 53.06 10.42 60.91-3.29a65.74 65.74 0 007.75-22.52z" opacity=".3"/><path fill="#57c278" d="M241.44 375.66l-18.35-6.42 1.72-8.31 18.82 7.65-2.19 7.08z"/><path fill="#ff8b7b" d="M192.77 386.21l-9.68-5.37 9.62-18.59 11.93 4.85-11.87 19.11z"/><path style="isolation:isolate" opacity=".2" d="M207.97 361.38l-10.63-8.54-7.09 15.27 9.76 6.59 7.96-13.32z"/><path d="M184.08 378.49l9.69 6.42A.85.85 0 01194 386l-5 9.61a1.9 1.9 0 01-2.61.85c-3.33-2.3-4.81-3.6-9.07-6.43-2.62-1.73-8.58-5.79-12.37-7.87s-1.4-6.52.41-6.05c8.14 2.15 13 2.71 16.82 2a2.54 2.54 0 011.9.38z" fill="#263238"/><path d="M178.61 378.35a13 13 0 002.47 1.1.2.2 0 00.24-.06.23.23 0 00.1-.23c-.15-.38-1.6-3.59-2.92-3.84a.87.87 0 00-.83.27 1.39 1.39 0 00-.44 1.29 2.87 2.87 0 001.38 1.47zm2.15.49c-1.74-.72-2.88-1.42-3-2.08a.87.87 0 01.33-.81.44.44 0 01.4-.15c.66.12 1.65 1.76 2.27 3.04z" fill="#57c278"/><path d="M181.09 379.46h.1a.26.26 0 00.22-.1c.05-.11 1.83-2.5 1.47-3.89a1.18 1.18 0 00-.69-.83.91.91 0 00-1.12.16c-.79.83-.62 3.46-.07 4.52a.18.18 0 00.09.14zm1-4.29a.71.71 0 01.33.46 5.23 5.23 0 01-1.16 3.12 4.87 4.87 0 01.16-3.58c.05-.12.25-.2.57-.06zm101.72-104.52c-.38-.07-59.51-16.06-69.31 17.44-13.44 40.77-23.41 75.38-23.41 75.38l11.6 8.41s29.59-40.94 34-69c18.48-2.08 62.64 14.11 70.49.41 6.43-11.2 6.74-27.54 6.74-27.54z" fill="#57c278"/><path d="M283.81 270.65c-.38-.07-59.51-16.06-69.31 17.44-13.44 40.77-23.41 75.38-23.41 75.38l11.6 8.41s29.59-40.94 34-69c18.48-2.08 62.64 14.11 70.49.41 6.43-11.2 6.74-27.54 6.74-27.54z" opacity=".3"/><path fill="#57c278" d="M204.41 374.04l-15.69-10.5 2.54-6.72 16.86 9.2-3.71 8.02zm134.39-171.8c-1 4-2.21 7.95-3.52 11.9s-2.81 7.86-4.57 11.86a64 64 0 01-6.61 11.68 27.09 27.09 0 01-5.45 5.66 17.1 17.1 0 01-4.2 2.38 13.87 13.87 0 01-2.67.72l-.73.12c-.38 0-.8.06-1.17.06a9.74 9.74 0 01-1.87-.21 13 13 0 01-2.65-.85 15.7 15.7 0 01-2-1 30.82 30.82 0 01-3.06-2.17C298.6 241 292.26 231 287.75 224l5.37-4.48c5.82 5.27 11.73 10.69 17.65 15.32 1.52 1.08-4.89-3.25-3.46-2.33a16.55 16.55 0 002 1.07c.57.26 1.13.39 1 .29a1.21 1.21 0 00-.38-.06 3.09 3.09 0 00-.43 0 1.39 1.39 0 00.21-.1 5.69 5.69 0 00.93-.68 17 17 0 002.65-3.15 54.66 54.66 0 004.76-9.41c1.46-3.48 2.65-7 3.8-10.69s2.22-7.37 3.19-11.15 14.8-.41 13.76 3.61z"/><path d="M338.8 202.24c-1 4-2.21 7.95-3.52 11.9s-2.81 7.86-4.57 11.86a64 64 0 01-6.61 11.68 27.09 27.09 0 01-5.45 5.66 17.1 17.1 0 01-4.2 2.38 13.87 13.87 0 01-2.67.72l-.73.12c-.38 0-.8.06-1.17.06a9.74 9.74 0 01-1.87-.21 13 13 0 01-2.65-.85 15.7 15.7 0 01-2-1 30.82 30.82 0 01-3.06-2.17C298.6 241 292.26 231 287.75 224l5.37-4.48c5.82 5.27 11.73 10.69 17.65 15.32 1.52 1.08-4.89-3.25-3.46-2.33a16.55 16.55 0 002 1.07c.57.26 1.13.39 1 .29a1.21 1.21 0 00-.38-.06 3.09 3.09 0 00-.43 0 1.39 1.39 0 00.21-.1 5.69 5.69 0 00.93-.68 17 17 0 002.65-3.15 54.66 54.66 0 004.76-9.41c1.46-3.48 2.65-7 3.8-10.69s2.22-7.37 3.19-11.15 14.8-.41 13.76 3.61z" fill="#fff" opacity=".6"/><path d="M293.52 220.12l-5.13-10.89-9.75 5.57s6.31 10.11 9.86 9.11zm-13.09-13.47L276 208.5a1.72 1.72 0 00-.59 2.79l3.31 3.46 9.75-5.57-6.73-2.54a1.74 1.74 0 00-1.31.01zm-36.85 33.51l-10.5-1.28-3.49 11s12 .3 14-2.94zm-18.33 2.47l-2 4.19a2 2 0 001.66 2.8l4.65.29 3.49-11-6.79 2.76a2 2 0 00-1.01.96z" fill="#ff8b7b"/><path d="M342.14 201.66c-.47-2.44-4.1-5.41-6.56-5.82l-1.63-.28a90.71 90.71 0 00-9.94-1 178.63 178.63 0 00-20 0c-3.09.29-6.12.79-8.53 1.26h-.09a6.26 6.26 0 00-4.94 5.94c-.23 7.55-.81 22.89-2.17 38-1.05 11.81-3.38 23.32-4.43 31.32l48.92 8.26c3.3-9.28 4.44-17.67 7.49-34.91 1.79-10.37 3.83-32.73 1.88-42.77z" fill="#57c278"/><path d="M342.14 201.66c-.47-2.44-4.1-5.41-6.56-5.82l-1.63-.28a90.71 90.71 0 00-9.94-1 178.63 178.63 0 00-20 0c-3.09.29-6.12.79-8.53 1.26h-.09a6.26 6.26 0 00-4.94 5.94c-.23 7.55-.81 22.89-2.17 38-1.05 11.81-3.38 23.32-4.43 31.32l48.92 8.26c3.3-9.28 4.44-17.67 7.49-34.91 1.79-10.37 3.83-32.73 1.88-42.77z" fill="#fff" opacity=".6"/><path d="M295.23 197a7.8 7.8 0 014 10.33c-4 9-10.7 23.19-13.58 28.17-1.09 1.76-2.19 3.52-3.42 5.28-.61.89-1.3 1.76-2 2.67-.4.45-.72.87-1.19 1.35l-.67.7-.38.39a9.87 9.87 0 01-3.73 2.17 17.09 17.09 0 01-2.24.57 24.48 24.48 0 01-3.73.31c-2.16 0-17 1.33-24.58-1.32l-.4-8.17c7.56.6 20.75-3.49 22.45-3.67a13.91 13.91 0 002-.41 3 3 0 00.62-.26c.07 0 0-.08-.31.13a1.83 1.83 0 00-.31.24l.11-.14.31-.37c.21-.22.45-.58.68-.87.45-.62.91-1.29 1.37-2 .91-1.42 1.79-3 2.66-4.59 1.73-3.19 3.33-6.57 4.89-10 1.1-2.42 4.36-9.78 7.13-16.37a7.81 7.81 0 0110.32-4.14z" fill="#57c278"/><path d="M288.6 228.79c.14 4.47.08 3 .24 7.71 13.06-18.07 9.7-30.62 9.7-30.62z" style="isolation:isolate" opacity=".2"/><path d="M295.23 197a7.8 7.8 0 014 10.33c-4 9-10.7 23.19-13.58 28.17-1.09 1.76-2.19 3.52-3.42 5.28-.61.89-1.3 1.76-2 2.67-.4.45-.72.87-1.19 1.35l-.67.7-.38.39a9.87 9.87 0 01-3.73 2.17 17.09 17.09 0 01-2.24.57 24.48 24.48 0 01-3.73.31c-2.16 0-17 1.33-24.58-1.32l-.4-8.17c7.56.6 20.75-3.49 22.45-3.67a13.91 13.91 0 002-.41 3 3 0 00.62-.26c.07 0 0-.08-.31.13a1.83 1.83 0 00-.31.24l.11-.14.31-.37c.21-.22.45-.58.68-.87.45-.62.91-1.29 1.37-2 .91-1.42 1.79-3 2.66-4.59 1.73-3.19 3.33-6.57 4.89-10 1.1-2.42 4.36-9.78 7.13-16.37a7.81 7.81 0 0110.32-4.14z" fill="#fff" opacity=".6"/><path d="M309.92 162a7.86 7.86 0 00-2.65 5.46c-.13 2.77 2.56 3.52 4.89 2.22 2.12-1.18 4.71-4 3.73-6.56s-4.01-2.86-5.97-1.12z" fill="#fab27b"/><path d="M318.82 166.32c-.2 4.54-2.94 8.11-7.48 7.91s-7-4-6.76-8.54 2.95-8.11 7.49-7.91 6.93 4 6.75 8.54z" fill="#57c278"/><path d="M318.82 166.32c-.2 4.54-2.94 8.11-7.48 7.91s-7-4-6.76-8.54 2.95-8.11 7.49-7.91 6.93 4 6.75 8.54z" fill="#fff" opacity=".7"/><path d="M316.73 166.23c-.15 3.21-2.08 5.72-5.29 5.58s-4.91-2.82-4.76-6 2.07-5.72 5.28-5.58 4.91 2.77 4.77 6z" fill="#57c278"/><path d="M316.73 166.23c-.15 3.21-2.08 5.72-5.29 5.58s-4.91-2.82-4.76-6 2.07-5.72 5.28-5.58 4.91 2.77 4.77 6z" fill="#fff" opacity=".3"/><path d="M311.47 157c.93-3.82 4.61-14 12.24-15.42a2.16 2.16 0 012 .72l.91 1a2.19 2.19 0 01-.6 3.35 23.6 23.6 0 00-10.7 11.53 1.6 1.6 0 01-1.88.92l-.85-.23a1.59 1.59 0 01-1.12-1.87z" fill="#57c278"/><path d="M311.47 157c.93-3.82 4.61-14 12.24-15.42a2.16 2.16 0 012 .72l.91 1a2.19 2.19 0 01-.6 3.35 23.6 23.6 0 00-10.7 11.53 1.6 1.6 0 01-1.88.92l-.85-.23a1.59 1.59 0 01-1.12-1.87z" fill="#fff" opacity=".2"/><path fill="#263238" d="M251.26 268.75h6.5v27.74h-6.5z"/><path fill="#263238" d="M251.26 268.75h6.5v27.74h-6.5z"/><path d="M276.59 277.22a67 67 0 00-44.19 0 6.27 6.27 0 01-7.78-3c-1.33-2.8.45-6.43 4.06-7.69a78.21 78.21 0 0151.61 0c3.6 1.25 5.38 4.89 4.06 7.69a6.3 6.3 0 01-7.76 3z" fill="#263238"/><path d="M276.59 277.22a67 67 0 00-44.19 0 6.27 6.27 0 01-7.78-3c-1.33-2.8.45-6.43 4.06-7.69a78.21 78.21 0 0151.61 0c3.6 1.25 5.38 4.89 4.06 7.69a6.3 6.3 0 01-7.76 3z" fill="#263238" opacity=".4"/><path d="M269.81 407.94a5.06 5.06 0 11-5.06-5.06 5.06 5.06 0 015.06 5.06zm74.3 0a5.06 5.06 0 105.05-5.06 5 5 0 00-5.05 5.06zm-43.82-1.62a5.06 5.06 0 105-5.06 5.06 5.06 0 00-5 5.06z" fill="#263238"/><path d="M360.19 401.14a2.47 2.47 0 01-2.5 2l-52.75-.72-49.41 1.12a2.46 2.46 0 01-.54-4.87l27-5.24a46.57 46.57 0 018.49-.79h29a46.3 46.3 0 018.48.79l30.32 4.86a2.45 2.45 0 011.91 2.85z" fill="#263238"/><path fill="#263238" d="M295.96 348.6h17.94v51.65h-17.94z"/><path fill="#263238" d="M298.54 315.88h12.79v32.98h-12.79z"/><path style="isolation:isolate" opacity=".2" d="M298.54 321.99l12.79 3.22v-9.33h-12.79v6.11z"/><path d="M299.79 292.41v23.32h-68.1a8.36 8.36 0 01-7.2-12.64 21.76 21.76 0 0118.71-10.68z" fill="#57c278"/><path d="M299.79 292.41v23.32h-68.1a8.36 8.36 0 01-7.2-12.64 21.76 21.76 0 0118.71-10.68z" fill="#fff" opacity=".2"/><path d="M313.5 206.05a14.57 14.57 0 00-.33 2.28l-7.49 107h-10.33l7.48-107a2.13 2.13 0 010-.25z" fill="#57c278"/><path d="M313.5 206.05a14.57 14.57 0 00-.33 2.28l-7.49 107h-10.33l7.48-107a2.13 2.13 0 010-.25z" fill="#fff" opacity=".2"/><path d="M361 315.75v.12h-1.74a12.5 12.5 0 001.74-.12z" fill="#263238"/><path d="M384 205.37l.12-12.72a14.09 14.09 0 00-3.52-9.58l-7.51-8.47-2.69-21.19a6.44 6.44 0 00-6.5-5.68h-18.66a7.67 7.67 0 00-7 4.75l-9.41 22.79-15.56 9.19a16.63 16.63 0 00-7.81 10.69l-2.84 13h.22l10.64-2a14.57 14.57 0 00-.33 2.28l-7.49 107h58.57a12.65 12.65 0 001.75-.12 13.2 13.2 0 0011.16-12l6.7-95.89a15.74 15.74 0 000-2.06zm-48.95-8.09L316.84 199l-.79.08 2.52-8.28 12.51-5.8 4.17-1.94.66 1.94.11.33.61 1.79zm35.78.22l-2.23-.58c0-.7-.08-1.42-.12-2.13-.23-4-.42-7.7-.42-7.7l.27-1.31.56-2.75 8.08 7.78v8.28z" fill="#57c278"/></svg>