<svg xmlns="http://www.w3.org/2000/svg" viewBox="0 0 500 500"><path fill="#263238" d="M253.61 112.42h192.78v140.43H253.61z"/><path d="M304.84 177.16a7.21 7.21 0 01-2.83-.78 9.7 9.7 0 00-1.85-.64 10.3 10.3 0 00-2-.12 7.22 7.22 0 01-2.86-.35 7.41 7.41 0 01-2.3-1.8 11.16 11.16 0 00-1.47-1.32 11.52 11.52 0 00-1.8-.87 7.15 7.15 0 01-2.52-1.43 7.26 7.26 0 01-1.43-2.51 9.37 9.37 0 00-.87-1.8 9.48 9.48 0 00-1.32-1.48 7.12 7.12 0 01-1.79-2.3 7.34 7.34 0 01-.36-2.85 10.36 10.36 0 00-.11-2 9.44 9.44 0 00-.65-1.84 5.54 5.54 0 010-5.67 9.76 9.76 0 00.65-1.85 10.21 10.21 0 00.11-2 7.42 7.42 0 01.36-2.86 7.19 7.19 0 011.79-2.29 9.48 9.48 0 001.32-1.48 9.66 9.66 0 00.87-1.8 7.4 7.4 0 011.43-2.52 7.57 7.57 0 012.52-1.43 9.66 9.66 0 001.8-.87A9.9 9.9 0 00293 131a7.65 7.65 0 012.3-1.79 7.22 7.22 0 012.86-.35 10.3 10.3 0 002-.12 9.7 9.7 0 001.85-.64 7.21 7.21 0 012.83-.78 7.3 7.3 0 012.84.78 9.38 9.38 0 001.84.64 10.3 10.3 0 002 .12 7.22 7.22 0 012.86.35 7.53 7.53 0 012.3 1.79 7.08 7.08 0 003.27 2.19 5.45 5.45 0 014 4 9.66 9.66 0 00.87 1.8 9.48 9.48 0 001.32 1.48 7.19 7.19 0 011.79 2.29 7.42 7.42 0 01.36 2.86 10.21 10.21 0 00.11 2 9.76 9.76 0 00.65 1.85 5.54 5.54 0 010 5.67 9.44 9.44 0 00-.65 1.84 10.36 10.36 0 00-.11 2 7.34 7.34 0 01-.36 2.85 7.12 7.12 0 01-1.79 2.3 9.48 9.48 0 00-1.32 1.48 9.37 9.37 0 00-.87 1.8 5.41 5.41 0 01-4 3.94 11.52 11.52 0 00-1.8.87 11.16 11.16 0 00-1.47 1.32 7.41 7.41 0 01-2.3 1.8 7.22 7.22 0 01-2.86.35 10.3 10.3 0 00-2 .12 9.38 9.38 0 00-1.84.64 7.3 7.3 0 01-2.84.71zm-6.29-2a8.89 8.89 0 011.71.12 9.94 9.94 0 011.94.68 5.08 5.08 0 005.28 0 9.94 9.94 0 011.94-.68 10.74 10.74 0 012.12-.12 6.74 6.74 0 002.66-.32 6.82 6.82 0 002.13-1.68 10.14 10.14 0 011.55-1.38 10.32 10.32 0 011.89-.92 7 7 0 002.35-1.32 6.72 6.72 0 001.32-2.35 11 11 0 01.92-1.89 10.22 10.22 0 011.39-1.56 7 7 0 001.68-2.13 6.75 6.75 0 00.31-2.66 10.59 10.59 0 01.13-2.11 10.7 10.7 0 01.67-2 5.06 5.06 0 000-5.27 11 11 0 01-.67-2 10.64 10.64 0 01-.13-2.11 6.75 6.75 0 00-.31-2.66 7 7 0 00-1.68-2.13 10.22 10.22 0 01-1.39-1.56 11 11 0 01-.92-1.89 4.95 4.95 0 00-3.67-3.67 10.32 10.32 0 01-1.89-.92 10.63 10.63 0 01-1.55-1.38 6.67 6.67 0 00-2.13-1.68 6.74 6.74 0 00-2.66-.32 7.47 7.47 0 01-4.06-.8 5.08 5.08 0 00-5.28 0 7.47 7.47 0 01-4.06.8 7 7 0 00-2.66.31 6.85 6.85 0 00-2.13 1.69 10.14 10.14 0 01-1.55 1.38 10.32 10.32 0 01-1.89.92 6.79 6.79 0 00-2.35 1.32 6.72 6.72 0 00-1.32 2.35 10.66 10.66 0 01-.92 1.89 10.22 10.22 0 01-1.39 1.56 6.85 6.85 0 00-1.68 2.13 6.75 6.75 0 00-.31 2.66 10.64 10.64 0 01-.13 2.11 11 11 0 01-.67 2 5.06 5.06 0 000 5.27 10.7 10.7 0 01.67 2 10.59 10.59 0 01.13 2.11 6.75 6.75 0 00.31 2.66 7 7 0 001.68 2.13 10.22 10.22 0 011.39 1.56 11 11 0 01.92 1.89 6.81 6.81 0 001.32 2.35 7 7 0 002.35 1.32 10.32 10.32 0 011.89.92 10.14 10.14 0 011.55 1.38 6.82 6.82 0 002.13 1.68 6.93 6.93 0 002.66.32z" fill="#fff"/><circle cx="304.84" cy="152.21" r="14.03" fill="#fff"/><path d="M314.86 138.43a.24.24 0 01-.18-.07.25.25 0 010-.36l11-11a.24.24 0 01.18-.07h21.7a.25.25 0 010 .5h-21.6L315 138.36a.22.22 0 01-.14.07zm-27.3 53.32h-21.7a.25.25 0 010-.5h21.6l10.89-10.89a.25.25 0 01.35.35l-11 11a.29.29 0 01-.14.04zm72.66-63.89a.2.2 0 01-.17-.09.22.22 0 010-.3 22.1 22.1 0 012.7-1.65 3.08 3.08 0 011.41-.43 3.13 3.13 0 011.37.4 5.32 5.32 0 00.5.21c1.42.54 3 .13 4.65-.31a10.19 10.19 0 014.49-.5 10.72 10.72 0 011 .3l.62.19a15.41 15.41 0 006.37-.11l1.34-.19a13 13 0 016.85.5c.28.12.56.26.83.4a5.56 5.56 0 002.07.72 6.06 6.06 0 002.44-.48l.8-.26c2.42-.71 5.09-.45 7.67-.21h.47a124.37 124.37 0 0021.14.15.21.21 0 01.23.19.22.22 0 01-.19.24 125.3 125.3 0 01-21.22-.15h-.47c-2.54-.24-5.17-.49-7.51.2-.26.07-.52.16-.78.25a6.61 6.61 0 01-2.62.5 6 6 0 01-2.22-.77c-.27-.14-.53-.27-.81-.39a12.69 12.69 0 00-6.63-.47l-1.32.2a16 16 0 01-6.56.1l-.63-.2a7.47 7.47 0 00-1-.28 9.71 9.71 0 00-4.3.49c-1.65.43-3.36.88-4.92.3l-.52-.23a3.26 3.26 0 00-1.2-.36 2.69 2.69 0 00-1.21.38 20.9 20.9 0 00-2.64 1.62.33.33 0 01-.03.04zm37.89 5.73a8.08 8.08 0 01-2.58-.6 7.87 7.87 0 00-2.65-.61 8 8 0 00-1.86.33 11.44 11.44 0 01-1.22.29 13.41 13.41 0 01-3.29 0h-.14c-4.88-.47-9.88-.65-14.72-.83-1.67-.06-3.54.21-3.77 1.14a.2.2 0 01-.18.16.22.22 0 01-.22-.11c-.5-.91-2.05-1.3-3.32-1.21a12.19 12.19 0 00-3.86 1.11.21.21 0 01-.28-.12.22.22 0 01.12-.28 12.7 12.7 0 014-1.14 4.51 4.51 0 013.5 1.1c.7-1.07 3-1.12 4-1.08 4.85.18 9.86.36 14.76.83h.13a12.55 12.55 0 003.18 0 11.25 11.25 0 001.18-.27 8 8 0 012-.35 8.79 8.79 0 012.79.63 5.53 5.53 0 003.2.49 4.87 4.87 0 001-.41l.52-.25a11.75 11.75 0 015.31-.44 22.17 22.17 0 003.15.06.21.21 0 01.23.19.22.22 0 01-.19.24 23.08 23.08 0 01-3.22-.06 11.29 11.29 0 00-5.11.41c-.17.07-.33.16-.49.24a5.59 5.59 0 01-1.06.43 3.24 3.24 0 01-.91.11zm-37.89 6.6a.22.22 0 01-.08-.42 38.35 38.35 0 015.12-1.68 9.05 9.05 0 012.86-.35 9.54 9.54 0 011.72.36 9.59 9.59 0 001.66.34 10.43 10.43 0 002-.12 6.5 6.5 0 013 .09 5.05 5.05 0 01.81.39 4.31 4.31 0 00.78.38c1.3.45 2.6-.14 4-.77a7.71 7.71 0 013.9-1 6.72 6.72 0 012.54 1 5.2 5.2 0 002.74.88 6 6 0 001.34-.29h.13a30.14 30.14 0 0111.22-1.13h.2a7.59 7.59 0 001.58 0 8 8 0 00.95-.2l.7-.17a11.44 11.44 0 014.35.31l.82.16a27.11 27.11 0 0011.24-.36.22.22 0 01.1.42 27.58 27.58 0 01-11.41.36l-.84-.16a11 11 0 00-4.18-.3c-.23 0-.45.1-.67.15a8.23 8.23 0 01-1 .22 8.46 8.46 0 01-1.67 0h-.2a29.93 29.93 0 00-11.06 1.11h-.13a6 6 0 01-1.43.31 5.67 5.67 0 01-3-.93 6.5 6.5 0 00-2.38-.91 7.31 7.31 0 00-3.67 1c-1.39.64-2.82 1.29-4.29.79a5.15 5.15 0 01-.85-.41 5.22 5.22 0 00-.75-.37 6.16 6.16 0 00-2.78-.06 11.12 11.12 0 01-2.08.12 9.58 9.58 0 01-1.74-.36 9.57 9.57 0 00-1.64-.34 8.63 8.63 0 00-2.73.34 37.92 37.92 0 00-5.06 1.66zm0 5.42a.22.22 0 01-.21-.17.21.21 0 01.16-.26 32.51 32.51 0 016-.92 4.79 4.79 0 011.77.12 3 3 0 01.38.15 2.67 2.67 0 00.5.17 3.52 3.52 0 001.16 0 31.66 31.66 0 015.4-.39.23.23 0 01.21.22.21.21 0 01-.22.21 30 30 0 00-5.28.38 3.92 3.92 0 01-1.36.05 3.3 3.3 0 01-.58-.2l-.34-.13a4.37 4.37 0 00-1.62-.1 32.62 32.62 0 00-6 .91zm23.56-.74a.22.22 0 110-.43h3.68c8.59 0 17.29 0 25.87-.12a.22.22 0 01.21.22.21.21 0 01-.21.21c-8.58.1-17.29.14-25.88.12h-3.67z" fill="#fff"/><path d="M412.05 198.63c0 2.4-1.66 4.61-2.11 6.88s.22 5-.67 7.15-3.29 3.59-4.59 5.54-1.7 4.69-3.37 6.35-4.39 2-6.35 3.36-3.34 3.68-5.53 4.59-4.82.21-7.16.67-4.47 2.11-6.87 2.11-4.6-1.66-6.87-2.11-5 .22-7.16-.67-3.59-3.29-5.53-4.59-4.69-1.7-6.35-3.36-2.06-4.39-3.37-6.35-3.68-3.35-4.58-5.54-.22-4.82-.68-7.15-2.1-4.48-2.1-6.88 1.65-4.6 2.1-6.87-.21-5 .68-7.15 3.28-3.59 4.58-5.54 1.71-4.69 3.37-6.35 4.39-2.05 6.35-3.37 3.35-3.67 5.53-4.58 4.82-.21 7.16-.67 4.47-2.1 6.87-2.1 4.61 1.66 6.87 2.11 5-.22 7.16.67 3.59 3.28 5.54 4.59 4.68 1.7 6.35 3.36 2.05 4.39 3.36 6.35 3.68 3.35 4.59 5.54.21 4.82.67 7.15 2.11 4.47 2.11 6.86z" fill="#fff" opacity=".1"/><rect x="265.25" y="242.1" width="22.48" height="7.27" rx="1.93" fill="#56d480"/><rect x="265.25" y="239.08" width="22.48" height="3.02" rx="1.13" fill="#fff"/><path fill="#263238" d="M348.49 252.01h3.02v158.76h-3.02z"/><rect x="344.13" y="361.36" width="11.74" height="5.58" rx="1.7" fill="#263238"/><path fill="#263238" d="M320.12 410.78h-3.02l31.39-46.63h3.02l-31.39 46.63z"/><path fill="#263238" d="M379.88 410.78h3.02l-31.39-46.63h-3.02l31.39 46.63z"/><path d="M447 113.85H253a1.43 1.43 0 01-1.43-1.43A1.43 1.43 0 01253 111h194a1.42 1.42 0 011.42 1.42 1.42 1.42 0 01-1.42 1.43zm7.7 135.52H245.3l4.88 5.29h199.64l4.88-5.29z" fill="#e0e0e0"/><path fill="#56d480" d="M103.84 295.22h95.99v2.35h-95.99z"/><path fill="#263238" d="M174.38 295.22h25.45v2.35h-25.45zm-13.74 119.11h-1.45l-6.06-62.05c-.5-5.15-3.86-9-7.79-9H133.4c-4 0-7.29 3.88-7.79 9l-6.06 62.05h-1.45l6.08-62.33c.59-6.09 4.55-10.69 9.22-10.69h11.94c4.66 0 8.63 4.6 9.22 10.69zm-45.17 0H114l-6-62.05c-.5-5.15-3.85-9-7.79-9H88.23c-3.94 0-7.29 3.88-7.79 9l-6.06 62.05h-1.45L79 352c.59-6.09 4.56-10.69 9.22-10.69h11.94c4.67 0 8.63 4.6 9.22 10.69zM109 214.53c.22.62.73 1 1.15.9s.57-.74.35-1.37-.73-1-1.14-.9-.61.74-.36 1.37z"/><path d="M109.57 215a21.1 21.1 0 004.36 3.52 3.21 3.21 0 01-2.33 1.41z" fill="#ed893e"/><path d="M106.33 212.51a.44.44 0 01-.2 0 .38.38 0 01-.31-.45 3.73 3.73 0 012.1-2.81.39.39 0 01.29.72 3 3 0 00-1.63 2.23.4.4 0 01-.25.31z" fill="#263238"/><path d="M89.63 224.27l6.42 6.08 8.51 4.78c-.3.28-.19 2.18-.07 3.13a5 5 0 003.51 4.61c1 .43 2 1 2.19 1.94.2 1.16-.65 2.6-5.41 3.29a25.14 25.14 0 01-13.43-1.89c-2-.82-1.66-1.72-1.16-3.62 1.28-4.85.99-13.41-.56-18.32z" fill="#ffb573"/><path d="M87.07 244.81A55.27 55.27 0 0089.5 237s13-.95 17.33.75 7 9.07 7 9.07z" fill="#263238"/><path d="M88.21 220.84c3.07 7.33 4.49 11.77 9.59 14.23 7.67 3.7 15.67-3.11 14.84-11.24-.75-7.32-5.64-18.06-14-18.36a11 11 0 00-10.43 15.37z" fill="#ffb573"/><path d="M103.65 220.46c2.89-3.3.88-9-1.68-11.23 2.48-.09 8.9-.65 7-6.18s-8.51-6.18-10.43-3.45c-5.46-3-12-.4-10.43 3.77-6.42-1-8.26 5.37-5.61 7.94-3.37 2.81-4.58 8.34-.17 10.43s4.5 7.3 9 10 14.81-1.9 12.32-11.28z" fill="#263238"/><path d="M99.94 221.57a7.25 7.25 0 004.13 3.08c2.21.59 3.28-1.86 2.46-4-.74-1.88-3-4-5.1-3.69s-2.67 2.74-1.49 4.61zm-6.77 33.03l-6.5 13c-1.09 2.17-2.15 4.33-3.18 6.5s-2.06 4.3-2.95 6.42c-.48 1.07-.88 2.09-1.31 3.14l-.55 1.49-.07.19v.14-.1a4.75 4.75 0 00.13-1.28 2.08 2.08 0 00-.18-.92c-.08-.14 0 .13.06.45a8.49 8.49 0 00.49 1.17c.43.87 1 1.81 1.54 2.78 2.35 3.88 5.22 8 7.82 12.08l.07.1a3.89 3.89 0 01-5.4 5.35 64.49 64.49 0 01-6.31-4.6 63.52 63.52 0 01-5.86-5.36 34.23 34.23 0 01-2.81-3.26 24.51 24.51 0 01-1.4-2 13.68 13.68 0 01-1.38-3 10 10 0 01-.47-2.75 8.47 8.47 0 01.24-2.21l.16-.64.53-2.07c.4-1.29.77-2.63 1.21-3.86.85-2.53 1.78-4.93 2.72-7.33s2-4.73 3-7c2.12-4.64 4.31-9.13 6.81-13.63a7.7 7.7 0 0113.63 7.17z" fill="#ffb573"/><path d="M88.12 241.57c8.38.3 12.19 6.57 5.24 17.73-6 9.59-6.79 9.79-6.79 9.79l-15.17-7.52c5.1-9.71 8.15-20.32 16.72-20z" fill="#56d480"/><path d="M88.12 241.57c8.38.3 12.19 6.57 5.24 17.73-6 9.59-6.79 9.79-6.79 9.79l-15.17-7.52c5.1-9.71 8.15-20.32 16.72-20z" opacity=".3"/><path d="M92.48 301.4l-.85-.95c-2.62-2.43-3.74-2.13-6.74-2.13l-3.67 2.75c2.22 6.1 6.71 5.83 6.71 5.83l1.3 1.21a2.35 2.35 0 003.81-.94l.38-1.08a4.72 4.72 0 00-.94-4.69zm87.97 90.82l7.17-4.03-7.63-17.47-7.17 4.02 7.63 17.48z" fill="#ffb573"/><path opacity=".2" d="M176.52 383.21l7.28-3.76-3.81-8.73-7.17 4.02 3.7 8.47z"/><path d="M186.69 384.52l-9.2.65a.6.6 0 00-.57.61l.07 7.3a1.47 1.47 0 001.54 1.36c3.19-.28 4.49-1.08 8.5-1.65 2.47-.36 8.4-.7 11.73-1.62s2.78-4 .06-3.86c-3.53.16-8.25-.73-10.69-2.38a2.32 2.32 0 00-1.44-.41zM124 308.49s41.88-2.5 45.42 13.74c7.2 33 14.15 51.33 14.15 51.33l-11.08 5.72s-16.32-22.86-21.13-46.28c-17.06-2.56-46.88 6.47-54-6.34-6.3-11.3-.77-19.42-.77-19.42z" fill="#263238"/><path fill="#56d480" d="M172.7 382.26l12.9-6.25-1.45-5.29-14.18 6.66 2.73 4.88zm16.99 3.49a10.81 10.81 0 01-2.2-.14.19.19 0 01-.16-.14.19.19 0 01.07-.2c.25-.2 2.45-1.95 3.48-1.63a.73.73 0 01.48.51 1.08 1.08 0 01-.16 1.06 2.3 2.3 0 01-1.51.54zm-1.7-.46c1.49.19 2.56.07 2.92-.34a.69.69 0 00.09-.69.38.38 0 00-.23-.25c-.56-.17-1.87.61-2.77 1.28z"/><path d="M187.53 385.61a.15.15 0 01-.09 0 .18.18 0 01-.11-.14c0-.1-.37-2.44.4-3.3a1 1 0 01.79-.32.75.75 0 01.74.53c.25.88-.85 2.67-1.63 3.22a.17.17 0 01-.1.01zm.89-3.4a.57.57 0 00-.4.2c-.46.51-.43 1.86-.36 2.64a3.9 3.9 0 001.23-2.59c0-.11-.1-.23-.38-.25z" fill="#56d480"/><path fill="#ffb573" d="M133.19 407.2l8.14-.39 1.33-19.22-8.14.39-1.33 19.22z"/><path d="M142.15 404.23l-9.21-.29a.6.6 0 00-.63.54l-.67 7.27a1.45 1.45 0 001.39 1.51c3.21 0 4.56-.36 8.61-.23 2.49.08 7 .48 11.2.48s2.51-3.4.27-3.72c-3.5-.5-7.3-3.12-9.56-5a2.28 2.28 0 00-1.4-.56z" fill="#263238"/><path d="M145 405.75a11.14 11.14 0 01-2.18-.36.19.19 0 01-.14-.16.19.19 0 01.09-.19c.26-.17 2.64-1.69 3.62-1.26a.72.72 0 01.43.55 1 1 0 01-.27 1 2.18 2.18 0 01-1.55.42zm-1.65-.62c1.46.33 2.54.32 2.94-.05a.7.7 0 00.16-.67.35.35 0 00-.21-.28c-.51-.23-1.89.42-2.87 1z" fill="#56d480"/><path d="M142.88 405.39h-.08a.18.18 0 01-.1-.16c0-.1-.12-2.46.74-3.24a1 1 0 01.82-.24.74.74 0 01.67.6c.16.9-1.12 2.58-2 3a.16.16 0 01-.05.04zm1.23-3.29a.6.6 0 00-.42.16 4.24 4.24 0 00-.62 2.59c.73-.58 1.59-1.86 1.48-2.45 0-.11-.07-.25-.35-.29z" fill="#56d480"/><path opacity=".2" d="M134.52 387.99l8.14-.39-.77 10.99-8.11-.01.74-10.59z"/><path d="M104.84 307.62s50.84 9.47 49.85 23.75c-1.77 25.71-10.39 62.45-10.39 62.45l-12.21.17s-1.67-38.21-.16-56.81c-15.25 0-45.26-.53-51.13-8.38-6.49-8.66.18-22.27.18-22.27z" fill="#263238"/><path fill="#56d480" d="M131.06 396.2l15.41-.22.73-5.01-16.78.49.64 4.74zm-15.3-154.06c-5-1-27.52-.69-27.52-.69a9 9 0 00-9.17 8c-.79 6.94 1.54 22.31 1.7 30.23.19 9.72.4 13.82.21 26.9l52.43 2.75c2-23.84-5.77-35.34-10.4-59.06-.69-3.63-2.26-7.16-7.25-8.13z"/><path d="M115.76 242.14c-5-1-27.52-.69-27.52-.69a9 9 0 00-9.17 8c-.79 6.94 1.54 22.31 1.7 30.23.19 9.72.4 13.82.21 26.9l52.43 2.75c2-23.84-5.77-35.34-10.4-59.06-.69-3.63-2.26-7.16-7.25-8.13z" opacity=".3"/><path d="M122.14 249.81c2.36 4.2 4.79 8.61 7.24 12.82 1.21 2.13 2.46 4.22 3.72 6.26s2.56 4 3.86 5.9l1 1.35c.33.46.65.82 1 1.23l.24.31.12.15-.08-.08-.18-.13s-.05 0 0 .06a8.83 8.83 0 00.94.68c1.71 1.11 3.93 2.24 6.08 3.38 4.36 2.27 8.92 4.52 13.34 7h.06A3.88 3.88 0 01157 296a105.5 105.5 0 01-15.39-3 62.44 62.44 0 01-7.88-2.65 20.6 20.6 0 01-2.37-1.21c-.2-.11-.49-.31-.75-.49l-.41-.3-.53-.45-.26-.23-.18-.18-.2-.2-.4-.4c-.51-.53-1.09-1.08-1.55-1.61l-1.43-1.6a121.29 121.29 0 01-9.43-13.07c-2.8-4.47-5.38-8.89-7.76-13.67a7.7 7.7 0 0113.59-7.23z" fill="#ffb573"/><path d="M108.08 247.08c4.51-7.06 11.85-7.16 17.94 4.49 5.23 10 5 10.81 5 10.81l-14.17 9.27c-5.8-9.32-13.39-17.34-8.77-24.57z" fill="#56d480"/><path d="M108.08 247.08c4.51-7.06 11.85-7.16 17.94 4.49 5.23 10 5 10.81 5 10.81l-14.17 9.27c-5.8-9.32-13.39-17.34-8.77-24.57z" opacity=".3"/><path d="M163.16 288.14l-1.24-.23c-3.57-.33-4.26.6-6.64 2.43l-1.23 4.42c5.49 3.47 8.88.51 8.88.51l1.77.17a2.34 2.34 0 002.43-3.07l-.36-1.09a4.69 4.69 0 00-3.61-3.14z" fill="#ffb573"/><path d="M53.18 302.21a36.55 36.55 0 01.71-16l1 .27a35.51 35.51 0 00-.68 15.55zm.715 4.08l.986-.167.953 5.6-.986.167zM156.6 337l-22.36-.89-5.86-34.45c-3-17.75-18.38-32.13-34.31-32.13H80c-15.93 0-26.39 14.38-23.37 32.13l4 23.78c1.49 8.8 9.11 15.94 17 15.94h88.54a.9.9 0 00.34-1.67 24.06 24.06 0 00-9.91-2.71z" fill="#56d480"/><path d="M161.87 340.59h-7.1v-1.83h7.1c17.85 0 32.38-16.23 32.38-36.18v-6.18h1.83v6.18c0 20.96-15.35 38.01-34.21 38.01z" fill="#263238"/><path fill="#56d480" d="M211.65 295.22h95.99v2.35h-95.99z"/><path fill="#e0e0e0" d="M243.57 294.05h32.14v1.18h-32.14z"/><path fill="#263238" d="M282.19 295.22h25.45v2.35h-25.45zm-13.74 119.11H267l-6.05-62.05c-.51-5.15-3.86-9-7.79-9h-12c-3.94 0-7.28 3.88-7.79 9l-6 62.05h-1.47L232 352c.59-6.09 4.55-10.69 9.21-10.69h12c4.66 0 8.62 4.6 9.22 10.69zm-45.17 0h-1.45l-6.06-62.05c-.5-5.15-3.85-9-7.79-9H196c-3.94 0-7.29 3.88-7.79 9l-6.06 62.05h-1.45l6.12-62.33c.59-6.09 4.55-10.69 9.22-10.69H208c4.66 0 8.63 4.6 9.22 10.69z"/><path d="M202.87 270.69l-1.93 14.19c-.61 4.73-1.24 9.46-1.7 14.11l-.15 1.73-.07.87a2.38 2.38 0 000-.43 2.6 2.6 0 00-.1-.4 2 2 0 00-.24-.49c-.15-.19-.17-.16-.13-.12a1.42 1.42 0 00.29.24 7.76 7.76 0 001.12.65 44.3 44.3 0 006.21 2.31c4.44 1.38 9.1 2.5 13.7 3.65l-.52 4a104.11 104.11 0 01-14.67-1.52 42.17 42.17 0 01-7.54-2 15.42 15.42 0 01-2.09-1 8.8 8.8 0 01-1.18-.8 6.6 6.6 0 01-1.36-1.44 5.83 5.83 0 01-.64-1.3 6.88 6.88 0 01-.2-.84 7 7 0 010-.87v-2.81c.2-4.94.65-9.77 1.17-14.59s1.13-9.61 1.89-14.41z" fill="#ffc3bd"/><path d="M230.5 311.26l-3.11 2.84a2.39 2.39 0 01-2.66.39l-3.43-1.65s-5.08-.21-5.81-3.32l1.32-2.41 7.87-.88a3.74 3.74 0 012.33.52l3.24 2a1.59 1.59 0 01.25 2.51zm-18.58-69.73c.8 4.87 1.48 13.77-2 16.89A45.51 45.51 0 01224 270.64c6-4.72 1-11.77 1-11.77-5.36-1.45-5.1-5.45-4.05-9.18z" fill="#ffc3bd"/><path d="M200.31 259.69c-6.13 2-7.45 10.21-6.9 16.6l12.37 7.61s3-9.33 3-14.32c-.05-5.31-4.31-11.24-8.47-9.89z" fill="#263238"/><path d="M239.26 271.63c-.51 7-2.08 18.89-5.94 38.84l-33.12-1c.87-12.23-.44-21.34-3.44-42.74a7 7 0 016.19-7.88c2.12-.22 4.54-.4 7-.45a106.21 106.21 0 0115 .45c1.62.2 3.28.45 4.87.72a11.37 11.37 0 019.44 12.06zm-12.04-39.93c.2.63.7 1 1.11.9s.58-.75.38-1.37-.7-1-1.11-.9-.6.75-.38 1.37z" fill="#263238"/><path d="M227.43 230.42l1.36-.92s-.39 1.43-1.36.92z" fill="#263238"/><path d="M227.64 232.65a17.41 17.41 0 003.52 3.28 2.83 2.83 0 01-2.1 1.14z" fill="#ed847e"/><path d="M226.2 226.06a.38.38 0 000-.38.39.39 0 00-.54-.08 3.82 3.82 0 00-1.63 3.13.37.37 0 00.4.36.38.38 0 00.37-.4 3 3 0 011.32-2.46.33.33 0 00.08-.17z" fill="#263238"/><path d="M205.07 235.87c3 7.54 4 10.79 9.2 13.49 7.76 4.06 16.37-1.22 15.73-9.49-.57-7.44-5.3-18.52-13.82-19.16a11 11 0 00-11.11 15.16z" fill="#ffc3bd"/><path d="M223.18 234.13c1.46-.42 4-3.33-.43-9.19 2.37-.43 4.3-4.78-2.2-7.27s-13.59-1.28-17.89 4.68c0 0-13.71 4.05-2.54 18.16s25.35 8.36 23.06-6.38z" fill="#263238"/><path d="M197.58 222.34a2.36 2.36 0 001.09 2 3.91 3.91 0 004.66.28 21.8 21.8 0 004.13-3.53 4 4 0 00-.3-5.72 4.93 4.93 0 00-.58-.42s-7.85.23-9 7.39z" fill="#56d480"/><path d="M198.69 221.4c4.49-.72 6.88-4.31 7.14-5.38-1-2.64-14-19.42-25.08-7.15-11.7 13 11.2 26.07 3 41.72 14.25-4.79 25.87-14.65 14.94-29.19z" fill="#263238"/><path d="M219.94 235.69a6.35 6.35 0 003.69 3.16c2.12.67 3.26-1.21 2.73-3.25-.47-1.84-2.14-4.41-4.3-4.19a2.85 2.85 0 00-2.12 4.28zm53.59 165.93l7.82-.74-5.27-19.26-7.82.74 5.27 19.26z" fill="#ffc3bd"/><path d="M291.89 406.15c-4.78-1.41-4.63-3.51-9.4-7.39a3.11 3.11 0 00-1.71-.78l-7.78-.54a.63.63 0 00-.62.54l-1.1 5.39c-.38 1.87.77 3.66 2.39 3.72 2.59.1 5.77.2 8.6.39 4.13.29 4.18 2.38 9 2.15 2.97-.14 2.25-3 .62-3.48z" fill="#263238"/><path fill="#ffc3bd" d="M302.63 376.84l5.3-4.6-8.87-13.47-6.63 6.28 10.2 11.79z"/><path d="M306.51 369.39l-6.32 5.85a.71.71 0 00-.11.9l3 4.64a3.13 3.13 0 004.66.5c2.07-1.6 3.24-4.41 5.69-6.71 3.57-3.34 4.21-3.25 6.42-7.92 1.5-3.14-1.77-3.15-2.92-2.18-2.89 2.46-1.75 2.56-8.48 4a4 4 0 00-1.94.92z" fill="#263238"/><path d="M221.77 309.9s53.62-7.94 59.17 5.81c9.66 23.91 23.64 50.85 23.64 50.85l-6.3 5.78s-24-21.51-32.32-45.54c-9.93 3.22-41.54 13.56-53.12 13.56-12.36 0-17.41-10.54-12.94-28a3.51 3.51 0 013.43-2.64c7.78 0 18.44.18 18.44.18z" fill="#56d480"/><path d="M221.77 309.9s53.62-7.94 59.17 5.81c9.66 23.91 23.64 50.85 23.64 50.85l-6.3 5.78s-24-21.51-32.32-45.54c-9.93 3.22-41.54 13.56-53.12 13.56-12.36 0-17.41-10.54-12.94-28a3.51 3.51 0 013.43-2.64c7.78 0 18.44.18 18.44.18z" fill="#fff" opacity=".5"/><path d="M226.91 316.88s44-1.33 44.38 14.26c.61 25.79 8.52 62.67 8.52 62.67l-8.67.81S258 365.23 254.55 340c-15.68 1-30.13.32-41.71.32-13 0-14-14.25-1.41-30.87 7.72.04 15.48 7.43 15.48 7.43z" fill="#56d480"/><path d="M226.91 316.88s44-1.33 44.38 14.26c.61 25.79 8.52 62.67 8.52 62.67l-8.67.81S258 365.23 254.55 340c-15.68 1-30.13.32-41.71.32-13 0-14-14.25-1.41-30.87 7.72.04 15.48 7.43 15.48 7.43z" fill="#fff" opacity=".5"/><path d="M199.77 307.53l-.94 2.94c-.12.23.14.47.53.48l34.08 1c.3 0 .55-.13.58-.31l.38-3c0-.2-.22-.39-.55-.4l-33.54-1a.57.57 0 00-.54.29z" fill="#fff"/><path d="M204.16 311.41h-.9c-.18 0-.31-.1-.3-.22l.54-3.84c0-.11.17-.2.35-.19h.9c.18 0 .31.1.3.21l-.54 3.84c-.01.12-.17.21-.35.2zm26.75.8h-.9c-.18 0-.31-.1-.3-.21l.54-3.84c0-.11.17-.2.35-.2h.9c.18 0 .31.1.3.22l-.54 3.83c-.01.12-.17.2-.35.2zm-13.38-.4h-.89c-.18 0-.32-.1-.3-.21l.53-3.84c0-.11.18-.2.36-.19h.9c.18 0 .31.11.29.22l-.53 3.84c-.02.1-.18.19-.36.18z" fill="#263238"/><path d="M240.52 275.43c.13.71.32 1.63.49 2.45s.38 1.7.6 2.54c.43 1.68.91 3.35 1.45 5a50.17 50.17 0 001.87 4.71 28.74 28.74 0 002.39 4.19l.16.25-.06-.08a.86.86 0 00-.14-.13 1.86 1.86 0 00-.27-.22 1.89 1.89 0 00-.83-.34h.1a8.48 8.48 0 002-.46 45.6 45.6 0 004.76-1.95c3.23-1.51 6.52-3.21 9.75-4.9l2.35 3.32a76.84 76.84 0 01-9.07 7 41.4 41.4 0 01-5.23 2.95 15.75 15.75 0 01-3.35 1.15 7.25 7.25 0 01-2.67.08 5.28 5.28 0 01-2.11-.86 4.51 4.51 0 01-.54-.44l-.25-.26-.19-.2-.25-.32a37.09 37.09 0 01-6.07-10.74 55.68 55.68 0 01-1.81-5.67c-.25-1-.47-1.92-.68-2.89s-.37-1.9-.52-3z" fill="#ffc3bd"/><path d="M236.54 263.39c5.8 4.47 5.8 17.61 5.8 17.61l-10 2.77s-7.19-8.71-5.37-12.84c1.91-4.3 6.44-9.93 9.57-7.54zm34.8 22.87a.51.51 0 01-.43-.26L263 270.85a.48.48 0 01.21-.65.49.49 0 01.65.2l7.92 15.15a.48.48 0 01-.21.65.46.46 0 01-.23.06z" fill="#263238"/><path d="M268 277.64l-3 1.84a4 4 0 00-1.65 2l-2.8 7.3-1.29 4.64c3 1.08 8.44-6 8.44-6l3.42-2.57a1.71 1.71 0 00.62-1.81l-1.17-4.36a1.71 1.71 0 00-2.57-1.04z" fill="#ffc3bd"/><path d="M264.41 337l-22.41-.92-5.86-34.45c-3-17.75-18.37-32.13-34.3-32.13h-14.03c-15.93 0-26.39 14.38-23.37 32.13l4 23.78c1.5 8.8 9.12 15.94 17 15.94H274a.9.9 0 00.33-1.67 24 24 0 00-9.92-2.68z" fill="#56d480"/><path d="M269.68 340.59h-7.1v-1.83h7.1c17.85 0 32.38-16.23 32.38-36.18v-6.18h1.82v6.18c0 20.96-15.34 38.01-34.2 38.01z" fill="#263238"/></svg>