<svg xmlns="http://www.w3.org/2000/svg" viewBox="0 0 500 500"><path d="M296.32 113.72a18.6 18.6 0 00-24.83-10.18c-8.52 3.76-13.14 14.69-9.93 23.42a18.51 18.51 0 009 10.17 10.45 10.45 0 014.26 3.75l2.64 4.22a7 7 0 008.48 2.8l6.66-2.63a7 7 0 004.28-7.84l-1-5.06a9.82 9.82 0 01.53-5.33 18.5 18.5 0 00-.09-13.32z" fill="#56d480"/><path d="M286.82 156.32a3.13 3.13 0 01-1.24-.26 3.06 3.06 0 01-1.66-1.71 3.11 3.11 0 011.75-4l8.83-3.49a3.1 3.1 0 014 1.75 3.07 3.07 0 010 2.38 3.13 3.13 0 01-1.71 1.66L288 156.1a3 3 0 01-1.18.22zm8.82-8.71a2 2 0 00-.77.15l-8.87 3.49a2.1 2.1 0 00-.07 3.89 2.07 2.07 0 001.62 0l8.83-3.48a2.09 2.09 0 001.15-1.13 2 2 0 000-1.61 2.13 2.13 0 00-2-1.34zm-4.32 14.09a2.09 2.09 0 01-.78-.16 2 2 0 01-1-1.07l-.15-.39a1.93 1.93 0 011.09-2.51l5.51-2.18a2 2 0 012.52 1.09l.15.39a1.95 1.95 0 01-1.09 2.51l-5.57 2.18a1.9 1.9 0 01-.68.14zm5.35-5.45a1 1 0 00-.34.07l-5.51 2.18a.93.93 0 00-.53 1.21l.15.39a.94.94 0 001.22.53l5.51-2.18a.94.94 0 00.52-.5.92.92 0 000-.71l-.15-.39a1 1 0 00-.87-.6z" fill="#263238"/><path d="M274.91 131.46a3.75 3.75 0 113.48-5.13l1.38 3.49-3.49 1.37a3.67 3.67 0 01-1.37.27zm0-6.5a2.75 2.75 0 101 5.3l2.56-1-1-2.55a2.74 2.74 0 00-2.57-1.71z" fill="#fff"/><path fill="#fff" d="M285.97 148.24l-7.49-18.99 6.89-2.72 7.49 18.99-.93.37-7.13-18.06-5.03 1.99 7.13 18.05-.93.37z"/><path d="M284.8 127.83l-1.37-3.49a3.75 3.75 0 114.86 2.11zm2.11-7.62a2.79 2.79 0 00-1 .2 2.74 2.74 0 00-1.54 3.57l1 2.55 2.55-1a2.75 2.75 0 00-1-5.31z" fill="#fff"/><path d="M300.33 175.49a68.37 68.37 0 01-11.21-.91l.17-1a67.4 67.4 0 0011 .9z" fill="#56d480"/><path d="M321 185.85l.53-1.08a19.55 19.55 0 001.05-13.07 62.46 62.46 0 01-12 3l-.15-1a61.45 61.45 0 0012.28-3.16l.5-.18.15.5a21 21 0 01-.47 13.21c12.29-4.89 25.12-22.25 25.12-42.93 0-18.36-21.41-33.3-47.73-33.3s-47.72 14.94-47.72 33.3c0 13.35 11.37 25.38 29 30.64l-.29 1c-18-5.39-29.68-17.79-29.68-31.6 0-18.91 21.86-34.3 48.72-34.3s48.73 15.39 48.73 34.3c0 21.74-14 39.91-26.9 44.28z" fill="#56d480"/><rect x="313.33" y="118.1" width="42.64" height="28.96" rx="4.4" transform="rotate(-10.13 334.506 132.558)" fill="#56d480"/><path fill="#fff" d="M340.76 131.49l-11.8-4.26 2.21 12.34 9.59-8.08z"/><rect x="127.11" y="296.67" width="91.34" height="10.91" rx="3.19" fill="#56d480"/><path fill="#56d480" d="M214.3 410.24h2.53l-2.91-102.66h-3.51l3.89 102.66z"/><path fill="#fff" opacity=".3" d="M214.3 410.24h2.53l-2.91-102.66h-3.51l3.89 102.66z"/><path fill="#56d480" d="M190.97 410.24h-2.53l2.92-102.66h3.5l-3.89 102.66z"/><path fill="#fff" opacity=".3" d="M190.97 410.24h-2.53l2.92-102.66h3.5l-3.89 102.66z"/><path fill="#56d480" d="M154.59 410.24h2.54l-2.92-102.66h-3.51l3.89 102.66z"/><path fill="#fff" opacity=".3" d="M154.59 410.24h2.54l-2.92-102.66h-3.51l3.89 102.66z"/><path fill="#56d480" d="M131.27 410.24h-2.54l2.92-102.66h3.5l-3.88 102.66z"/><path fill="#fff" opacity=".3" d="M131.27 410.24h-2.54l2.92-102.66h3.5l-3.88 102.66z"/><path fill="#ffc3bd" d="M241.31 384.15l9.02-3.05-7.42-21.06-9.01 3.05 7.41 21.06z"/><path d="M249.66 377.62l-9.88 4.38a.6.6 0 00-.33.85l3.75 7.62a1.93 1.93 0 002.39.81c3.41-1.57 4.94-2.48 9.29-4.39 2.68-1.17 8.07-3.26 11.41-5.41s.72-5.25-.92-4.63c-3.89 1.48-10.36 1.42-13.9.66a3 3 0 00-1.81.11z" fill="#263238"/><path opacity=".2" d="M233.9 363.1l9.02-3.06 4.23 12.05-9.17 2.62-4.08-11.61z"/><path d="M177.42 268.19s45 8.12 48.63 22.9c7.13 29.22 23.21 74.92 23.21 74.92l-17.12 5s-24.48-52.41-27.56-70.05c-25.25 0-56 2-60-8.68-3.51-9.48-2.26-24.05-2.26-24.05z" fill="#263238"/><path fill="#56d480" d="M231.2 374l20-6.6-1.71-9.03-21.81 7.68 3.52 7.95z"/><path fill="#ffc3bd" d="M202.11 387.35l9.96.76-5.85-24.58-9.29 2.1 5.18 21.72z"/><path d="M211.82 385.71l-10.73-1.19a.61.61 0 00-.72.58l-.56 8.48a2 2 0 001.67 1.89c3.73.35 5.52.32 10.24.84 2.9.32 8.62 1.21 12.59 1s3.25-4.2 1.51-4.47c-4.11-.67-9.67-3.95-12.36-6.38a2.93 2.93 0 00-1.64-.75z" fill="#263238"/><path opacity=".2" d="M196.93 365.64l9.29-2.1 2.95 12.42-9.39 1.65-2.85-11.97z"/><path d="M154 268.19s54.71 8.19 52.2 28.9c-3.61 29.86 5.66 73.05 5.66 73.05l-17.55 3.14s-12.9-53.68-13-71.59c-17.8 0-48.9 1.27-52.88-9.45-3.51-9.48-2.26-24.05-2.26-24.05z" fill="#263238"/><path fill="#56d480" d="M193.1 376.2l20.59-4.48-.76-9.15-22.5 5.35 2.67 8.28z"/><path d="M182.86 210.64c1.46 5.72 2.89 11.49 4.29 17.24s2.77 11.51 4.22 17.19l1.09 4.23.56 2.08.29 1v.19s0-.09-.05-.13a3.66 3.66 0 00-.28-.59l-.15-.23-.11-.15-.2-.22c-.21-.2-.24-.17-.19-.12a1.89 1.89 0 00.36.29 10.88 10.88 0 001.38.79c1.08.53 2.34 1 3.63 1.52 5.2 1.93 10.94 3.57 16.52 5.34l-.88 6.38a90.82 90.82 0 01-9.2-.36 81.94 81.94 0 01-9.27-1.3 40.56 40.56 0 01-4.86-1.26 21.9 21.9 0 01-2.69-1.06 12.5 12.5 0 01-1.55-.86 10.26 10.26 0 01-1.89-1.55c-.18-.2-.35-.39-.55-.65l-.28-.38-.28-.47a7.55 7.55 0 01-.53-1.1l-.16-.46-.39-1.1-.75-2.18c-.49-1.45-1-2.9-1.41-4.34-1.81-5.78-3.46-11.53-5-17.32s-3-11.57-4.34-17.43z" fill="#ffc3bd"/><path d="M168.8 203.72c5.49-6.12 14.19-1.84 17.86 11.86 1.78 6.66 1.22 10.14 1.22 10.14l-18.94 5.84c-4.07-9-7.61-19.5-.14-27.84z" fill="#56d480"/><path d="M168.8 203.72c5.49-6.12 14.19-1.84 17.86 11.86 1.78 6.66 1.22 10.14 1.22 10.14l-18.94 5.84c-4.07-9-7.61-19.5-.14-27.84z" opacity=".2"/><path d="M224.15 256.5l-1.7-.52a7.93 7.93 0 00-3.18-.29l-3.65.43a8.59 8.59 0 00-5.57 4.27l-1.24 2.42c.62 4.46 9.66 3 9.66 3H227l-.28-6.06a3.61 3.61 0 00-2.57-3.25z" fill="#ffc3bd"/><path d="M230 246.74a9 9 0 01-2 4.46c-.91 1.33-1.85 2.65-2.8 4-1.91 2.61-3.86 5.18-6 7.63a.58.58 0 01-.95-.65c1.48-2.9 3.15-5.66 4.86-8.4q1.29-2.05 2.64-4.07a9.11 9.11 0 013.37-3.56.66.66 0 011 .64z" fill="#263238"/><path d="M170.07 197.79l-10.67-3-13.73-.64a9.51 9.51 0 00-9.49 6.56c-2.62 8-5 19.52-6.78 29.49a231.8 231.8 0 00-3.21 38h51.23c1.05-28.45 4.4-42.35 6.38-52.42a13.72 13.72 0 00-7.55-15z" fill="#56d480"/><path d="M155.76 199.79c1.3 3.34 6.33 10.48 12.18 13.27 3.25-2.35 3.95-7.48 4.44-9.88z" fill="#fff"/><path d="M172.38 203.18a5.2 5.2 0 00-.44-3.94c-.83-1.3-.62-2.79.21-4.32a14.91 14.91 0 012.45-3.33l-6.71-7.85-5.47-6.34c-.47 5.93-.93 13.28-5.61 17.88-1.65 1.63-2 2.12-1.05 4.51 1.3 3.34 6 8 11.8 10.79a11.37 11.37 0 004.82-7.4z" fill="#ffc3bd"/><path d="M172.54 190.24l-3.79-6.15c-.07.16-.16.33-.25.51a14.39 14.39 0 00-.82 2.36c-.69 2.73 1.63 6.63 4.17 8.49.11-.17.2-.35.3-.53a18.68 18.68 0 012.29-3.23 1 1 0 01.16-.1z" opacity=".2"/><path d="M185.78 175.54c.88 5.67 9-8.92 4.46-12.12-5.54-3.92-6.12 1.33-4.46 12.12z" fill="#263238"/><path d="M162.67 168.14c-.52 9.21-1.31 14.56 2.92 19.88 6.36 8 18.57 5.36 21.94-3.45 3-7.94 3.37-21.66-5.48-26.52s-18.86.89-19.38 10.09z" fill="#ffc3bd"/><path d="M180.82 162.61s5.89 5.78 10.09 3.39 5.05-8.58 0-14c-2.43-2.61-6.11-5.16-13.33-5a5.56 5.56 0 002 1.25s-9.16-1.53-15.54 1.1a5.86 5.86 0 002 1.86c-6.21-.47-12.25 2-8 7.83-5.63.55-6.89 7.75-3.89 12.5s3.53 8.31 7.54 10.47c0-6.47 1.49-8 1.49-8 2.89-1.23 6.22-7.39 5.55-10.5 6.18 2.49 12.77 3.31 12.09-.9z" fill="#263238"/><path d="M159.52 158.83a12.7 12.7 0 01-4.39-5.55c-.72 3.22 2.61 6.89 2.61 6.89z" fill="#263238"/><path d="M158.07 173.17a8.76 8.76 0 002.33 5.67c1.91 2 4.51.3 5-2.27.4-2.31-.58-5.84-3-6.88s-4.4.9-4.33 3.48z" fill="#ffc3bd"/><path d="M177.75 172.89c-.15.76.12 1.47.61 1.59s1-.4 1.17-1.16-.12-1.47-.61-1.59-1.02.41-1.17 1.16zm8.5 2.03c-.16.76.12 1.46.61 1.58s1-.4 1.17-1.16-.13-1.47-.62-1.58-1.01.4-1.16 1.16z" fill="#263238"/><path d="M183.42 174.86a24.57 24.57 0 001.52 6.36c-1.4.71-3.16-.36-3.16-.36z" fill="#ed847e"/><path d="M180.21 185.11a6.66 6.66 0 01-4.29-3 .23.23 0 11.4-.22 6.37 6.37 0 004.82 2.88.21.21 0 01.2.24.22.22 0 01-.24.21 7.55 7.55 0 01-.89-.11zm-3.58-15.28a.46.46 0 01-.18-.13.46.46 0 01.06-.64 4.35 4.35 0 014-.9.45.45 0 11-.29.86 3.48 3.48 0 00-3.13.74.45.45 0 01-.46.07zm10.67.17a.55.55 0 010-.22.47.47 0 01.56-.32 4.37 4.37 0 013 2.78.45.45 0 01-.31.56.45.45 0 01-.56-.31 3.43 3.43 0 00-2.39-2.15.48.48 0 01-.3-.34z" fill="#263238"/><path d="M147.81 207.88c-1.92 5.48-3.84 11.19-5.55 16.79-.87 2.8-1.66 5.61-2.37 8.38a71.5 71.5 0 00-1.6 8.08c0 .3-.08.63-.09.92v.72c0-.07-.08.06 0 .27a5.71 5.71 0 001.21 2.06 30.79 30.79 0 005.8 5 129.85 129.85 0 0015.05 8.74l-2.14 6.16a79.29 79.29 0 01-9.15-2.58 73.35 73.35 0 01-8.92-3.73 36.93 36.93 0 01-8.7-5.91 16.88 16.88 0 01-3.92-5.41 11.88 11.88 0 01-1-4.16v-2.9a67.72 67.72 0 011.25-9.91c.6-3.16 1.35-6.22 2.16-9.26a178.07 178.07 0 015.81-17.82z" fill="#ffc3bd"/><path d="M145 194.09c9.78-.09 11.63 7.52 6.31 19.58a68.82 68.82 0 01-7.42 12.33l-16.17-8.59c2.16-9.63 6.11-23.22 17.28-23.32z" fill="#56d480"/><path d="M172 257.88l-3.58-2a3.14 3.14 0 00-1.92-.36l-4.3.6c-2.89.3-5 2.51-6.57 4.43l-1.83 2.24c-.09 4.52 11.33 3.46 11.33 3.46l10-.13-.31-3.94a5.44 5.44 0 00-2.82-4.3z" fill="#ffc3bd"/><path fill="#56d480" d="M114.65 263.89h270.69v12.67H114.65z"/><path fill="#fff" opacity=".3" d="M114.65 263.89h87.8v12.67h-87.8z"/><path fill="#56d480" d="M117.76 276.56h4.14v139.68h-4.14z"/><path fill="#fff" opacity=".7" d="M117.76 276.56h4.14v139.68h-4.14z"/><path fill="#56d480" d="M195.21 276.56h4.14v139.68h-4.14z"/><path fill="#fff" opacity=".7" d="M195.21 276.56h4.14v139.68h-4.14z"/><path fill="#56d480" d="M300.65 276.56h4.14v139.68h-4.14z"/><path fill="#fff" opacity=".7" d="M300.65 276.56h4.14v139.68h-4.14z"/><path fill="#56d480" d="M378.1 276.56h4.14v139.68h-4.14z"/><path fill="#fff" opacity=".7" d="M378.1 276.56h4.14v139.68h-4.14z"/><path d="M356 207.89h-74a5.6 5.6 0 00-5.3 4.55l-7.72 46.89a3.78 3.78 0 003.8 4.56h74a5.6 5.6 0 005.31-4.56l7.72-46.89a3.77 3.77 0 00-3.81-4.55z" fill="#263238"/><rect x="238.51" y="260.83" width="71.33" height="3.06" rx=".83" fill="#263238"/><path d="M356 207.89h-72.38a5.6 5.6 0 00-5.3 4.55l-7.72 46.89a3.77 3.77 0 003.8 4.56h72.33a5.6 5.6 0 005.31-4.56l7.72-46.89a3.77 3.77 0 00-3.76-4.55z" fill="#fff" opacity=".2"/><path d="M164.46 260.83s23.83 3.55 35.33-1.14c5.38 2.59 24.54 3.87 31.21 1.14-2.06 2.39-6.9 3.06-6.9 3.06h-50.27c-4.83 0-8.52-2.11-9.37-3.06z" fill="#56d480"/><path d="M164.46 260.83s23.83 3.55 35.33-1.14c5.38 2.59 24.54 3.87 31.21 1.14-2.06 2.39-6.9 3.06-6.9 3.06h-50.27c-4.83 0-8.52-2.11-9.37-3.06z" fill="#fff" opacity=".7"/></svg>