<svg xmlns="http://www.w3.org/2000/svg" viewBox="0 0 500 500"><path d="M232.51 129.33H113.22A13.62 13.62 0 0099.5 144l17.1 254.4a16 16 0 0015.7 14.7h119.29a13.6 13.6 0 0013.71-14.7L248.2 144a16 16 0 00-15.69-14.67z" fill="#57c278"/><path d="M232.51 129.33H113.22A13.62 13.62 0 0099.5 144l17.1 254.4a16 16 0 0015.7 14.7h119.29a13.6 13.6 0 0013.71-14.7L248.2 144a16 16 0 00-15.69-14.67z" fill="#fff" opacity=".3"/><path fill="#57c278" d="M98.649 183.906l.997-.067 1.61 23.996-.997.067zm2.496 36.612l.998-.067.724 10.755-.998.068zM125.26 401a4 4 0 01-7.76 1.66 15.27 15.27 0 01-.9-4.21L99.5 144a14.33 14.33 0 01.34-4.27 4 4 0 017.91.65z"/><path d="M251.59 408.33H140.76a11.24 11.24 0 01-10.89-10.22l-17.1-254.39a8.79 8.79 0 018.91-9.57h110.83a11.24 11.24 0 0110.89 10.21l17.1 254.4a8.81 8.81 0 01-8.91 9.57zM121.68 135.22a7.73 7.73 0 00-7.84 8.43L130.94 398a10.13 10.13 0 009.82 9.22h110.83a7.73 7.73 0 007.84-8.43l-17.1-254.39a10.13 10.13 0 00-9.82-9.22z" fill="#fff"/><g opacity=".5"><ellipse cx="187.81" cy="215.42" rx="44.54" ry="49.79" transform="rotate(-46.6 187.78 215.406)" fill="#57c278"/><ellipse cx="187.81" cy="215.42" rx="35.63" ry="39.83" transform="rotate(-46.6 187.792 215.411)" fill="#fff"/><ellipse cx="187.81" cy="215.42" rx="26.72" ry="29.87" transform="rotate(-46.59 187.837 215.434)" fill="#57c278"/><ellipse cx="187.81" cy="215.42" rx="17.82" ry="19.92" transform="rotate(-46.6 187.792 215.411)" fill="#fff"/><ellipse cx="187.81" cy="215.42" rx="8.91" ry="9.96" transform="rotate(-46.59 187.826 215.429)" fill="#57c278"/></g><path d="M196.89 279.51h-.53a16.48 16.48 0 00-14.42-8.9 14.79 14.79 0 00-4.51.7 16.91 16.91 0 00-14.64-8.81 14.34 14.34 0 00-14.55 14.18 11.2 11.2 0 00-10.5 12.13 13.21 13.21 0 0013 12.17h47.62a9.92 9.92 0 0010-10.75 11.67 11.67 0 00-11.47-10.72zm30.33-116.35h-.41a12.84 12.84 0 00-11.24-6.93 11.58 11.58 0 00-3.52.54 13.19 13.19 0 00-11.41-6.86 11.18 11.18 0 00-11.34 11 8.74 8.74 0 00-8.19 9.46 10.3 10.3 0 0010.13 9.48h37.12a7.73 7.73 0 007.81-8.38 9.11 9.11 0 00-8.95-8.31z" fill="#fff"/><path d="M242 318.86h-68.56a3.56 3.56 0 00-3.59 3.85l2.78 40.89a4.17 4.17 0 004.11 3.85h9.2l.77 11.31 10.53-11.31h48a3.55 3.55 0 003.59-3.85l-2.77-40.89a4.19 4.19 0 00-4.06-3.85z" fill="#fff" opacity=".3"/><path fill="#fff" d="M241.47 345.74h-63.86l-.35-5.17h63.87l.34 5.17zM222 356.48h-43.66l-.35-5.17h43.66l.35 5.17zM240.75 335h-63.87l-.35-5.17h63.87l.35 5.17z"/><path d="M295.64 146l2.63 1.89q1.37 1 2.76 1.89c1.85 1.23 3.71 2.46 5.59 3.58s3.78 2.18 5.66 3.12a40.57 40.57 0 005.46 2.27 3.27 3.27 0 00-1.27-.06 2.41 2.41 0 00-.73.21c-.29.15-.2.16-.05.07a7.77 7.77 0 001.55-1.42 39.05 39.05 0 003.56-5c1.17-1.84 2.29-3.79 3.36-5.79s2.14-4.05 3.13-6l.07-.13a4.5 4.5 0 018.34 3.27 97.21 97.21 0 01-5.15 13.92 48.06 48.06 0 01-3.95 6.95 20.53 20.53 0 01-3.29 3.71 11.32 11.32 0 01-3.05 1.9 9.83 9.83 0 01-2.44.65 8.89 8.89 0 01-3-.17 49.81 49.81 0 01-7.82-2.51 71.33 71.33 0 01-6.94-3.27q-3.33-1.77-6.49-3.73c-1.05-.66-2.09-1.33-3.12-2s-2-1.37-3.13-2.19a7 7 0 018.19-11.24z" fill="#57c278"/><path d="M295.64 146l2.63 1.89q1.37 1 2.76 1.89c1.85 1.23 3.71 2.46 5.59 3.58s3.78 2.18 5.66 3.12a40.57 40.57 0 005.46 2.27 3.27 3.27 0 00-1.27-.06 2.41 2.41 0 00-.73.21c-.29.15-.2.16-.05.07a7.77 7.77 0 001.55-1.42 39.05 39.05 0 003.56-5c1.17-1.84 2.29-3.79 3.36-5.79s2.14-4.05 3.13-6l.07-.13a4.5 4.5 0 018.34 3.27 97.21 97.21 0 01-5.15 13.92 48.06 48.06 0 01-3.95 6.95 20.53 20.53 0 01-3.29 3.71 11.32 11.32 0 01-3.05 1.9 9.83 9.83 0 01-2.44.65 8.89 8.89 0 01-3-.17 49.81 49.81 0 01-7.82-2.51 71.33 71.33 0 01-6.94-3.27q-3.33-1.77-6.49-3.73c-1.05-.66-2.09-1.33-3.12-2s-2-1.37-3.13-2.19a7 7 0 018.19-11.24z" opacity=".2"/><path d="M329.81 138.89l2.71-4.58 5.2 5.61a6.91 6.91 0 01-3.78 3.55 2.58 2.58 0 01-2.27-.3l-1-.64a2.71 2.71 0 01-.86-3.64z" fill="#ffb573"/><path d="M339.89 131.58l1.15.71a2.72 2.72 0 01.37 4.35l-3.69 3.28-5.2-5.61 4.53-2.74a2.71 2.71 0 012.84.01zM232.02 408.12l7.92.23 2.98-18.34-7.91-.23-2.99 18.34z" fill="#ffb573"/><path d="M241.19 406.12l-8.85-1.12a.57.57 0 00-.65.47l-1.31 6.94a1.4 1.4 0 001.2 1.57c3.09.34 4.58.34 8.47.83 2.39.31 8.62 1.81 11.93 1.4s2.81-3.66 1.37-3.78c-6.45-.56-8.87-3.63-10.87-5.66a2.25 2.25 0 00-1.29-.65z" fill="#263238"/><path opacity=".2" d="M235 389.79l7.92.23-1.54 9.45-7.92-.23 1.54-9.45z"/><path d="M278.29 214s-6.91 65.59-11.51 87.87c-5 24.4-21.17 95.78-21.17 95.78l-14.49-1.07s7.94-73.84 14.44-97.74c0-24.82 6-94.38 6-94.38z" fill="#263238"/><path d="M255.2 236.17c-.13-5.13-2.91-6.78-5.65-6.72-1 12.34-2.07 27.47-2.88 41.12 4.86-7.88 8.89-20.15 8.53-34.4z" opacity=".3"/><path fill="#fff" d="M230.69 396.68l15.52 1.15 1.78-5.85-17.87-.18.57 4.88z"/><path fill="#ffb573" d="M151.71 346.65l4.99 6.17 14.93-10.77-5-6.16-14.92 10.76z"/><path d="M157.78 352.83l-4.44-7.73a.57.57 0 00-.76-.24l-6.33 3.14a1.4 1.4 0 00-.53 1.9c1.59 2.67 2.49 3.86 4.44 7.26 1.2 2.09 4.36 8.1 6 11s4.47 1.17 4-.2c-2-6.16-2.57-10.87-2.16-13.68a2.24 2.24 0 00-.22-1.45z" fill="#263238"/><path opacity=".2" d="M166.63 335.89l5 6.17-7.7 5.54-5-6.16 7.7-5.55z"/><path d="M263.84 208.36s-19.49 55.78-28.35 76.74c-9.69 22.95-67.64 63.71-67.64 63.71l-9.15-11.29s39.38-39.47 54-58.19c8.1-25.49 25.39-80.18 25.39-80.18z" fill="#263238"/><path fill="#fff" d="M158.33 337.06l9.89 12.2 4.83-2.79-11.58-12.92-3.14 3.51z"/><path d="M278.21 214.38l-40.16-15.23c1-3.67 6.25-14.45 10.92-29.46a202.64 202.64 0 007.68-34 2.49 2.49 0 012.91-2.15c.75.13 1.64.3 2.62.49 2.53.51 5.69 1.23 8.7 2.15a157.65 157.65 0 0117 6.06 51.8 51.8 0 015.41 2.83 14.81 14.81 0 012.87 2.13 3 3 0 011.11 2.06c0 5.74-5.75 27.98-19.06 65.12z" fill="#f0f0f0"/><path d="M287.08 141.87c-4.52-2.94-4.3-6.3-2.77-9.54a22.74 22.74 0 011.29-2.33l-4.35-7.35-3.2-5.39c-.7 5.92-2.84 16.4-7.84 18.72a22 22 0 0011.13 8.2c7.38 2.3 5.74-2.31 5.74-2.31z" fill="#ffb573"/><path fill="#e0e0e0" d="M281.06 144.06l-.07-1.88-5 .98 5.07.9zm0 0l.93-1.53 3.23 3.93-4.16-2.4z"/><path d="M270.89 135.08a47.22 47.22 0 0010.1 7.1c-2 1.23-3.9 4.47-4.62 7.15-1.62-1.13-8.1-11.79-9-14.72zm15.25 5.65a8 8 0 01-4.16 1.8c1.07 1.57 2 5.64 2 8 1.87-1.22 4.76-5.48 5.22-7.41z" fill="#fff"/><path d="M286.3 140.59s4.37 2.1 8.23 4.48a8.57 8.57 0 013.76 9.59c-4.77 16.86-11.21 33.23-13.88 42.34-2.83 9.71-6.77 21.89-6.77 21.89l-6.81 1.61s17.07-65.29 15.47-79.91zm-15.51-6.27s-5.87-.77-11-1a7.83 7.83 0 00-7.94 5.89c-2.6 10.28-4.52 29.94-7.15 37.59-3.27 9.56-7.7 28.2-7.7 28.2l23.26 13.44s23.5-72.19 10.53-84.12z" opacity=".3"/><path d="M270.79 134.32s-5.87-.77-11-1a7.83 7.83 0 00-7.94 5.89c-2.6 10.28-6.14 29.48-8.78 37.14-3.29 9.56-10.27 25.81-10.27 25.81l29.34 13.76s21.62-69.67 8.65-81.6z" fill="#57c278"/><path d="M270.79 134.32s-5.87-.77-11-1a7.83 7.83 0 00-7.94 5.89c-2.6 10.28-6.14 29.48-8.78 37.14-3.29 9.56-10.27 25.81-10.27 25.81l29.34 13.76s21.62-69.67 8.65-81.6z" opacity=".2"/><path d="M286.3 140.59s4.37 2.1 8.23 4.48a8.57 8.57 0 013.76 9.59c-4.77 16.86-8.54 34.53-10.44 43.83-2 9.9-4.09 18.91-4.09 18.91l-11 1.49s15.14-63.68 13.54-78.3z" fill="#57c278"/><path d="M286.3 140.59s4.37 2.1 8.23 4.48a8.57 8.57 0 013.76 9.59c-4.77 16.86-8.54 34.53-10.44 43.83-2 9.9-4.09 18.91-4.09 18.91l-11 1.49s15.14-63.68 13.54-78.3zm-.7-10.59a22.74 22.74 0 00-1.29 2.36c-2.14-1.29-4.34-4.85-3.82-7.32a11.24 11.24 0 01.76-2.39z" opacity=".2"/><path d="M291.77 99.68c5.32.69 7.27 7.87 4.33 12.61-4.82-6.99-4.33-12.61-4.33-12.61z" fill="#263238"/><path d="M275.21 112.92c1.8 7.69 2.45 12.27 7.06 15.72a10.26 10.26 0 0016.49-7.64c.5-7.19-2.52-18.56-10.67-20.62a10.38 10.38 0 00-12.88 12.54z" fill="#ffb573"/><path d="M277.58 119.77c4.63.13 3.91-7.54 1.89-10.44 6.42 1 17.06-4.67 18.13-10.61 1.55-8.61-11.58-8.61-15.83-5.87 1.83.13 2.76 1.68 2.32 2.48 0 0-6.34-1.92-10.44.31 1.79.66 3.69 3.24-3.12 4.06-6.48.78-4.52 7.3-1.25 7.18-1.74 2.67-3.83 8.74.09 11.32s6.6 5.94 5.75 7.32c1.37-.05 4.28-1.7 2.46-5.75z" fill="#263238"/><path d="M270.21 106.28c-3.1.3-4.88 2.72-5 6a24 24 0 015-6z" fill="#263238"/><path d="M273.36 119.87a7 7 0 003.8 3.42c2.17.79 3.31-1.13 2.75-3.27-.51-1.94-2.25-4.67-4.45-4.53s-3.06 2.42-2.1 4.38z" fill="#ffb573"/><path d="M287.4 113.51c.1.63.53 1.09.94 1s.66-.61.56-1.24-.53-1.1-.95-1-.66.61-.55 1.24zm7.17-.96c.1.63.52 1.09.94 1s.66-.61.56-1.25-.53-1.09-.95-1-.66.61-.55 1.25z" fill="#263238"/><path d="M292.34 113.17a24.21 24.21 0 003.94 5c-.94 1.19-2.93 1-2.93 1z" fill="#ed893e"/><path d="M291.05 121.18a5.46 5.46 0 01-4-1.59.19.19 0 010-.26.19.19 0 01.27 0 5.22 5.22 0 004.43 1.41.19.19 0 11.05.37 4.81 4.81 0 01-.75.07z" fill="#263238"/><path d="M289.05 123.26a5.46 5.46 0 01-2.18-3.73.19.19 0 01.17-.2.18.18 0 01.2.17 5.33 5.33 0 002.62 3.85.18.18 0 01.07.25.19.19 0 01-.26.07 7.4 7.4 0 01-.62-.41zm-4.26-11.76a.37.37 0 01-.18 0 .37.37 0 01-.16-.51 3.64 3.64 0 012.78-2 .37.37 0 01.4.35.37.37 0 01-.35.4 2.9 2.9 0 00-2.17 1.55.35.35 0 01-.32.21zm12.44-1.82a.36.36 0 01-.31-.16 3.14 3.14 0 00-2.4-1.4.38.38 0 010-.75 3.86 3.86 0 013 1.72.37.37 0 01-.09.52.33.33 0 01-.2.07z" fill="#263238"/><path d="M261.94 146.26c-2 1.63-4.11 3.44-6.12 5.21s-4.06 3.59-6 5.45A117.1 117.1 0 00239 168.38l-1.14 1.48-.14.19a1.09 1.09 0 00.08-.14 2.17 2.17 0 00.15-.35 1.86 1.86 0 00.12-.63c0-.34-.06-.34 0-.18a3.25 3.25 0 00.26.89 14.4 14.4 0 001.5 2.68 35.22 35.22 0 002.22 2.92c1.61 2 3.41 3.91 5.3 5.8s3.89 3.8 5.8 5.55l.13.11a4.49 4.49 0 01-5.47 7.09 90.11 90.11 0 01-14-10.95 51.872 51.872 0 01-3.21-3.49 28.27 28.27 0 01-3-4.39 16.53 16.53 0 01-1.27-3 11.21 11.21 0 01-.46-4.33 9.9 9.9 0 01.62-2.67 10.13 10.13 0 01.61-1.29l.36-.59.16-.24 1.3-1.93a108.8 108.8 0 0111.53-13.59c2-2.08 4.1-4.11 6.23-6.07s4.24-3.85 6.59-5.77a7 7 0 018.73 10.75z" fill="#57c278"/><path d="M261.94 146.26c-2 1.63-4.11 3.44-6.12 5.21s-4.06 3.59-6 5.45A117.1 117.1 0 00239 168.38l-1.14 1.48-.14.19a1.09 1.09 0 00.08-.14 2.17 2.17 0 00.15-.35 1.86 1.86 0 00.12-.63c0-.34-.06-.34 0-.18a3.25 3.25 0 00.26.89 14.4 14.4 0 001.5 2.68 35.22 35.22 0 002.22 2.92c1.61 2 3.41 3.91 5.3 5.8s3.89 3.8 5.8 5.55l.13.11a4.49 4.49 0 01-5.47 7.09 90.11 90.11 0 01-14-10.95 51.872 51.872 0 01-3.21-3.49 28.27 28.27 0 01-3-4.39 16.53 16.53 0 01-1.27-3 11.21 11.21 0 01-.46-4.33 9.9 9.9 0 01.62-2.67 10.13 10.13 0 01.61-1.29l.36-.59.16-.24 1.3-1.93a108.8 108.8 0 0111.53-13.59c2-2.08 4.1-4.11 6.23-6.07s4.24-3.85 6.59-5.77a7 7 0 018.73 10.75z" opacity=".2"/><path d="M254.67 188.24l6.8 4.16-8.69 4.95s-5.78-4.32-3.31-7.11l2.9-2a2.11 2.11 0 012.3 0zm7.17 11.76l-3.74 2.2a2.25 2.25 0 01-3.12-.84l-2.2-4 8.69-4.95 1.4 5a2.28 2.28 0 01-1.03 2.59z" fill="#ffb573"/><path d="M326.89 129.38l9.21-1.81c-2.53 4.46 1.19 8.73 4.53 11.41 1.59 1.28.47 3.57-2 4l-6 1.18c-7.24 1.46-5.74-14.78-5.74-14.78z" fill="#57c278"/><path d="M323.23 130.09l21.12-4.09a12.72 12.72 0 0010-14.9 12.74 12.74 0 00-14.9-10l-21.11 4.14a12.75 12.75 0 00-10 14.91 12.73 12.73 0 0014.89 9.94z" fill="#57c278"/><path d="M323.23 130.09l21.12-4.09a12.72 12.72 0 0010-14.9 12.74 12.74 0 00-14.9-10l-21.11 4.14a12.75 12.75 0 00-10 14.91 12.73 12.73 0 0014.89 9.94z" fill="#fff" opacity=".3"/><path d="M380.71 134.4l-36-.48c-3.12.61-11-39.79-7.92-40.4l33.14-14z" fill="#57c278"/><path d="M372.45 107.51c3 15.16 6.67 27.2 8.26 26.89s.47-12.86-2.51-28-6.67-27.2-8.26-26.89-.46 12.83 2.51 28z" fill="#57c278"/><path d="M372.45 107.51c3 15.16 6.67 27.2 8.26 26.89s.47-12.86-2.51-28-6.67-27.2-8.26-26.89-.46 12.83 2.51 28z" opacity=".3"/><path d="M386 105.64c-.73-3.71-9-5.22-10.75-4.87s-2.6 3.63-1.88 7.34 2.75 6.43 4.51 6.09 8.82-4.86 8.12-8.56zm8.845-2.047l46.841-7.578.171 1.056-46.841 7.578zm-4.415-11.427l19.206-16.375.694.814-19.206 16.375zm28.359 35.275l.356-1.009 7.044 2.486-.356 1.01zm-25.507-8.689l.34-1.015 17.824 5.978-.34 1.015z" fill="#57c278"/></svg>