<svg xmlns="http://www.w3.org/2000/svg" viewBox="0 0 500 500"><g fill="#263238"><g opacity=".4"><path d="M143.13 174.56a110 110 0 01-56.66-15.31.4.4 0 01-.14-.54.39.39 0 01.54-.14c54.54 31.82 110.06 7.41 163.77-16.19C302.54 119.57 356.22 96 409.09 123a.39.39 0 11-.35.7c-52.55-26.8-106-3.28-157.79 19.45-35.4 15.51-71.59 31.41-107.82 31.41z"/><path d="M143.13 190.2A109.72 109.72 0 0188 175.74a.39.39 0 01-.15-.53.4.4 0 01.54-.15c54 30.52 109 6.34 162.27-17.05 52.4-23 106.59-46.84 160-18.65a.4.4 0 01-.37.7c-53-28-107-4.28-159.28 18.67-35.46 15.56-71.66 31.47-107.88 31.47z"/><path d="M143.12 205.83a109.7 109.7 0 01-53.64-13.62.4.4 0 01-.15-.54.38.38 0 01.53-.15c53.54 29.25 108.05 5.29 160.77-17.88 52.9-23.24 107.6-47.28 161.47-17.84a.4.4 0 01.16.53.39.39 0 01-.53.16c-53.54-29.25-108.06-5.3-160.78 17.87-35.4 15.56-71.61 31.47-107.83 31.47z"/><path d="M143.11 221.46A109.53 109.53 0 0191 208.65a.41.41 0 01-.17-.54.4.4 0 01.54-.16c53 28 107.05 4.28 159.28-18.68 53.38-23.46 108.59-47.72 163-17a.39.39 0 01.15.53.4.4 0 01-.54.15c-54-30.52-109.06-6.34-162.27 17-35.43 15.6-71.65 31.51-107.88 31.51z"/><path d="M143.11 237.1a109.49 109.49 0 01-50.62-12 .4.4 0 01-.17-.53.39.39 0 01.53-.17c52.54 26.79 106 3.28 157.79-19.46 53.88-23.67 109.59-48.16 164.47-16.14a.39.39 0 01.14.54.38.38 0 01-.53.14C360.18 157.62 304.65 182 251 205.62c-35.44 15.56-71.67 31.48-107.89 31.48z"/></g><path d="M127.76 202a6.28 6.28 0 00-2.46-3.59 5.93 5.93 0 01-2.49-4.31l.21-.58a.39.39 0 10-.74-.27L114.22 216a4.48 4.48 0 00-1.07-1.47 8.13 8.13 0 00-4-1.92c-3.33-.65-6.38.59-6.8 2.76-.37 1.87 1.33 3.83 3.93 4.76a9.27 9.27 0 001.33.36 8.09 8.09 0 004.41-.28 3.49 3.49 0 002.37-2.42l5.66-15.91a6.28 6.28 0 002.48 3.69 6 6 0 012.53 4.58.3.3 0 00.19.24h.07a.28.28 0 00.31-.19l2-5.62a4.25 4.25 0 00.13-2.58zm223.54-43.93a6.25 6.25 0 00-4.13-1.46 6 6 0 01-4.57-2l-.18-.6a.4.4 0 00-.49-.27.4.4 0 00-.27.49l6.89 23.25a4.52 4.52 0 00-1.74-.57 8.1 8.1 0 00-4.37.8c-3.09 1.44-4.84 4.25-3.9 6.27.81 1.74 3.36 2.33 6 1.54a9.71 9.71 0 001.29-.49 8.1 8.1 0 003.42-2.84 3.53 3.53 0 00.5-3.38l-4.83-16.29a6.33 6.33 0 004.21 1.53 6.06 6.06 0 014.76 2.23.31.31 0 00.3.08h.07a.3.3 0 00.14-.34l-1.71-5.75a4.18 4.18 0 00-1.39-2.2zm-154.85 39.58a7.7 7.7 0 014.48 4.93.35.35 0 00.31.24.14.14 0 00.09 0 .38.38 0 00.33-.33l.53-4.85a5.43 5.43 0 00-.61-3.18 8 8 0 00-4.11-3.73 7.58 7.58 0 01-4.35-4.62l.08-.79a.5.5 0 00-.44-.55.5.5 0 00-.55.45l-3.33 30.53a5.68 5.68 0 00-1.75-1.5 10.32 10.32 0 00-5.51-1.22 10.43 10.43 0 00-5.39 1.65 4 4 0 00.3 7.37 9.45 9.45 0 003.72 1.15 10.49 10.49 0 001.78.06c4.28-.17 7.67-2.56 7.62-5.35l1.42-13.06a8.1 8.1 0 004.17 3.85c1.64.8 3.18 1.57 4.48 4.93a.42.42 0 00.32.24h.09a.36.36 0 00.32-.34l.53-4.84a5.3 5.3 0 00-.61-3.19 8 8 0 00-4.11-3.73 7.55 7.55 0 01-4.35-4.62l.37-3.35a8 8 0 004.17 3.85zm-27.94-14.19l.83-17.33.31-6.46v-.37l-17.65-.84v.36l-.31 6.47-.75 15.85a6.35 6.35 0 00-5.39-1.67c-3.12.32-5.49 2.24-5.29 4.28.18 1.75 2.21 3 4.77 3.16a7.77 7.77 0 001.27 0c3.1-.31 5.45-2.19 5.29-4.21l.71-14.89 16.21.77-.63 13.39a4.15 4.15 0 00-1.34-1 7.54 7.54 0 00-4.05-.64c-3.12.32-5.49 2.23-5.29 4.27.18 1.76 2.21 3 4.77 3.17a7.77 7.77 0 001.27 0c3.07-.4 5.43-2.29 5.27-4.31zm-16.19-16.41l.08-1.73 16.21.78-.08 1.72zm252.5-16.93l1.7-13.9.63-5.18v-.29L393 129v.3l-.64 5.18-1.56 12.72a5.1 5.1 0 00-4.24-1.66c-2.53.06-4.55 1.47-4.51 3.12 0 1.42 1.6 2.58 3.65 2.83a6.84 6.84 0 001 0c2.51-.07 4.52-1.45 4.51-3.08l1.46-11.94 13 1.59-1.31 10.74a3.23 3.23 0 00-1-.9 6 6 0 00-3.21-.75c-2.54.07-4.56 1.47-4.52 3.12 0 1.42 1.6 2.58 3.65 2.83a6.9 6.9 0 001 0c2.54.03 4.54-1.35 4.54-2.98zm-12.05-14.18l.16-1.38 13 1.59-.16 1.38zm-39.98-17.79l-8.45-17.36-3.15-6.48L341 94l-17.69 8.61.17.36 3.16 6.48 7.72 15.88c-1.63-.63-4-.21-6.14 1.25-2.89 2-4.18 5.11-2.89 7 1.11 1.62 3.78 1.79 6.34.55a8.57 8.57 0 001.23-.72c2.85-1.95 4.14-5 2.91-6.94l-8.45-17.36 16.25-7.91 7.73 15.8c-1.63-.63-4-.21-6.15 1.25a8.45 8.45 0 00-3 3.45 3.27 3.27 0 003.38 4.92 7.65 7.65 0 003-.82 9.83 9.83 0 001.25-.72c2.91-1.94 4.18-5.08 2.97-6.93z"/></g><path d="M294.53 205.93c-.83 0-1.71 0-2.62-.1-6.06-.48-11.39-3.59-15.86-9.23-13.43-17-15.05-51.32-13.73-59.9l.54.08c-1.31 8.53.29 42.64 13.62 59.48 4.37 5.52 9.57 8.55 15.47 9 9.15.73 15.78-2.37 19.17-8.95 5.35-10.39 1.27-27.91-9.51-40.75-3.46-4.12-4.63-8.58-3.21-12.23a7.86 7.86 0 016.38-5c3.88-.52 7.91 1.62 11 5.86l-.44.32c-3-4.07-6.83-6.13-10.52-5.64a7.31 7.31 0 00-5.94 4.65c-1.35 3.47-.21 7.73 3.12 11.69 11.09 13.21 15.11 30.6 9.57 41.35-2.22 4.44-6.99 9.37-17.04 9.37z" fill="#57c278"/><path d="M241.5 102.16c-7 3.32-16.37 5.73-13.4 18.31s-4.94 16.3 1 21.21 26.69 4.46 34.67 1.37c9-3.49 19.41-15.28 9.26-21.31-7.92-4.7-11.36-10.78-12.51-14.48-2.35-7.55-10.44-11.82-19.02-5.1z" fill="#263238"/><path d="M280.65 121.25c-7.71-1.57-15.44-4.43-19.7-14.6-1.71-4.08-4.42-6.65-7.65-7.23-3.65-.65-7.74 1.2-11.49 5.22l-.4-.38c3.88-4.15 8.13-6.07 12-5.37 3.42.61 6.28 3.29 8.06 7.55 4.16 9.93 11.74 12.73 19.31 14.27z" fill="#263238"/><path d="M277.72 158.73l.37.39.49.5c.35.33.69.68 1.07 1 .73.68 1.52 1.33 2.32 2a58.49 58.49 0 005 3.66c1.76 1.15 3.6 2.2 5.45 3.23 1 .48 1.88 1 2.85 1.46l2.24 1.07a1.42 1.42 0 001 0 6.74 6.74 0 001.89-1.06 24.14 24.14 0 004.09-4.16 85.75 85.75 0 007.11-10.8l4.19 1.71a58.61 58.61 0 01-5.71 13 28.43 28.43 0 01-4.75 6 14.34 14.34 0 01-3.78 2.58 9.44 9.44 0 01-5.64.76 9 9 0 01-1.46-.39l-.92-.34-1.66-.64c-1.12-.42-2.2-.93-3.29-1.4a65.64 65.64 0 01-6.37-3.36 62.77 62.77 0 01-6-4.11c-1-.77-1.9-1.56-2.82-2.42-.46-.42-.92-.87-1.37-1.33l-.67-.72c-.24-.27-.42-.47-.76-.88z" fill="#ffb573"/><path d="M270.4 150.37c3.7-.9 13.1 11.26 13.1 11.26l-5.71 10.87s-15.79-8.91-15.19-13.82c.62-5.11 2.4-6.99 7.8-8.31z" fill="#57c278"/><path d="M270.4 150.37c3.7-.9 13.1 11.26 13.1 11.26l-5.71 10.87s-15.79-8.91-15.19-13.82c.62-5.11 2.4-6.99 7.8-8.31z" fill="#fff" opacity=".2"/><path d="M272.84 154.58l-.9 14.23c3.14 2.15 5.85 3.69 5.85 3.69l1.19-2.28z" opacity=".2"/><path d="M310.8 158.34l3.44-9.55 4.89 7.66s-2.74 5-6.46 5z" fill="#ffb573"/><path fill="#ffb573" d="M319.21 144.37l5.03 5.73-5.11 6.34-4.89-7.65 4.97-4.42zm-57 258.12l8.91.35 1.59-20.7-8.91-.35-1.59 20.7zm-86.79-122.52l-1.76 8.76 19.74 6.89 1.75-8.77-19.73-6.88z"/><path d="M175.18 290l3.4-9.45a.7.7 0 00-.33-.88l-7.08-3.77a1.43 1.43 0 00-2 .81c-1.14 3.31-1.52 5-3 9.12-.93 2.56-3.19 7.31-4.46 10.83s2.15 5 3 3.63c3.8-6.08 6.78-7.53 9.44-9.07a2.41 2.41 0 001.03-1.22zm96.24 112.31l-9.67-2.71a.7.7 0 00-.85.4l-3.25 7.34a1.45 1.45 0 001 1.92c3.38.88 5.06 1.14 9.32 2.33 2.61.73 10.26 4.18 14 4.48s4.23-3.39 2.7-3.85a21.22 21.22 0 01-11.92-9 2.32 2.32 0 00-1.33-.91z" fill="#263238"/><path d="M272.71 382.14l-.82 10.67-8.91-.34.81-10.67 8.92.34zm-77.56-95.29l-1.76 8.77-10.17-3.56 1.76-8.76 10.17 3.55z" opacity=".2"/><path d="M275.07 154.09c.86 5.06 1.69 17.82-2 47.54l-36.23 2.24c-.28-13.89-1-25.09-8.53-52a4.61 4.61 0 014.15-5.86c2.76-.16 6.23-.27 9.77-.12a121.25 121.25 0 0116.67 1.52c4.7.84 9.85 2.14 12.84 2.95a4.62 4.62 0 013.33 3.73z" fill="#57c278"/><path d="M275.07 154.09c.86 5.06 1.69 17.82-2 47.54l-36.23 2.24c-.28-13.89-1-25.09-8.53-52a4.61 4.61 0 014.15-5.86c2.76-.16 6.23-.27 9.77-.12a121.25 121.25 0 0116.67 1.52c4.7.84 9.85 2.14 12.84 2.95a4.62 4.62 0 013.33 3.73z" fill="#fff" opacity=".2"/><path d="M273 201.63s11.29 68.3 12.38 95.54c1.14 28.34-11.6 92.78-11.6 92.78h-12.05s4.41-61.52 1.63-89.25c-3-30.23-16.85-97.43-16.85-97.43z" fill="#57c278"/><path fill="#263238" d="M260.68 390.39h14.19l1.04-4.53-15.89-.55.66 5.08z"/><path d="M258.47 219.7c10 17.35 4.91 50.45 2.51 62.8-2.74-18.15-6.84-40.29-10-56.54.81-9.35 2.88-14.26 7.49-6.26z" opacity=".2"/><path d="M263.48 202.23s-.26 72-11.28 93.12c-13.09 25-67.38-.76-67.38-.76l2.4-12s36 8.11 45.41 1.4c10.12-31.36-8.48-58 4.18-80.16z" fill="#57c278"/><path fill="#263238" d="M187.42 281.21l-2.97 14.82 4.34 2.52 4.28-17.29-5.65-.05z"/><path d="M236.85 158.07c-1.63 4.45-3.27 9-4.83 13.54s-3 9.09-4.27 13.63l-.23.85-.11.43c0 .14-.09.33-.07.22v-.47a2.17 2.17 0 000-.25 2.72 2.72 0 00-.1-.46 1.57 1.57 0 00-.09-.23 2.16 2.16 0 00-.15-.33 3.45 3.45 0 00-.44-.66 3 3 0 00-.69-.64 3.38 3.38 0 00-.74-.41 4.41 4.41 0 00-.64-.19 4 4 0 00-.49-.1 2.53 2.53 0 00-.77.09c-.18.07-.06.05.08 0a5.78 5.78 0 00.53-.25c.4-.22.85-.49 1.3-.79 1.83-1.21 3.75-2.66 5.62-4.12 3.76-2.94 7.54-6 11.33-9.05l3.21 3.19a140.24 140.24 0 01-9.91 11.08 71.55 71.55 0 01-5.67 5.18c-.53.42-1.08.84-1.71 1.27-.33.21-.66.43-1.07.65a7.52 7.52 0 01-1.6.68 5.44 5.44 0 01-1.68.21 4.36 4.36 0 01-.73-.08 3.9 3.9 0 01-.86-.25 4.57 4.57 0 01-.94-.52 4.61 4.61 0 01-.86-.79 4.69 4.69 0 01-.56-.86c-.07-.14-.15-.32-.19-.43l-.12-.34a6 6 0 01-.15-.68 3.91 3.91 0 010-.48 5.12 5.12 0 010-.79v-.59c.06-.41.09-.51.12-.67l.09-.46.19-.93c1-5 2.33-9.75 3.8-14.49s3.05-9.38 4.91-14.05z" fill="#ffb573"/><path d="M229.55 146.48c-3.56 1.33-7.15 14.1-7.15 14.1l14.71 9.2s4.68-12.32 2.86-16.92c-1.89-4.79-6.35-7.86-10.42-6.38z" fill="#57c278"/><path d="M229.55 146.48c-3.56 1.33-7.15 14.1-7.15 14.1l14.71 9.2s4.68-12.32 2.86-16.92c-1.89-4.79-6.35-7.86-10.42-6.38z" fill="#fff" opacity=".2"/><path d="M172.49 294v.11a1.21 1.21 0 00.94.71.72.72 0 00.7-.2c.8-.81.07-4 0-4.32a.2.2 0 00-.17-.16.22.22 0 00-.21.09c-.61 1-1.59 2.77-1.26 3.77zm1.36-3.1c.26 1.27.44 3 0 3.43a.32.32 0 01-.32.07.81.81 0 01-.63-.46c-.21-.53.1-1.65.95-3.01z" fill="#57c278"/><path d="M173.82 290.74c.33 1.06 1.45 2.84 2.36 3a.75.75 0 00.8-.47 1.1 1.1 0 000-.94c-.48-1.21-2.9-2.09-3-2.13a.2.2 0 00-.21 0 .24.24 0 00-.07.2 3 3 0 00.12.34zm2.83 1.79a.66.66 0 01-.05.53c-.12.24-.25.25-.35.24-.62-.09-1.64-1.54-2-2.57.79.34 2.08 1 2.37 1.74a.14.14 0 00.03.06zm97.58 112.19a3.39 3.39 0 002.24.06 1.18 1.18 0 00.64-.89.68.68 0 00-.19-.64c-.89-.88-4.82-.09-5.26 0a.23.23 0 00-.17.18.21.21 0 00.12.21 15.47 15.47 0 002.62 1.08zm2-1.35a.76.76 0 01.36.18.27.27 0 01.08.26.8.8 0 01-.42.59c-.65.32-2.09 0-3.91-.85a11.57 11.57 0 013.92-.18z" fill="#57c278"/><path d="M271.65 403.67h.08c1.16-.17 3.71-1.46 3.82-2.48 0-.24-.05-.57-.6-.79a1.51 1.51 0 00-1.23 0c-1.33.59-2.18 2.86-2.22 2.95a.23.23 0 000 .21.21.21 0 00.15.11zm3-2.92h.13c.36.15.34.3.33.35-.06.62-1.85 1.69-3.07 2a4.8 4.8 0 011.84-2.35 1.09 1.09 0 01.79 0z" fill="#57c278"/><path d="M236.14 201.78l-.73 3.3c-.11.26.2.5.62.47l37.29-2.3c.33 0 .59-.2.6-.4l.13-3.27c0-.22-.29-.4-.65-.37l-36.69 2.26a.65.65 0 00-.57.31z" fill="#fff"/><path d="M241.32 205.58l-1 .06c-.19 0-.35-.08-.34-.2l.2-4.25c0-.12.17-.23.37-.24l1-.07c.19 0 .35.08.34.21l-.2 4.24c-.01.12-.18.24-.37.25zm29.26-1.81l-1 .06c-.19 0-.35-.08-.34-.2l.2-4.24c0-.13.17-.24.36-.25l1-.06c.19 0 .35.08.34.2l-.2 4.24c0 .13-.16.24-.36.25zm-14.58.9l-1 .07c-.2 0-.35-.08-.35-.21l.2-4.24c0-.13.17-.24.37-.25l1-.06c.2 0 .35.08.35.2l-.2 4.25c-.06.12-.22.23-.37.24z" fill="#57c278"/><path d="M242.2 146a121.29 121.29 0 0116.67 1.51c2 .35 4.1.8 6.07 1.25 1.05 3.25 1.78 9.89-1.15 15.37a8.3 8.3 0 00-4.61-4.68 14 14 0 00-3.64 5.53c-3.89-.7-14.36-9.79-19.14-17.11l-1.24-1.89c2.17-.13 4.59-.14 7.04.02z" fill="#fff"/><path d="M242.71 127.63c1.38 5.37 3 15.13-.51 18.31 0 0 1.8 5.49 11.76 6.39 11 1 4.91-4.87 4.91-4.87-6.07-2-6.18-6.3-5.39-10.31z" fill="#ffb573"/><path d="M242.21 146a118.1 118.1 0 0116.66 1.51l1.09.2c1.49 2.6 1.94 5.55-.91 10.85 0 0-14.85-6.21-19-12.62z" fill="#ffb573"/><path d="M247.1 131.52l6.37 5.63a15.48 15.48 0 00-.33 2.86c-2.31-.53-6.11-2.82-6.5-5.2a8.18 8.18 0 01.46-3.29z" opacity=".2"/><path d="M235.64 121.15c3.17 8.29 4.33 11.87 10 14.87 8.47 4.51 18-1.19 17.33-10.25-.56-8.16-5.64-20.34-15-21.12a12.1 12.1 0 00-12.33 16.5z" fill="#ffb573"/><path d="M248.64 121.78l-.74-.08a4.32 4.32 0 011.46-2.48 1.32 1.32 0 012.25.67l-.71.23a.72.72 0 00-.42-.53.78.78 0 00-.66.21 3.66 3.66 0 00-1.18 1.98zm8.36-3.88a1.43 1.43 0 011.39-1.71 1.88 1.88 0 011.85 1.06l-.65.36a1.15 1.15 0 00-1.14-.68.83.83 0 00-.58.26.79.79 0 00-.13.62z" fill="#263238"/><path d="M255.59 118.73a19.13 19.13 0 003.83 3.63 3.13 3.13 0 01-2.31 1.23z" fill="#ed893e"/><path d="M254.2 127.46a6.25 6.25 0 001-.25.2.2 0 00.13-.26.22.22 0 00-.26-.14 5.66 5.66 0 01-5.11-.74.21.21 0 00-.27.33 6 6 0 004.51 1.06z" fill="#263238"/><path d="M235.44 128.7a6.53 6.53 0 004.31 2.45c2.26.26 3-1.84 2.11-3.79-.83-1.75-3-4-5.13-3.36a2.91 2.91 0 00-1.29 4.7z" fill="#ffb573"/><path d="M250 104.61c6.54 4.83-1.71 5.45-5.85 9-4 3.41-.91 9-7.69 11.24a26.51 26.51 0 01-6.32.73s3.14-6.14 2.14-9.83S242.51 99 250 104.61z" fill="#263238"/><path d="M248.88 103.91c1.39 3 4.85 2.39 7.62 5.45 1.7 1.87 4.45-4.44.07-6.62s-9.87-3.53-7.69 1.17z" fill="#263238"/><path d="M241.77 126.35c.93 3.53.53 6.7-3 7.63a6.62 6.62 0 11-3.35-12.81c3.52-.92 5.42 1.64 6.35 5.18z" fill="#57c278"/><path d="M241.92 101.84l-4.33 2.1c-8.39 6.81-3.59 19.29-3.59 19.29l3.27-1.49s-3.74-13.1 4.65-19.9z" fill="#57c278"/><path d="M234 123.5h-.11a.28.28 0 01-.15-.15c-.05-.13-4.77-12.75 3.67-19.6l4.39-2.14a.27.27 0 01.35.1.28.28 0 01-.05.36c-8.16 6.62-4.6 19.48-4.56 19.61a.3.3 0 01-.15.33l-3.28 1.49zm6.4-20.62l-2.69 1.31c-7.41 6-4.18 16.81-3.56 18.67l2.8-1.28c-.42-1.67-2.7-12.17 3.45-18.7z" fill="#57c278"/><path d="M238 127.33c.71 2.73.61 5.13-1.5 5.68s-4.39-1.22-5.11-3.95.41-5.4 2.52-6 3.4 1.54 4.09 4.27z" fill="#fff" opacity=".3"/><path d="M245.07 118.89a.41.41 0 00.31-.38c.12-2 2.26-3.3 2.28-3.31a.42.42 0 10-.44-.72c-.11.06-2.53 1.59-2.68 4a.42.42 0 00.39.45zm14.22-7.02a.41.41 0 00.36-.21.42.42 0 00-.15-.58 4.22 4.22 0 00-3.86-.26.42.42 0 00.38.76 3.32 3.32 0 013.05.24.59.59 0 00.22.05z" fill="#263238"/><path d="M241 170.8l-1.44-9.55 7.74 4.75s-.27 5.74-3.62 7.33zm1.32-14.38l7.23 2.62-2.22 6.96-7.74-4.75 2.73-4.83z" fill="#ffb573"/><rect x="314.94" y="144.03" width="6.82" height="13.82" rx=".57" transform="rotate(-36.93 318.315 150.945)" fill="#57c278"/><rect x="314.37" y="145.65" width="5.67" height="7.56" rx=".46" transform="rotate(-36.93 317.178 149.417)" fill="#fff"/><path d="M317.88 156.5l-.06-1.25 1.27-.75a8 8 0 001.77-1.41l.44-.46-.28-.41a1.24 1.24 0 00-1.42-.47l-1.07.36-5.37.73v2.28l1.72 2.35z" fill="#ffb573"/></svg>