<svg xmlns="http://www.w3.org/2000/svg" viewBox="0 0 500 500"><path d="M296.91 171.92l-8.15-8.15a2.93 2.93 0 01-.85-2.06v-3a2.93 2.93 0 00-1.73-2.67l-2.27-1a2.81 2.81 0 01-.88-.6l-2.03-2.11a2.91 2.91 0 00-3.81-.27l-1.13.85a2.92 2.92 0 00-1.09 1.66l-1.19 5.08a2.91 2.91 0 001.14 3l5 3.61 2.89 1.89a3.15 3.15 0 01.64.57l8.47 10.17z" fill="#57c278"/><path d="M296.91 171.92l-8.15-8.15a2.93 2.93 0 01-.85-2.06v-3a2.93 2.93 0 00-1.73-2.67l-2.27-1a2.81 2.81 0 01-.88-.6l-2.03-2.11a2.91 2.91 0 00-3.81-.27l-1.13.85a2.92 2.92 0 00-1.09 1.66l-1.19 5.08a2.91 2.91 0 001.14 3l5 3.61 2.89 1.89a3.15 3.15 0 01.64.57l8.47 10.17z" fill="#fff" opacity=".3"/><path d="M337.28 136.4s-11.24 1-18.87 19.52-11.75 19.5-14.37 18a59 59 0 01-5.22-3.56 2.47 2.47 0 00-3.42.45l-4.79 6a2.49 2.49 0 000 3.1c2.84 3.56 10.39 11.67 18.69 9.44 11.24-3 19.46-19 20-23.91s7.98-29.04 7.98-29.04z" fill="#57c278"/><path d="M337.28 136.4s-11.24 1-18.87 19.52-11.75 19.5-14.37 18a59 59 0 01-5.22-3.56 2.47 2.47 0 00-3.42.45l-4.79 6a2.49 2.49 0 000 3.1c2.84 3.56 10.39 11.67 18.69 9.44 11.24-3 19.46-19 20-23.91s7.98-29.04 7.98-29.04z" fill="#fff" opacity=".5"/><path d="M337.54 100.73s-6.12-3.72-6.23-.81 6.41 6 9.17 5.66z" fill="#263238"/><path d="M337.54 100.73s-6.12-3.72-6.23-.81 6.41 6 9.17 5.66z" opacity=".4"/><path d="M364.7 137s-.36-.13-1.08-.31v5.42h-26l1.43-6c-.35 0-1.39.26-1.75.31l-4 3s-6.9 15-8.56 52.25v48.5h53z" fill="#57c278"/><path d="M356.29 134c-1.54-4.79-1.22-11.65-.7-16l-10.37 10.26a12.43 12.43 0 01.65 5.7 2.07 2.07 0 01-1.79 1.75l-4.28.49-.66 4.3 1.34 3 5.39.54 7.56-1.41 9.85-5.7a17.22 17.22 0 00-4.31-.81 3.79 3.79 0 01-2.68-2.12z" fill="#ffb273"/><path d="M351.37 123.05l-6 5.86a14.19 14.19 0 01.58 3.33c2.43-.56 5.42-2.86 6.19-5.62.52-1.7-.14-3.42-.77-3.57z" style="isolation:isolate" opacity=".2"/><path d="M357.16 110.32c-.45 7.88-.32 12.51-4.28 16.57-5.95 6.11-15.7 2.51-17.6-5.32-1.73-7.11-.69-18.77 7-21.93a10.75 10.75 0 0114.87 10.68z" fill="#ffb273"/><path d="M344.84 112.64c0 .65-.33 1.17-.75 1.17s-.76-.51-.76-1.16.33-1.16.75-1.16.76.51.76 1.15zm-2.47 9.12c0 .64-.34 1.17-.76 1.17s-.76-.52-.76-1.16.34-1.16.76-1.16.76.54.76 1.15zm-4.77-9.08c0 .63-.34 1.16-.76 1.15s-.76-.51-.76-1.15.33-1.17.76-1.17.75.49.76 1.17zm9.97-3.68a.42.42 0 00.16-.09.39.39 0 00-.08-.53 3.81 3.81 0 00-3.39-.57.38.38 0 10.27.7 3 3 0 012.68.49.38.38 0 00.36 0zm-13.31.05a.36.36 0 00.36 0 3 3 0 012.66-.48.38.38 0 00.49-.21.38.38 0 00-.22-.49 3.76 3.76 0 00-3.4.57.38.38 0 00-.09.51.3.3 0 00.2.1z" fill="#263238"/><path d="M355.31 116.7h-4.1l2-6.93a11.57 11.57 0 01-4.65-6.6s-15.76 3.16-15.59-8 4.62 0 4.62 0 4.94-4.5 7.24-4 0 3.66 0 3.66 5.85-1.33 7.58-.16-1.21 2-1.21 2 12.89 3.48 6.8 19.33z" fill="#263238"/><path d="M357.05 113.77a6.11 6.11 0 00-4.33-1.79h-3.63a3.88 3.88 0 00-7.74-.18 1.16 1.16 0 00-.86 0 3.85 3.85 0 100 .57.63.63 0 01.8 0 3.89 3.89 0 007.77.11h3.63a5.54 5.54 0 014 1.65l1.17 1.17.36-.36zm-20.42 1.87a3.41 3.41 0 113.41-3.41 3.41 3.41 0 01-3.41 3.41zm8.58 0a3.41 3.41 0 113.41-3.41 3.41 3.41 0 01-3.41 3.41z" fill="#57c278"/><path d="M361 117.65a7.58 7.58 0 01-4.66 3.33c-2.57.56-3.72-1.76-2.89-4.11.74-2.11 3-5 5.5-4.49s3.36 3.19 2.05 5.27z" fill="#ffb273"/><path d="M340.65 112.65a23.05 23.05 0 01-3 5.49 3.74 3.74 0 003.07.57z" fill="#ed847e"/><path d="M329.22 380.25l.16 14.78a1.66 1.66 0 01-.89 1.51c-1.47.75-4.32 3.2-5.55 3.61a67.25 67.25 0 01-6.75 1.44 1.67 1.67 0 00-1.38 1.54 1.68 1.68 0 001.57 1.78l21.81.4a1.67 1.67 0 001.78-1.52l2.09-22.31a1.67 1.67 0 00-1.48-1.82l-9.49-1.1a1.68 1.68 0 00-1.87 1.69z" fill="#263238"/><path d="M324.73 228v80.83l2.48 70.72a2.91 2.91 0 002.9 2.83h10.3a2.91 2.91 0 002.89-2.61c1.23-12.24 6.18-46.89 4-69.75 0 0 7.37-44.76 7.81-63.07L350 230.38z" fill="#57c278"/><path d="M347.8 234.56s-2.56 33.8 1.13 65.05c1.87-7.81 3.15-44.35 4.92-56.93z" opacity=".2"/><path d="M363.46 381.23l1.72 14.68a1.66 1.66 0 01-.74 1.59 59.08 59.08 0 01-5.24 3.19 67.8 67.8 0 01-6.56 2.13 1.69 1.69 0 00-1.21 1.68 1.68 1.68 0 001.74 1.61l21.85-.9a1.69 1.69 0 001.61-1.69l-.27-22.42a1.67 1.67 0 00-1.66-1.65l-9.56-.09a1.68 1.68 0 00-1.68 1.87z" fill="#263238"/><path d="M346.85 230.1l6.75 77.72 7.9 72.65a2.82 2.82 0 003 2.52l10.32-.66a2.81 2.81 0 002.65-2.75c.29-12 2.5-49.3-1.67-71.26 0 0 5.89-49.31 1.91-80.92z" fill="#57c278"/><path opacity=".2" d="M326.87 225.42l.45 3.23 38.22 2.02v-5.25h-38.67z"/><path d="M342.73 135.94s-2.69 5.38.84 5.6c5.37.35 16.22-5.54 16.22-5.54l2.31.53s-.06 8.89-11.9 12.3c0 0-3.41-4.41-6.83-4.5s-7.92 3.59-7.92 3.59-2.18-5.82 3.58-11.83z" fill="#57c278"/><path d="M341.29 136s-7.5 3.17-10.25 23.42-3.75 58.25-3 76 1.75 29.25-3.75 28.5c0 0-.5-28.5 0-60.25s-2.75-67.09 17-67.67z" fill="#57c278"/><path d="M341.29 136s-7.5 3.17-10.25 23.42-3.75 58.25-3 76 1.75 29.25-3.75 28.5c0 0-.5-28.5 0-60.25.45-28.93-2.21-60.84 12.26-66.72.21-.08.52-.48.73-.55a13.79 13.79 0 014.01-.4z" fill="#fff" opacity=".7"/><path d="M362.79 136s-9 5-10 36.67-.67 91.66 10 92.66 22.33-5 22.33-5-.76-11.48-2.75-26c-1.66-12.15-4.49-26.44-5.58-38-1.27-13.32 6-50 1.33-53.66S362.79 136 362.79 136z" fill="#57c278"/><path d="M362.79 136s-9 5-10 36.67-.67 91.66 10 92.66 22.33-5 22.33-5-.76-11.48-2.75-26c-1.66-12.15-4.49-26.44-5.58-38-1.27-13.32 6-50 1.33-53.66S362.79 136 362.79 136z" fill="#fff" opacity=".7"/><path d="M357.836 221.451l14.847-2.134.269 1.87a3.27 3.27 0 01-2.772 3.702l-8.364 1.203a3.27 3.27 0 01-3.702-2.772l-.269-1.87z" fill="#57c278"/><path d="M357.836 221.451l14.847-2.134.269 1.87a3.27 3.27 0 01-2.772 3.702l-8.364 1.203a3.27 3.27 0 01-3.702-2.772l-.269-1.87z" fill="#fff" opacity=".6"/><path d="M351 210.79h-21.22a1.67 1.67 0 01-1.62-1.46l-3.42-32.57a1.29 1.29 0 011.31-1.47h21.23a1.67 1.67 0 011.62 1.47l3.43 32.57a1.29 1.29 0 01-1.33 1.46z" fill="#263238"/><path d="M351 210.79h-21.22a1.67 1.67 0 01-1.62-1.46l-3.42-32.57a1.29 1.29 0 011.31-1.47h21.23a1.67 1.67 0 011.62 1.47l3.43 32.57a1.29 1.29 0 01-1.33 1.46z" fill="#fff" opacity=".5"/><path d="M339.48 177.88h-5.08a2.09 2.09 0 01-2-1.84l-.31-3h8.75l.31 3a1.62 1.62 0 01-1.67 1.84z" fill="#263238"/><path d="M339.48 177.88h-5.08a2.09 2.09 0 01-2-1.84l-.31-3h8.75l.31 3a1.62 1.62 0 01-1.67 1.84z" fill="#fff" opacity=".7"/><path d="M348.28 175.29h-1a1.67 1.67 0 011.62 1.47l3.43 32.57a1.29 1.29 0 01-1.31 1.46h1a1.29 1.29 0 001.31-1.46l-3.43-32.57a1.67 1.67 0 00-1.62-1.47z" fill="#263238"/><path d="M348.28 175.29h-1a1.67 1.67 0 011.62 1.47l3.43 32.57a1.29 1.29 0 01-1.31 1.46h1a1.29 1.29 0 001.31-1.46l-3.43-32.57a1.67 1.67 0 00-1.62-1.47z" fill="#fff" opacity=".7"/><path d="M370.53 188.78l-11.84 2.66-5.24-3.11a3 3 0 00-2-.4l-4.26.63a3 3 0 00-2.23 1.55l-1 1.75a3.06 3.06 0 00-.32 1.95l.33 2a3.06 3.06 0 002.27 2.46l7.2 1.78a3.07 3.07 0 001.7-.07l5-1.69 14.34-1.67z" fill="#57c278"/><path d="M370.53 188.78l-11.84 2.66-5.24-3.11a3 3 0 00-2-.4l-4.26.63a3 3 0 00-2.23 1.55l-1 1.75a3.06 3.06 0 00-.32 1.95l.33 2a3.06 3.06 0 002.27 2.46l7.2 1.78a3.07 3.07 0 001.7-.07l5-1.69 14.34-1.67z" fill="#fff" opacity=".3"/><path d="M370.5 196.45a2.93 2.93 0 003.12 2.07c3.76-.39 10.82-1.83 15.92-7.1 7.25-7.5-2.82-36.1-6.75-43.25-4.41-8-11.23-9.16-11.23-9.16-8.77-3-7.52 5.16-5 15.16s12 24.5 12.25 27.25c.16 1.76-5.25 3.84-9.15 5.1a2.93 2.93 0 00-1.66 4.28 24.67 24.67 0 012.5 5.65z" fill="#57c278"/><path d="M370.5 196.45a2.93 2.93 0 003.12 2.07c3.76-.39 10.82-1.83 15.92-7.1 7.25-7.5-2.82-36.1-6.75-43.25-4.41-8-11.23-9.16-11.23-9.16-8.77-3-7.52 5.16-5 15.16s12 24.5 12.25 27.25c.16 1.76-5.25 3.84-9.15 5.1a2.93 2.93 0 00-1.66 4.28 24.67 24.67 0 012.5 5.65z" fill="#fff" opacity=".8"/><path d="M283.63 136.69h-4a2.19 2.19 0 00-2.2 2.19 2.18 2.18 0 001.19 1.93v35.36a2.52 2.52 0 002.52 2.52h1a2.52 2.52 0 002.52-2.52v-35.32a2.17 2.17 0 001.18-1.93 2.19 2.19 0 00-2.21-2.23z" fill="#57c278"/><path d="M283.63 136.69h-4a2.19 2.19 0 00-2.2 2.19 2.18 2.18 0 001.19 1.93v35.36a2.52 2.52 0 002.52 2.52h1a2.52 2.52 0 002.52-2.52v-35.32a2.17 2.17 0 001.18-1.93 2.19 2.19 0 00-2.21-2.23z" fill="#fff" opacity=".6"/><path d="M278.26 137.17a10.36 10.36 0 006.72 0 2.14 2.14 0 00-1.35-.48h-4a2.17 2.17 0 00-1.37.48zm3.36 20.28c-1 0-1.87-.26-1.89-.59v19.35a1.4 1.4 0 001.4 1.4h1a1.4 1.4 0 001.4-1.4v-19.35c-.03.33-.87.59-1.91.59z" fill="#57c278"/><path d="M283.53 156.84c0 .34-.86.61-1.91.61s-1.9-.27-1.9-.61.85-.61 1.9-.61 1.91.28 1.91.61z" fill="#57c278"/><path d="M283.53 156.84c0 .34-.86.61-1.91.61s-1.9-.27-1.9-.61.85-.61 1.9-.61 1.91.28 1.91.61z" opacity=".3"/><path d="M279.7 141.11v35.1a.56.56 0 001.12 0v-35.1a.56.56 0 00-1.12 0z" fill="#fff" opacity=".8"/><path d="M274.69 115.19c-.74-1.2-1.52-2.38-2.35-3.51l-.4.3a53.5 53.5 0 012.32 3.46.69.69 0 01.43-.25zm.72 1.18a.7.7 0 01-.43.26 52.37 52.37 0 015.53 13.53l.49-.16a52.94 52.94 0 00-5.59-13.63zm6.08.63a.61.61 0 01.28.06l-.34-8.14h-.5l.34 8.1a.72.72 0 01.22-.02zm0 1.48a.75.75 0 01-.16 0l.14 3.33h.5l-.14-3.36a.75.75 0 01-.34.03zm2.73 8.37a.68.68 0 01.46.17 86.59 86.59 0 015.88-16.76l-.45-.21a88 88 0 00-5.91 16.8zm0 1.49a.67.67 0 01-.33-.08c-.31 1.37-.6 2.75-.84 4.14l.49.08c.25-1.4.54-2.79.85-4.18a1 1 0 01-.17.04zm7.05-23.888l.467-.18 1.847 4.775-.466.18z" fill="#57c278"/><path fill="#57c278" d="M290.237 107.467l3.596-1.97.24.438-3.595 1.97z"/><path fill="#57c278" d="M291.34 108.6l1.08-3.914.482.132-1.08 3.914z"/><path fill="#57c278" d="M290.456 106.033l.2-.458 3.757 1.641-.2.458zm-26.94 22.492l.466-.18 1.848 4.774-.467.18z"/><path fill="#57c278" d="M262.485 131.592l3.596-1.97.24.44-3.596 1.969z"/><path fill="#57c278" d="M264.06 132.83l-.48-.13 1.08-3.92.48.13-1.08 3.92z"/><path fill="#57c278" d="M262.676 130.1l.2-.459 3.758 1.642-.2.458zm16.714-24.91l-.07-.49c.46-.07 1-.13 1.47-.19l1.46-.19.07.49-1.47.19z"/><path d="M280.24 106.84l-.47-.18.89-2.3.27.31.68.8.66.77-.37.33-.67-.78c-.13-.16-.27-.31-.4-.48z" fill="#57c278"/><path d="M280.53 105c0-.18 0-.46-.06-.74s0-.55-.06-.72l.5-.06c0 .18 0 .46.06.74s0 .55.06.73zm15.76 18.9c-.24-.39-.51-.83-.77-1.27l-.76-1.26.42-.26.77 1.26c.26.44.52.88.76 1.27z" fill="#57c278"/><path d="M295 124.43l-.45-.21c.15-.33.3-.63.45-.93s.18-.37.26-.55l-1.62.07v-.5l2.46-.11-.17.37c-.16.33-.31.63-.45.94s-.37.6-.48.92z" fill="#57c278"/><path d="M295.67 122.76l-.25-.43c.16-.1.4-.23.65-.36l.64-.34.25.43-.65.35zm-25.14-12.23l-.81-1.22-.83-1.24.41-.28c.27.38.55.81.83 1.24l.82 1.22z" fill="#57c278"/><path d="M272.09 109.25l-2.46.23.16-.38c.14-.34.28-.65.41-1l.41-.94.46.19-.41 1c-.08.19-.16.37-.24.57l1.62-.15z" fill="#57c278"/><path d="M269 110.08l-.27-.42.64-.38.62-.38.27.42-.63.39zm20.42 16.13a16.15 16.15 0 013.57-2.47l-.23-.45a17 17 0 00-3.44 2.34.78.78 0 01.1.58zm-.69.58a.72.72 0 01-.45-.16 16.68 16.68 0 00-3.34 5l.45.2a16.41 16.41 0 013.46-5zM271 127.83v-.12a.75.75 0 01.09-.35 6.68 6.68 0 00-3.54 1.87l.36.34a6.14 6.14 0 013.1-1.68s-.01-.03-.01-.06zm2.5-.47a6.64 6.64 0 00-1.18-.1.73.73 0 01.17.45v.05a5.73 5.73 0 01.92.09 6.2 6.2 0 014.45 3.67l.46-.19a6.72 6.72 0 00-4.82-3.97zm76.9 278.91h-3.1l-4-133.34h4.1l3 133.34z" fill="#57c278"/><path fill="#fff" opacity=".3" d="M350.4 406.27h-3.1l-4-133.34h4.1l3 133.34z"/><path fill="#57c278" d="M300.3 272.93v133.34h3.29l3.86-127.24h39.69l2.9 127.24h3.26V272.93h-53z"/><path fill="#fff" opacity=".5" d="M300.3 272.93v133.34h3.29l3.86-127.24h39.69l2.9 127.24h3.26V272.93h-53z"/><path fill="#57c278" d="M300.3 406.27h-3.11l-1-133.34h4.11v133.34z"/><path fill="#fff" opacity=".3" d="M300.3 406.27h-3.11l-1-133.34h4.11v133.34z"/><path fill="#57c278" d="M151.74 406.27h-3.11l-4-133.34h4.11l3 133.34z"/><path fill="#fff" opacity=".5" d="M151.74 406.27h-3.11l-4-133.34h4.11l3 133.34z"/><path fill="#57c278" d="M101.63 272.93v133.34h3.29l3.87-127.24h39.68l2.91 127.24h3.25V272.93h-53z"/><path fill="#fff" opacity=".3" d="M101.63 272.93v133.34h3.29l3.87-127.24h39.68l2.91 127.24h3.25V272.93h-53z"/><path fill="#57c278" d="M101.63 406.27h-3.11l-1-133.34h4.11v133.34z"/><path fill="#fff" opacity=".5" d="M101.63 406.27h-3.11l-1-133.34h4.11v133.34z"/><path fill="#57c278" d="M92.09 265.27h205.65v7.67H92.09z"/><path fill="#fff" opacity=".6" d="M92.09 265.27h205.65v7.67H92.09z"/><path fill="#57c278" d="M292.96 265.27h65.78v7.67h-65.78z"/><path fill="#fff" opacity=".8" d="M292.96 265.27h65.78v7.67h-65.78z"/><path d="M208 245.5a13.42 13.42 0 00-10.05-11v-15a2.75 2.75 0 002.11-2.67 2.76 2.76 0 00-2.75-2.76h-5a2.76 2.76 0 00-2.75 2.76 2.75 2.75 0 002.11 2.67v15a13.34 13.34 0 00-4.57 23.85 5.19 5.19 0 003 .95h9.4a5.21 5.21 0 003-.94 13.31 13.31 0 005.5-12.86z" fill="#57c278"/><path d="M208 245.5a13.42 13.42 0 00-10.05-11v-15a2.75 2.75 0 002.11-2.67 2.76 2.76 0 00-2.75-2.76h-5a2.76 2.76 0 00-2.75 2.76 2.75 2.75 0 002.11 2.67v15a13.34 13.34 0 00-4.57 23.85 5.19 5.19 0 003 .95h9.4a5.21 5.21 0 003-.94 13.31 13.31 0 005.5-12.86z" fill="#57c278"/><path d="M208 245.5a13.42 13.42 0 00-10.05-11v-15a2.75 2.75 0 002.11-2.67 2.76 2.76 0 00-2.75-2.76h-5a2.76 2.76 0 00-2.75 2.76 2.75 2.75 0 002.11 2.67v15a13.34 13.34 0 00-4.57 23.85 5.19 5.19 0 003 .95h9.4a5.21 5.21 0 003-.94 13.31 13.31 0 005.5-12.86z" fill="#fff" opacity=".7"/><path d="M190.57 214.66a13.07 13.07 0 008.44 0 2.7 2.7 0 00-1.7-.61h-5a2.7 2.7 0 00-1.74.61zm16.04 31.05a11.49 11.49 0 00-1.61-4.31c-.14.76-4.67 1.37-10.24 1.37s-10.17-.62-10.25-1.39a11.9 11.9 0 003.33 15.85 3.92 3.92 0 002.22.69h9.41a3.81 3.81 0 002.19-.68 12 12 0 004.95-11.53z" fill="#57c278"/><path d="M205 241.36c0 .78-4.59 1.41-10.25 1.41s-10.25-.63-10.25-1.41 4.59-1.4 10.25-1.4 10.25.63 10.25 1.4z" fill="#57c278"/><path d="M205 241.36c0 .78-4.59 1.41-10.25 1.41s-10.25-.63-10.25-1.41 4.59-1.4 10.25-1.4 10.25.63 10.25 1.4z" opacity=".2"/><path d="M184.14 247.8s2.37 9 6.14 8.41-2.69-3.55-6.14-8.41z" fill="#fff" opacity=".5"/><path d="M211.27 264.48l-4.44-10.73h1.58a.91.91 0 00.91-.91v-.34a.91.91 0 00-.91-.91h-27.18a.91.91 0 00-.91.91v.34a.91.91 0 00.91.91h1.6l-4.46 10.75c-.18.45.17.63.61.82s.83.3 1-.15l4.73-11.42H194V265c0 .48.39.52.87.52s.88 0 .88-.52v-11.25h9.23l4.72 11.4c.19.45.56.33 1 .15s.76-.37.57-.82z" fill="#263238"/><path d="M211.2 264.48l-4.44-10.73h1.59a.91.91 0 00.91-.91v-.34a.91.91 0 00-.91-.91h-27.18a.9.9 0 00-.91.91v.34a.9.9 0 00.91.91h1.59l-4.45 10.75c-.19.45.16.63.61.82s.82.3 1-.15l4.73-11.42h9.22V265c0 .48.39.52.88.52s.87 0 .87-.52v-11.25h9.23l4.73 11.4c.18.45.56.33 1 .15s.81-.37.62-.82z" fill="#fff" opacity=".4"/><path d="M226 227h-3.23a1.76 1.76 0 00-1.76 1.77 1.77 1.77 0 00.95 1.56v28.4a2 2 0 002 2h.79a2 2 0 002-2v-28.4a1.77 1.77 0 00.95-1.56A1.76 1.76 0 00226 227z" fill="#57c278"/><path d="M226 227h-3.23a1.76 1.76 0 00-1.76 1.77 1.77 1.77 0 00.95 1.56v28.4a2 2 0 002 2h.79a2 2 0 002-2v-28.4a1.77 1.77 0 00.95-1.56A1.76 1.76 0 00226 227z" fill="#fff" opacity=".6"/><path d="M221.71 227.37a8.3 8.3 0 005.39 0 1.72 1.72 0 00-1.1-.37h-3.23a1.72 1.72 0 00-1.06.37zm2.69 22.72c-.83 0-1.5-.22-1.52-.48v9.12a1.13 1.13 0 001.13 1.12h.79a1.13 1.13 0 001.13-1.12v-9.12c-.02.26-.69.48-1.53.48z" fill="#57c278"/><path d="M225.93 249.6c0 .27-.68.49-1.53.49s-1.52-.22-1.52-.49.68-.49 1.52-.49 1.53.22 1.53.49z" fill="#57c278"/><path d="M225.93 249.6c0 .27-.68.49-1.53.49s-1.52-.22-1.52-.49.68-.49 1.52-.49 1.53.22 1.53.49z" opacity=".3"/><path d="M222.86 230.53v28.2a.45.45 0 00.9 0v-28.2a.45.45 0 00-.9 0z" fill="#fff" opacity=".8"/><path d="M238.48 227h-3.23a1.76 1.76 0 00-1.76 1.77 1.77 1.77 0 00.95 1.56v28.4a2 2 0 002 2h.79a2 2 0 002-2v-28.4a1.77 1.77 0 001-1.56 1.76 1.76 0 00-1.75-1.77z" fill="#57c278"/><path d="M238.48 227h-3.23a1.76 1.76 0 00-1.76 1.77 1.77 1.77 0 00.95 1.56v28.4a2 2 0 002 2h.79a2 2 0 002-2v-28.4a1.77 1.77 0 001-1.56 1.76 1.76 0 00-1.75-1.77z" fill="#fff" opacity=".6"/><path d="M234.17 227.37a5.69 5.69 0 002.7.45 5.75 5.75 0 002.7-.45 1.75 1.75 0 00-1.09-.39h-3.23a1.72 1.72 0 00-1.08.39zm2.7 16.29c-.84 0-1.51-.21-1.53-.48v15.55a1.13 1.13 0 001.13 1.12h.79a1.13 1.13 0 001.13-1.12v-15.55c-.02.27-.69.48-1.52.48z" fill="#57c278"/><path d="M238.4 243.17c0 .27-.69.49-1.53.49s-1.53-.22-1.53-.49.68-.49 1.53-.49 1.53.22 1.53.49z" fill="#57c278"/><path d="M238.4 243.17c0 .27-.69.49-1.53.49s-1.53-.22-1.53-.49.68-.49 1.53-.49 1.53.22 1.53.49z" opacity=".3"/><path d="M235.32 230.53v28.2a.45.45 0 00.9 0v-28.2a.45.45 0 00-.9 0z" fill="#fff" opacity=".8"/><path d="M250.94 227h-3.23a1.76 1.76 0 00-1.76 1.77 1.77 1.77 0 001 1.56v28.4a2 2 0 002 2h.8a2 2 0 002-2v-28.4a1.77 1.77 0 00.95-1.56 1.76 1.76 0 00-1.76-1.77z" fill="#57c278"/><path d="M250.94 227h-3.23a1.76 1.76 0 00-1.76 1.77 1.77 1.77 0 001 1.56v28.4a2 2 0 002 2h.8a2 2 0 002-2v-28.4a1.77 1.77 0 00.95-1.56 1.76 1.76 0 00-1.76-1.77z" fill="#fff" opacity=".6"/><path d="M246.63 227.37a5.69 5.69 0 002.7.45 5.75 5.75 0 002.7-.45 1.75 1.75 0 00-1.09-.39h-3.23a1.72 1.72 0 00-1.08.39zm2.7 10.78c-.84 0-1.51-.21-1.53-.48v21.06a1.13 1.13 0 001.13 1.12h.8a1.12 1.12 0 001.12-1.12v-21.06c-.02.27-.69.48-1.52.48z" fill="#57c278"/><path d="M250.86 237.66c0 .27-.69.49-1.53.49s-1.53-.22-1.53-.49.68-.49 1.53-.49 1.53.22 1.53.49z" fill="#57c278"/><path d="M250.86 237.66c0 .27-.69.49-1.53.49s-1.53-.22-1.53-.49.68-.49 1.53-.49 1.53.22 1.53.49z" opacity=".3"/><path d="M247.78 230.53v28.2a.45.45 0 00.9 0v-28.2a.45.45 0 00-.9 0z" fill="#fff" opacity=".8"/><path d="M263.4 227h-3.22a1.77 1.77 0 00-1.77 1.77 1.76 1.76 0 001 1.56v28.4a2 2 0 002 2h.8a2 2 0 002-2v-28.4a1.75 1.75 0 001-1.56 1.76 1.76 0 00-1.81-1.77z" fill="#57c278"/><path d="M263.4 227h-3.22a1.77 1.77 0 00-1.77 1.77 1.76 1.76 0 001 1.56v28.4a2 2 0 002 2h.8a2 2 0 002-2v-28.4a1.75 1.75 0 001-1.56 1.76 1.76 0 00-1.81-1.77z" fill="#fff" opacity=".6"/><path d="M259.09 227.37a5.69 5.69 0 002.7.45 5.75 5.75 0 002.7-.45 1.75 1.75 0 00-1.09-.39h-3.22a1.73 1.73 0 00-1.09.39zm2.7 16.29c-.84 0-1.51-.21-1.52-.48v15.55a1.12 1.12 0 001.12 1.12h.8a1.12 1.12 0 001.12-1.12v-15.55c-.01.27-.69.48-1.52.48z" fill="#57c278"/><path d="M263.32 243.17c0 .27-.69.49-1.53.49s-1.53-.22-1.53-.49.68-.49 1.53-.49 1.53.22 1.53.49z" fill="#57c278"/><path d="M263.32 243.17c0 .27-.69.49-1.53.49s-1.53-.22-1.53-.49.68-.49 1.53-.49 1.53.22 1.53.49z" opacity=".3"/><path d="M260.24 230.53v28.2a.45.45 0 00.9 0v-28.2a.45.45 0 00-.9 0z" fill="#fff" opacity=".8"/><path d="M271.43 234.56a1 1 0 001-1v-1a1 1 0 00-1-1h-56a1 1 0 00-1 1v1a1 1 0 001 1H217v28h-1.58a1 1 0 00-1 1v1a1 1 0 001 1h56a1 1 0 001-1v-1a1 1 0 00-1-1h-1.58v-28zm-4.12 28h-47.8v-28h47.8z" fill="#263238"/><path d="M271.43 234.56a1 1 0 001-1v-1a1 1 0 00-1-1h-56a1 1 0 00-1 1v1a1 1 0 001 1H217v28h-1.58a1 1 0 00-1 1v1a1 1 0 001 1h56a1 1 0 001-1v-1a1 1 0 00-1-1h-1.58v-28zm-4.12 28h-47.8v-28h47.8z" fill="#fff" opacity=".4"/><path d="M308.527 194.961l1.535.776a1.87 1.87 0 01.825 2.513l-8.072 15.966-4.873-2.464 8.072-15.965a1.87 1.87 0 012.513-.826z" fill="#263238"/><path d="M308.527 194.961l1.535.776a1.87 1.87 0 01.825 2.513l-8.072 15.966-4.873-2.464 8.072-15.965a1.87 1.87 0 012.513-.826z" fill="#fff" opacity=".3"/><path fill="#57c278" d="M302.36 216.01h5.08v49.47h-5.08zm-13.63 0h5.08v5.58h-5.08z"/><path opacity=".2" d="M302.36 216.01h5.08v49.47h-5.08zm-13.63 0h5.08v5.58h-5.08z"/><path fill="#57c278" d="M291.53 207.84h4.06v8.17h-4.06z"/><path opacity=".1" d="M291.53 207.84h4.06v8.17h-4.06z"/><path d="M313.78 216h-18.19v-8.17l16.14 3.46a2.6 2.6 0 012 2.54z" fill="#57c278"/><path d="M313.78 216h-18.19v-8.17l16.14 3.46a2.6 2.6 0 012 2.54z" fill="#fff" opacity=".2"/><path d="M294.62 224.84l-5.79-2.71a.28.28 0 01.12-.54h13.27a.28.28 0 01.12.54l-5.78 2.71a2.27 2.27 0 01-1.94 0z" fill="#263238"/><rect x="291.75" y="225.04" width="7.67" height="5.19" rx="2.14" transform="rotate(-90 295.585 227.635)" fill="#263238"/><rect x="291.75" y="225.04" width="7.67" height="5.19" rx="2.14" transform="rotate(-90 295.585 227.635)" fill="#fff" opacity=".6"/><rect x="286.3" y="223.93" width="7.67" height="5.19" rx="2.14" transform="rotate(-67.5 290.135 226.529)" fill="#263238"/><rect x="297.2" y="223.93" width="7.67" height="5.19" rx="2.14" transform="rotate(-112.5 301.035 226.53)" fill="#263238"/><g opacity=".3" fill="#fff"><rect x="286.3" y="223.93" width="7.67" height="5.19" rx="2.14" transform="rotate(-67.5 290.135 226.529)"/><rect x="297.2" y="223.93" width="7.67" height="5.19" rx="2.14" transform="rotate(-112.5 301.035 226.53)"/></g><path d="M307.44 265.48h17.18a2.35 2.35 0 002.29-2.85l-10-44.72a2.42 2.42 0 00-2.37-1.9h-20.73v5.58h13.63z" fill="#57c278"/><path d="M307.44 265.48h17.18a2.35 2.35 0 002.29-2.85l-10-44.72a2.42 2.42 0 00-2.37-1.9h-20.73v5.58h13.63z" fill="#fff" opacity=".3"/><path fill="#263238" d="M277.75 241.53h20.6v4.01h-20.6z"/><path fill="#263238" d="M298.34 241.53h20.6v4.01h-20.6z"/><path fill="#fff" opacity=".7" d="M277.75 241.53h20.6v4.01h-20.6z"/><path fill="#fff" opacity=".3" d="M298.34 241.53h20.6v4.01h-20.6z"/><path d="M229 208.23l-7.88-10.45v-12.91a2.26 2.26 0 001.73-2.19 2.26 2.26 0 00-2.26-2.26h-4.14a2.26 2.26 0 00-2.26 2.26 2.26 2.26 0 001.73 2.19v12.91L208 208.23a3 3 0 002.43 4.87h16.1a3 3 0 002.47-4.87z" fill="#57c278"/><path d="M229 208.23l-7.88-10.45v-12.91a2.26 2.26 0 001.73-2.19 2.26 2.26 0 00-2.26-2.26h-4.14a2.26 2.26 0 00-2.26 2.26 2.26 2.26 0 001.73 2.19v12.91L208 208.23a3 3 0 002.43 4.87h16.1a3 3 0 002.47-4.87z" fill="#fff" opacity=".6"/><path d="M215 180.88a7.33 7.33 0 003.46.58 7.41 7.41 0 003.47-.58 2.24 2.24 0 00-1.4-.5h-4.14a2.19 2.19 0 00-1.39.5zm13.05 28.05l-3.66-4.86c0 .38-2.65.68-5.9.68s-5.88-.3-5.9-.68l-3.66 4.86a1.83 1.83 0 00-.18 2 1.85 1.85 0 001.69 1h16.1a1.89 1.89 0 001.51-3z" fill="#57c278"/><ellipse cx="218.49" cy="204.07" rx="5.9" ry=".68" fill="#57c278"/><ellipse cx="218.49" cy="204.07" rx="5.9" ry=".68" opacity=".3"/><path d="M218 198.38s-7.38 11.17-5 11.87 5-11.87 5-11.87z" fill="#fff" opacity=".6"/><path fill="#57c278" d="M171.18 133.58l4.16 1.69-.24 1.27-1.58-.04-1.74 1.56-.6-4.48z"/><path fill="#fff" opacity=".3" d="M171.18 133.58l4.16 1.69-.24 1.27-1.58-.04-1.74 1.56-.6-4.48z"/><path d="M165.63 124.25s5.69-2.13 6.91 1.47-6.23 3.6-6.23 3.6z" fill="#263238"/><path d="M165.63 124.25s5.69-2.13 6.91 1.47-6.23 3.6-6.23 3.6z" opacity=".5"/><path d="M146.69 159.33s5.17-.65 4.89-10.19c0 0 4.74-2.28 7.91.47s-2.61 9.47 1.31 12.15-14.11-2.43-14.11-2.43z" fill="#ffc3bd"/><path d="M156.71 153.53a17.35 17.35 0 002.9 3.34c.24-1.24.62-2.53.78-3.72z" opacity=".1"/><path d="M172.53 135.5c.08.68-.21 1.27-.66 1.32s-.9-.48-1-1.14.21-1.28.66-1.32.92.46 1 1.14z" fill="#263238"/><path d="M170.86 136.27l3.89 4.92a4.69 4.69 0 01-4.15.84z" fill="#ba4d3c"/><path d="M145.89 133.62c.63 9.06.7 12.92 5.31 17.53 7 4.69 18 4.21 20.05-4.87 1.88-8.16.55-21.57-8.36-25.17a12.41 12.41 0 00-17 12.51z" fill="#ffc3bd"/><path d="M168.88 132.4a.37.37 0 00.34 0 2.84 2.84 0 012.57 0 .35.35 0 10.36-.61 3.47 3.47 0 00-3.24 0 .36.36 0 00-.17.47.37.37 0 00.14.14z" fill="#263238"/><path d="M142.15 162.23s-1-6.23 10.41-4.71 10.31 5.15 10.31 5.15z" fill="#57c278"/><path d="M142.15 162.23s-1-6.23 10.41-4.71 10.31 5.15 10.31 5.15z" fill="#fff" opacity=".6"/><path d="M122.41 297.24l2.13 8.54s-11 31.3-6.05 92.49h7.72L142 304.35zM168 304l-1 95.7h-8.63s-11.8-66.53-7.68-92.86z" fill="#ffc3bd"/><path d="M121.52 266.11s-3.21 18.68-3 35c0 0 18.5 10.14 53.19 6.23 0 0 2.49-30.42 2.31-47.67z" fill="#57c278"/><path d="M121.52 266.11s-3.21 18.68-3 35c0 0 18.5 10.14 53.19 6.23 0 0 2.49-30.42 2.31-47.67zm18.67-104.41s-11.38.53-11.83 23.3 7.21 25.35 10 26.5-.63-10.76-.63-10.76-3.82-20.81.36-28.37 3.78-11.07 2.1-10.67z" fill="#57c278"/><path d="M140.19 161.7s-11.38.53-11.83 23.3 7.21 25.35 10 26.5-.63-10.76-.63-10.76-3.82-20.81.36-28.37 3.78-11.07 2.1-10.67z" fill="#fff" opacity=".5"/><path d="M143.75 160.81c-3.62.11-13.52-.54-11.74 25.79s-12.09 80.76-12.09 80.76 21.34 7.82 41.26 8.18 15.3-41.63 15.66-52.3 9.07-41.4 1.45-55.34c-2.11-3.9-5.84-7.9-34.54-7.09z" fill="#57c278"/><path d="M143.75 160.81c-3.62.11-13.52-.54-11.74 25.79s-12.09 80.76-12.09 80.76 21.34 7.82 41.26 8.18 15.3-41.63 15.66-52.3 9.07-41.4 1.45-55.34c-2.11-3.9-5.84-7.9-34.54-7.09z" fill="#fff" opacity=".7"/><path fill="#ffc3bd" d="M203.78 196.52l6.32-1.69.48 4.66-5.82 2.32-.98-5.29z"/><path d="M168.57 164.63c3.22-2.16 8.89-2.4 12.18 7.65s6.49 25.53 10.85 25.61 12.63-1.89 12.63-1.89 2.4 1.6 2 5.87c0 0-11.73 5.24-20.36 4.35s-19.06-30.33-19.39-34.86c-.09-1.73-.77-4.81 2.09-6.73z" fill="#57c278"/><path d="M168.57 164.63c3.22-2.16 8.89-2.4 12.18 7.65s6.49 25.53 10.85 25.61 12.63-1.89 12.63-1.89 2.4 1.6 2 5.87c0 0-11.73 5.24-20.36 4.35s-19.06-30.33-19.39-34.86c-.09-1.73-.77-4.81 2.09-6.73z" fill="#fff" opacity=".8"/><path d="M207.88 201.18l6-2.77 8.26-2.18a2.35 2.35 0 001.72-1.91l.84-5.39a2.36 2.36 0 00-1.12-2.39h-.08a2.35 2.35 0 00-2.82.32 10.07 10.07 0 01-2.43 1.86 5.83 5.83 0 01-1.77.1 2.43 2.43 0 00-2 1l-2.7 3.59-4.9 1.7a11.56 11.56 0 011 6.07z" fill="#57c278"/><path d="M207.88 201.18l6-2.77 8.26-2.18a2.35 2.35 0 001.72-1.91l.84-5.39a2.36 2.36 0 00-1.12-2.39h-.08a2.35 2.35 0 00-2.82.32 10.07 10.07 0 01-2.43 1.86 5.83 5.83 0 01-1.77.1 2.43 2.43 0 00-2 1l-2.7 3.59-4.9 1.7a11.56 11.56 0 011 6.07z" fill="#fff" opacity=".3"/><path d="M151.44 152.41s1.28-1.16 3.84.74c0 0 9.15-5.65 10.08-18.74 0 0 3.36-3.91 2.47-7.22 0 0 5.43-4.89.88-8.58a5.11 5.11 0 00-7.73.71s-14.43-6.18-16 8.25a17.15 17.15 0 000 16.83c5.02 8.94 6.46 8.01 6.46 8.01z" fill="#263238"/><path d="M152.13 152.11s-4.51-.24-3.91 2.36 1.22-1.72 3.91-2.36z" fill="#263238"/><circle cx="146.64" cy="129.78" r="3.79" fill="#57c278"/><path d="M146.06 123.29a15.16 15.16 0 00-1 4.28 17.33 17.33 0 00-2.19 9.26 8 8 0 006.3-7.55 7.55 7.55 0 00-3.11-5.99z" opacity=".4"/><circle cx="141.71" cy="127.64" r="7.43" transform="rotate(-45 141.71 127.641)" fill="#263238"/><path d="M150 313.19a133.23 133.23 0 0017.93-.37l.06-5.08a130.7 130.7 0 01-17.52.4c-.2 1.57-.36 3.26-.47 5.05zm-26.26-4.77a85.66 85.66 0 0016.89 3.92l.84-5a86.75 86.75 0 01-17.52-4l.59 2.36s-.31.97-.8 2.72z" opacity=".1"/><path d="M167.19 397.7l-9.49.28a.77.77 0 00-.73.62l-1.48 7.77a1.26 1.26 0 001 1.49h.27c3.41-.17 6.45-.44 10.71-.57 5-.15 3.77.49 9.68.4 3.56-.06 4.09-4.12 2.57-4.28-6.93-.66-7.71-2.72-10.45-5.12a3 3 0 00-2.08-.59zm-40.52-.7l-9.47-.53a.77.77 0 00-.78.55l-2.15 7.61a1.29 1.29 0 00.87 1.58l.26.05c3.42.13 6.47.11 10.73.36 5 .28 3.71.81 9.6 1.23 3.56.24 4.43-3.76 2.94-4.05-6.85-1.25-7.45-3.38-10-6a3.07 3.07 0 00-2-.8z" fill="#263238"/><path d="M160.52 135.66l14.82-.39s-.8 5.95-1.84 5.77-.68-4.36-.68-4.36h-10.94z" fill="#57c278"/><path d="M160.52 135.66l14.82-.39s-.8 5.95-1.84 5.77-.68-4.36-.68-4.36h-10.94z" fill="#fff" opacity=".7"/><path d="M164.77 135.75a6.94 6.94 0 011.49 5.14c-.29 2.44-2.71 2.75-4.54 1.3-1.65-1.31-3.46-4.15-2.25-6.24a3.15 3.15 0 015.3-.2z" fill="#ffc3bd"/><path d="M163.727 228.368l12.227 1.592-.083.635a2.62 2.62 0 01-2.936 2.26l-7.04-.917a2.62 2.62 0 01-2.26-2.937l.082-.634.01.001z" fill="#57c278"/><path d="M163.727 228.368l12.227 1.592-.083.635a2.62 2.62 0 01-2.936 2.26l-7.04-.917a2.62 2.62 0 01-2.26-2.937l.082-.634.01.001z" fill="#fff" opacity=".6"/></svg>