<svg xmlns="http://www.w3.org/2000/svg" viewBox="0 0 500 500"><circle cx="216.28" cy="171.11" r="11.25" fill="#263238"/><path d="M217.46 172.5c-3 2.75-7.33 2.92-9.66.37s-1.8-6.87 1.2-9.58 7.33-2.92 9.66-.37 1.8 6.83-1.2 9.58z" fill="#57c278"/><circle cx="198.71" cy="168.58" r="10.45" transform="rotate(-45 198.713 168.59)" fill="#263238"/><path d="M187.35 193.9c-1.12 3-2.38 5.61-3.72 8.34s-2.86 5.33-4.47 7.91a69.82 69.82 0 01-5.34 7.51q-1.47 1.8-3.11 3.51c-.54.58-1.11 1.13-1.69 1.68-.28.28-.59.54-.88.81l-.45.41a8.84 8.84 0 01-.94.7 6.34 6.34 0 01-2.46.93 6.47 6.47 0 01-2.35-.08 8.74 8.74 0 01-3.14-1.38 20.11 20.11 0 01-3.74-3.48 54.88 54.88 0 01-5.2-7.36 116.59 116.59 0 01-7.71-15.61l3.67-1.87c1.45 2.37 2.94 4.78 4.48 7.11s3.08 4.66 4.72 6.86a53.57 53.57 0 005.11 6.16 13.08 13.08 0 002.63 2.13 1.8 1.8 0 00.76.29h-.21a1.14 1.14 0 00-.44.14h-.07s-.06.05 0 0l.35-.35c.23-.23.47-.45.69-.7q.69-.71 1.35-1.47c.88-1 1.73-2.06 2.53-3.16 1.62-2.19 3.12-4.51 4.55-6.89s2.72-4.87 4-7.37 2.43-5.12 3.44-7.55z" fill="#ff8b7b"/><path d="M192.91 196.55c-1.18 2.35-4.66 6.41-7.39 9.41-2 2.15-3.53 3.76-3.53 3.76l-1.21-1-10-8.62c2.88-6.1 6.49-12.59 14.4-13.66 4.94-.71 9.82 5.93 7.73 10.11z" fill="#263238"/><path d="M185.52 206c-2 2.15-3.53 3.76-3.53 3.76l-1.21-1c1-2.46 2.71-6.27 4.62-7.66a11.53 11.53 0 01.12 4.9z" opacity=".3"/><path d="M146.33 197.75l1.25-6.89-8.41.32s1.64 5.55 3.82 8zm-1.05-10.05l-6.24 1.4.13 2.08 8.41-.32-2.3-3.16zm53.14 220.77l-8.11.76.14-18.5 8.11-.76-.14 18.5zm42.94-3.86l-7.99 1.22-4.89-18.02 7.99-1.23 4.89 18.03z" fill="#ff8b7b"/><path d="M232 402.87l8.91-1.82a.6.6 0 01.72.41l2.26 6.8a1.33 1.33 0 01-1 1.66c-3.12.58-4.64.7-8.56 1.5-2.41.5-7.68 1.94-11 2.62s-4.08-2.56-2.75-3.14c6-2.6 8.43-5.1 10.21-7.28a2.13 2.13 0 011.21-.75zm-42.57 3.96H199a.76.76 0 01.74.58l1.86 7.55a1.21 1.21 0 01-1.2 1.51c-3.37 0-5-.23-9.16-.23-2.58 0-9.27.25-12.83.25s-4.12-3.53-2.67-3.85c6.51-1.43 10.3-3.4 12.35-5.29a2 2 0 011.34-.52z" fill="#263238"/><path opacity=".2" d="M190.45 390.73l-.08 9.54h8.11l.08-10.3-8.11.76zm46.03-4.14l-8 1.22 2.52 9.29 8-1.22-2.52-9.29z"/><path d="M219.68 234.32l-32.69.91c-7.68-47-4.06-48.32-4.06-48.32s5.61-1.36 11.26-2.21c.86-.13 1.72-.25 2.56-.35a103.92 103.92 0 0114.85-.42c.73 0 1.46 0 2.19.07a99.41 99.41 0 0111.7 1.37c-1.34 5.81-2.41 10.75-3.24 15.07-1.08 5.63-1.78 10.18-2.2 14.17a122.54 122.54 0 00-.37 19.71z" fill="#263238"/><path d="M220.05 214.61c-1.58-4.91-1.34-15.14.48-18.49l1.72 4.32c-1.08 5.63-1.78 10.18-2.2 14.17z" opacity=".3"/><path d="M209.31 173.82c-.21 4 .21 8.18 2.3 10.11 0 0-2.1 9.91-14 15.74-7.65-9.5-.83-15.33-.83-15.33 5.33-1.42 5.43-5 4-10.8l4.22-1.74a2.57 2.57 0 014.31 2.02z" fill="#ff8b7b"/><path d="M205 171.8a2.56 2.56 0 014.3 1.65 16.77 16.77 0 01-7.85 6.43 17.26 17.26 0 00-.69-6.34z" opacity=".2"/><path d="M217.08 161.94c-3 7.5-4.05 10.73-9.15 13.5-7.68 4.17-16.15-.84-15.47-9 .61-7.35 5.34-18.38 13.75-19.2a10.6 10.6 0 0110.87 14.7z" fill="#ff8b7b"/><path d="M212.85 155.24c-7.71 1.25-18.9-3.81-16.74-9.57 1.49-4 6.67-1.16 6.67-1.16s8.29-2.31 14.16 2.24 7.41 15-3.5 21.83c-3.44-3.86-3.75-10.42-.59-13.34z" fill="#263238"/><path d="M216.48 169.56a6.05 6.05 0 01-3.63 2.68c-2 .5-2.89-1.29-2.24-3.13.58-1.66 2.33-3.92 4.29-3.6s2.57 2.41 1.58 4.05z" fill="#ff8b7b"/><path d="M187 235.23s-3.54 48.71-3.54 80.2c0 25 5.42 81.1 5.42 81.1l11.71-1.16s1.93-60.18-.34-78c7.23-35.22 20.45-68.72 13-83z" fill="#263238"/><path fill="#57c278" d="M202.49 392.52l-15.44.47.84 5.27 14.44-.22.16-5.52z"/><path d="M205.49 253.27l-3.84 4.28c-3.67 10.92-1.24 26.08 3.14 40.15 4.47-17.73 9.19-34.09 10.38-46.59V250z" opacity=".3"/><path d="M194.13 235.13s11.85 53.71 16.69 84.7c7.78 25 17.52 73.2 17.52 73.2l10.81-2.58s-5-57.17-11.09-75c-.35-35.23 2.1-66.82-8.38-81.11z" fill="#263238"/><path fill="#57c278" d="M227.41 395.58l13.72-2.75-.18-5.57-15.31 3.53 1.77 4.79zm-7.24-163.19l1.48 2.88c.11.23-.16.47-.53.48l-34.3.95c-.29 0-.54-.13-.55-.31l-.3-2.92c0-.2.24-.38.56-.39l33.11-.92a.56.56 0 01.53.23z"/><path d="M215.73 236.21h.88c.18 0 .31-.1.3-.21l-.41-3.79c0-.11-.17-.2-.35-.19h-.88c-.18 0-.31.1-.3.21l.41 3.79c.02.11.17.2.35.19zm-26.41.79h.88c.18 0 .31-.1.3-.21l-.41-3.79c0-.11-.17-.19-.35-.19h-.88c-.18 0-.31.1-.3.21l.41 3.79c.03.06.17.19.35.19zm13.2-.42h.89c.17 0 .31-.1.3-.22l-.42-3.78c0-.11-.16-.2-.34-.2h-.89c-.17 0-.31.1-.3.21l.42 3.79c.01.12.16.21.34.2zm2.7-75.82c-.2.62-.69 1-1.1.91s-.56-.73-.36-1.35.69-1 1.1-.91.56.73.36 1.35zm-6.97-2.1c-.21.63-.7 1-1.1.91s-.57-.72-.36-1.35.69-1 1.09-.9.57.68.37 1.34z" fill="#263238"/><path d="M198.05 157.41l-1.34-.88s.38 1.4 1.34.88z" fill="#263238"/><path d="M198.71 159.81a18.11 18.11 0 01-3.5 3.31 2.71 2.71 0 002.07 1.07z" fill="#ff5652"/><path d="M199.29 167.6a.19.19 0 01-.06-.2.21.21 0 01.25-.13 5.22 5.22 0 004.61-.73.19.19 0 11.24.29 5.54 5.54 0 01-5 .81zm7.39-9.02a.38.38 0 01-.11-.16 2.9 2.9 0 00-1.92-1.91.38.38 0 01-.28-.46.4.4 0 01.47-.29 3.67 3.67 0 012.46 2.4.4.4 0 01-.24.49.37.37 0 01-.38-.07zM195 154.21v-.07a.39.39 0 01.31-.45 3.72 3.72 0 013.34.91.38.38 0 010 .54.39.39 0 01-.54 0 2.93 2.93 0 00-2.65-.69.39.39 0 01-.46-.24z" fill="#263238"/><path d="M228.1 404.76l-.11-.06a1 1 0 01-.49-.93.64.64 0 01.28-.6c.85-.61 3.53.45 3.83.57a.18.18 0 01.12.17.2.2 0 01-.12.18c-.94.43-2.61 1.07-3.51.67zm2.93-.83c-1.08-.39-2.59-.77-3-.46a.29.29 0 00-.11.27.7.7 0 00.31.63c.42.28 1.47.12 2.77-.44z" fill="#57c278"/><path d="M231.28 404c-.88-.4-2.38-1.67-2.36-2.53a.69.69 0 01.54-.65 1 1 0 01.84.09c1 .58 1.41 2.85 1.43 2.95a.22.22 0 01-.07.18.21.21 0 01-.19 0zm-1.25-2.8a.66.66 0 00-.46 0c-.23.08-.27.2-.27.29 0 .56 1.11 1.66 2 2.1a4.21 4.21 0 00-1.17-2.33zm-44.87 7.21a3.15 3.15 0 01-1.86-.45 1.16 1.16 0 01-.45-.92.57.57 0 01.25-.52c.88-.58 4.09.89 4.73 1.2a.19.19 0 01-.05.35 12.44 12.44 0 01-2.62.34zm-1.48-1.65a.69.69 0 00-.38.08.17.17 0 00-.07.18.81.81 0 00.31.64c.55.42 1.87.47 3.59.16a11.58 11.58 0 00-3.45-1.06z" fill="#57c278"/><path d="M187.74 408.08h-.08c-1.06-.44-3.19-2.18-3-3.08 0-.2.18-.44.67-.5 1.9-.23 2.61 3.22 2.64 3.37a.19.19 0 01-.07.18.21.21 0 01-.16.03zm-2.29-3.23h-.13c-.2 0-.31.08-.32.17-.09.52 1.38 1.9 2.46 2.5-.23-.82-.87-2.67-2.01-2.67z" fill="#57c278"/><path d="M205 159.5l-1.34-.87s.4 1.37 1.34.87z" fill="#263238"/><path d="M226.71 190.59c.86 1.3 1.55 2.47 2.25 3.72s1.36 2.49 2 3.76c1.25 2.54 2.39 5.14 3.4 7.81a69 69 0 012.57 8.23c.19.69.31 1.42.47 2.13s.3 1.42.41 2.15.24 1.4.34 2.21l.12 1.29v1.27a28.58 28.58 0 01-1.95 9.24 52.28 52.28 0 01-3.91 8 85.15 85.15 0 01-4.82 7.2 82.41 82.41 0 01-5.56 6.61l-3.1-2.56c1.49-2.2 3-4.52 4.35-6.86s2.67-4.71 3.79-7.12a52.06 52.06 0 002.83-7.26 32.57 32.57 0 00.84-3.59 19 19 0 00.22-3.4v-.79l-.12-.75c-.09-.55-.26-1.23-.38-1.83s-.29-1.24-.46-1.86-.32-1.23-.52-1.85c-.73-2.46-1.68-4.87-2.64-7.28s-2.1-4.76-3.3-7.08c-.58-1.16-1.19-2.31-1.82-3.45s-1.31-2.29-1.91-3.28z" fill="#ff8b7b"/><path d="M225.49 185.37c3.92.94 8.5 12.7 8.5 12.7l-11.41 9s-6.62-9.65-5.75-14.82c.74-4.42 3.67-8.07 8.66-6.88z" fill="#263238"/><path fill="#57c278" d="M136.34 227.877l.241-14.558 1 .017-.241 14.558zm-.146 9.061l.082-4.95 1 .017-.082 4.95zm4.246-45.758l-1.48 91.12 35.08 15.01 37.27-8.25 15.43-89.81-86.3-8.07z"/><path fill="#fff" opacity=".2" d="M182.84 203.18l-8.01 85.76 29.5-6.53 13.06-76-34.55-3.23z"/><path fill="#fff" d="M209.15 217.85l-54.87-5.13-1.08 34.25 41.53 3.88-2.03 13-15.68 1.63-15.1-4.51h-.01l.29-8.96-9.13-.85-.59 18.66 23.48 7.01 24.37-2.54 5.29-33.87-42.93-4.01.36-11.42 44.34 4.15 1.76-11.29z"/><path fill="#ff8b7b" d="M209.91 257.67l5.05 3.72 4.67-3.52-5.63-6.09-4.09 5.89zm11-8.07l-6.91 2.18 5.64 6.09s3.42-3 3.88-6.34z"/><path fill="#ffb573" d="M335.02 405.68l7.05-2.29-4.38-16.63-7.05 2.29 4.38 16.63z"/><path d="M342.18 402.45l-7.93 2.55a.53.53 0 00-.36.65l1.65 6.4a1.31 1.31 0 001.64.85c2.74-.94 4-1.53 7.49-2.66 2.14-.7 7.32-2.27 10.28-3.23s1.93-3.86.59-3.72c-6 .64-9.51.1-12-.82a2.16 2.16 0 00-1.36-.02z" fill="#263238"/><path opacity=".2" d="M330.64 389.06l7.05-2.3 2.26 8.58-7.06 2.29-2.25-8.57z"/><path d="M313.45 220.72s10 60.35 13 81.4c3.25 23.05 16 90.47 16 90.47l-13.09 3.62s-18.7-65.33-24-87.74c-5.75-24.33-18.4-87.75-18.4-87.75z" fill="#263238"/><path d="M297.38 245.47c5.12 12.79 5.7 34.53 3.62 43.44-3.14-14.63-6.74-32.13-9.51-45.74.99-3.49 2.78-5.48 5.89 2.3z" opacity=".3"/><path fill="#57c278" d="M329.03 396.47l14.02-3.86-.28-5.71-15.78 5.45 2.04 4.12zm16.05 6.4a9.71 9.71 0 01-2 .36.18.18 0 01-.16-.09.19.19 0 010-.19c.18-.23 1.73-2.24 2.7-2.18a.62.62 0 01.53.34.94.94 0 01.09 1 2 2 0 01-1.16.76zm-1.59 0c1.34-.16 2.26-.5 2.48-.93a.64.64 0 00-.07-.63.32.32 0 00-.26-.17c-.52-.06-1.5.92-2.15 1.7z"/><path d="M343.15 403.22h-.08a.16.16 0 01-.13-.11c0-.08-.85-2.06-.36-3a.85.85 0 01.62-.45.66.66 0 01.76.3c.41.72-.16 2.53-.73 3.18zm0-3.17a.5.5 0 00-.31.26 3.85 3.85 0 00.27 2.39 3.52 3.52 0 00.51-2.53c-.05-.09-.14-.19-.39-.14zM311.9 159.93c.23.49.58 1.19.89 1.8l1 1.89c.66 1.27 1.35 2.52 2.06 3.75 1.42 2.48 2.92 4.89 4.49 7.19a61.91 61.91 0 005.05 6.42 29.94 29.94 0 005.61 4.9l-1.52-.59a2.74 2.74 0 001.44.12 8.31 8.31 0 002.46-.82 27.25 27.25 0 005.75-4 70 70 0 005.58-5.48c1.8-1.94 3.59-4.06 5.24-6.07l.1-.12a3.24 3.24 0 015.47 3.35 64.34 64.34 0 01-4.14 7.85 60.07 60.07 0 01-5.26 7.31 34.46 34.46 0 01-7.24 6.56 19.91 19.91 0 01-5.25 2.44 14.2 14.2 0 01-6.87.27 4.65 4.65 0 01-1.25-.45l-.27-.14a38.5 38.5 0 01-8.68-6.42 60.35 60.35 0 01-6.65-7.59 82.59 82.59 0 01-5.41-8.18c-.81-1.41-1.58-2.82-2.33-4.27-.37-.72-.74-1.44-1.09-2.18s-.67-1.44-1.05-2.34a6.5 6.5 0 0111.84-5.35z" fill="#57c278"/><path d="M316.33 178.71c-3.14-8.34-9.81-8.48-12.7-6.27.21.39.43.78.65 1.17a84.91 84.91 0 005.15 7.91 65.35 65.35 0 006.27 7.38c.72.71 1.46 1.41 2.23 2.09a32 32 0 00-1.6-12.28z" opacity=".3"/><path d="M355.57 173.54l6.42 1-.77-7.09s-9.13-.75-9.63 1.74l1.06 2.17a4 4 0 002.92 2.18z" fill="#ffb573"/><path fill="#ffb573" d="M367.31 170.42l-1.22-5.08-4.87 2.14.77 7.08 5.32-4.14zm-87.8 238.5h7.41l.96-17.17h-7.41l-.96 17.17z"/><path d="M287.31 408.06H279a.53.53 0 00-.55.51l-.4 6.59a1.31 1.31 0 001.29 1.32c2.9-.05 4.29-.22 7.95-.22 2.25 0 9.79.23 12.9.23s3-3.08 1.7-3.36c-5.91-1.24-11.19-3-13.29-4.61a2 2 0 00-1.29-.46z" fill="#263238"/><path opacity=".2" d="M280.47 391.76h7.41l-.5 8.85h-7.41l.5-8.85z"/><path d="M299 220.34s-.64 64.79-1.84 86c-1.32 23.24-6.57 92.11-6.57 92.11H277s-.93-67-1.75-90c-.89-25-1.85-88.13-1.85-88.13z" fill="#263238"/><path fill="#57c278" d="M276.44 398.47h14.67l.82-5.15-16.2.8.71 4.35zm13.5 10.88a9.51 9.51 0 01-2-.26.17.17 0 01-.13-.14.19.19 0 01.07-.17c.24-.17 2.34-1.6 3.24-1.24a.64.64 0 01.4.48 1 1 0 01-.21.94 2 2 0 01-1.37.39zm-1.5-.51c1.32.26 2.3.22 2.64-.12a.62.62 0 00.13-.62.3.3 0 00-.19-.24c-.49-.19-1.72.43-2.58.98z"/><path d="M288 409.09a.12.12 0 01-.08 0 .16.16 0 01-.09-.14c0-.09-.18-2.22.57-2.94a.89.89 0 01.73-.24.66.66 0 01.63.52c.17.81-.93 2.36-1.67 2.8a.15.15 0 01-.09 0zm1-3a.53.53 0 00-.37.15 3.82 3.82 0 00-.49 2.35c.65-.54 1.38-1.72 1.27-2.25 0-.1-.08-.22-.33-.25zm-18.92-245.15a4.73 4.73 0 014-5.5h.09c2.39-.35 5.39-.71 8.33-.85a147.89 147.89 0 0116.85 0c2.59.24 5.12.67 7.14 1.06h.08a7.1 7.1 0 015.39 4.94c2.42 8.15 5.3 24.79 1.53 60.12H273.8c-.28-3.54.51-15.06-.07-29.73a232.84 232.84 0 00-3.65-30.04z" fill="#57c278"/><path d="M270.46 163.12c.83 4.74 1.84 11.19 2.54 18 0 0 3.62-7.1 4.28-13.17s-4.52-6.53-6.82-4.83z" opacity=".3"/><path d="M281.81 154.62s3.15 5.55 11.42 7.91c7.3-4 5.28-8 5.28-8" fill="#f5f5f5"/><path d="M298.51 154.52c-4.9-1.16-5.76-4.19-5.43-7.52a19.92 19.92 0 01.39-2.48l-6.14-5.1-4.51-3.74c1.25 5.43 2.66 15.32-1 18.94 0 0 3 5 11.42 4.56 7.08-.39 5.27-4.66 5.27-4.66z" fill="#ffb573"/><path fill="#f5f5f5" d="M292.86 159.21l-1.4-1.79-3.25 2.56 4.65-.77z"/><path d="M290 163.13a14.5 14.5 0 011.43-5.71c-2.48-.7-8.78-4.33-8.78-4.33l-2.35 1.43a16 16 0 009.7 8.61z" fill="#fff"/><path fill="#f5f5f5" d="M292.86 159.21l1.62-1.79 3.02 2.56-4.64-.77z"/><path d="M296.73 162.53a31.34 31.34 0 00-2.25-5.11c2.48-.7 1.65-4.19 1.65-4.19l2.64 1.11s4.16 6.19-2.04 8.19z" fill="#fff"/><path d="M293.51 160.86c.11.43 0 .82-.25.88s-.53-.23-.64-.66 0-.82.26-.88.53.23.63.66z" fill="#57c278"/><path d="M293.47 144.52a19.92 19.92 0 00-.39 2.48c-2.29-.46-5.35-2.9-5.67-5.24a10.66 10.66 0 01-.08-2.34z" opacity=".2"/><path d="M299.46 131.11c3.05.72 3.59-6.53 1.71-10.12-1.51-2.89-5.69-1.84-6.78-.63s2.39 9.38 2.39 9.38z" fill="#263238"/><path d="M281 127.87c1.57 7.21 2.12 11.5 6.38 14.79a9.59 9.59 0 0015.51-6.91c.56-6.71-2.1-17.37-9.68-19.41A9.7 9.7 0 00281 127.87z" fill="#ffb573"/><path d="M283.4 134.17c2.27-.19 5-4.95 1.71-10.12-1.76-2.75-5.68-1.83-6.78-.63-3 3.26 2.39 9.37 2.39 9.37z" fill="#263238"/><path d="M282.61 125.33c4.49-.22 13.87-3.46 15.22-7.83 2.63-8.48-6.74-8.72-11.86-4.16-3.37 3-6.52 7.34-12.64 8.44.82 1.54 4.29 3.8 9.28 3.55z" fill="#263238"/><path d="M281 126.53c3.16-.54 6.69-3.49 7.27-6.7 1.15-6.21-3.11-4.67-6.85-1-2.32 2.24-3 4.72-7.28 6 .67.98 3.31 2.29 6.86 1.7zm12.62-8.53c2.84 3 7.35 5.84 8.72 4s-1.27-8.57-4.76-8.86-6.02 2.67-3.96 4.86z" fill="#263238"/><path d="M279.3 135.4a8 8 0 004.57 2.72c2.28.38 2.79-1.72 1.63-3.76-1-1.83-3.47-4.24-5.5-3.7s-2.17 2.96-.7 4.74z" fill="#ffb573"/><ellipse cx="293.04" cy="128.5" rx=".71" ry="1.08" transform="rotate(-10.24 293.032 128.521)" fill="#263238"/><path d="M299.05 127.79c.09.59.48 1 .86 1s.63-.57.54-1.16-.48-1-.87-1-.58.57-.53 1.16z" fill="#263238"/><path d="M297 128.34a22.28 22.28 0 003.61 4.72 3.38 3.38 0 01-2.75.86z" fill="#ed893e"/><path d="M295.64 135.81a5.12 5.12 0 01-3.73-1.54.17.17 0 11.26-.23 5 5 0 004.12 1.38.17.17 0 01.2.15.17.17 0 01-.16.19 5.6 5.6 0 01-.69.05zm-5.71-9.13a.34.34 0 01-.17-.05.35.35 0 01-.14-.48 3.37 3.37 0 012.63-1.77.34.34 0 01.36.33.35.35 0 01-.33.37 2.66 2.66 0 00-2 1.42.35.35 0 01-.35.18zm11.9-1.53a.36.36 0 01-.29-.16 2.94 2.94 0 00-2.22-1.34.35.35 0 110-.7 3.64 3.64 0 012.8 1.65.35.35 0 01-.09.49.39.39 0 01-.2.06z" fill="#263238"/><path d="M278.82 167.16c.07 0 0 0 0 0l-.1.09-.24.22-.48.53a37.349 37.349 0 00-3.15 3.67 41.86 41.86 0 00-3.58 5.68 48.19 48.19 0 00-4.53 13 16.62 16.62 0 00-.41 2.88 15 15 0 00.14 2.95 32.48 32.48 0 001.68 6.52 82.55 82.55 0 006.35 13.3l.09.16a3.24 3.24 0 01-5 4 52.78 52.78 0 01-5.71-6.21 55.1 55.1 0 01-4.75-7.09 36.88 36.88 0 01-3.46-8.37 25.63 25.63 0 01-.86-4.87 27.37 27.37 0 01.16-5 51.63 51.63 0 011.61-8.65 50.09 50.09 0 013.08-8.37 47.17 47.17 0 014.62-7.78 39.36 39.36 0 012.94-3.56c.53-.57 1.07-1.14 1.66-1.69l.93-.84.5-.42.67-.53a6.5 6.5 0 117.84 10.36z" fill="#57c278"/><path d="M275.56 214.15l4.07-.71-3.79 8.56s-6.73 0-6.42-3.51l.8-1.07a8.54 8.54 0 015.34-3.27z" fill="#ffb573"/><path fill="#ffb573" d="M285.14 217.73l-3.47 6.9-5.83-2.65 3.79-8.54 5.51 4.29z"/><path fill="#57c278" d="M327.25 86.74l13.99 66.02 27.81 5.04 25.53-12.11-3.7-67.39-63.63 8.44z"/><path fill="#fff" opacity=".3" d="M327.25 86.74l13.99 66.02 27.81 5.04 25.53-12.11-3.7-67.39-63.63 8.44z"/><path fill="#fff" opacity=".2" d="M359.84 88.4l8.39 63.23 20.22-9.59-3.14-57.02-25.47 3.38z"/><path fill="#fff" d="M381.25 94.64l-40.46 5.37 1.63 8.29 32.7-4.33 1.86 26.59-11.05 3.77-11.65-.76-1.27-6.51-6.74.89 2.66 13.57 18.11 1.18 17.18-5.86-2.97-42.2z"/></svg>