<svg xmlns="http://www.w3.org/2000/svg" viewBox="0 0 500 500"><rect x="68.78" y="82.46" width="362.44" height="242.41" rx="14.81" fill="#fff"/><path d="M435.26 247.65h-1v-9h1zm0-16.1h-1v-18.66h1zm-18.85 93.86H83.59a15.37 15.37 0 01-15.35-15.35V97.27a15.36 15.36 0 0115.35-15.35h332.82a15.36 15.36 0 0115.35 15.35v212.79a15.37 15.37 0 01-15.35 15.35zM83.59 83a14.28 14.28 0 00-14.27 14.27v212.79a14.28 14.28 0 0014.27 14.27h332.82a14.28 14.28 0 0014.27-14.27V97.27A14.28 14.28 0 00416.41 83z" fill="#57c278"/><path d="M189.8 274.75h-5v-1.08h5l.09 1.08zm-10.08 0h-5.05v-1.08h5.05zm-10.09 0h-5v-1.08h5zm-10.08 0h-5.05v-1.08h5.05zm-10.09 0h-5v-1.08h5zm-10.09 0h-5v-1.08h5zm-10.08 0h-5v-1.08h5zm-10.09 0h-5v-1.08h5zm-10.08 0h-5v-1.08h5zm-10.09 0h-1.88a7.24 7.24 0 01-3.29-.78l.48-1a6.22 6.22 0 002.81.67H99zm95.79-2l-.73-.79a6.26 6.26 0 002-4.09l1.08.09a7.36 7.36 0 01-2.35 4.81zM90.28 270a7.5 7.5 0 01-.49-2.65v-2.54h1.08v2.54a6.21 6.21 0 00.42 2.26zm106.88-7.15h-1.08v-5h1.08zm-106.29-3.04h-1.08v-5h1.08zm106.29-7h-1.08v-5h1.08zm-106.29-3.08h-1.08v-5h1.08zm106.29-7h-1.08v-5h1.08zm-106.29-3.09h-1.08v-5h1.08zm106.29-7h-1.08v-5h1.08zm-106.29-3.08h-1.08v-5.05h1.08zm106.29-7h-1.08v-5h1.08zm-106.29-3.09h-1.08v-5h1.08zm106.29-7h-1.08v-5.05h1.08zm-106.29-3.09h-1.08v-5h1.08zm106.29-7h-1.08v-5h1.08zM90.87 199.3h-1.08v-5h1.08zm106.29-7h-1.08v-5.05h1.08zm-106.29-3.09h-1.08v-5h1.08zm106.29-7h-1.08v-5h1.08zm-106.29-3.08h-1.08v-5h1.08zm106.29-7h-1.08v-5h1.08zM90.87 169h-1.08v-5h1.08zm106.29-7h-1.08v-5h1.08zm-106.29-3h-1.08v-5.05h1.08zm106.29-7h-1.08v-2.49a6.17 6.17 0 00-.43-2.29l1-.4a7.26 7.26 0 01.51 2.69zM90.9 149l-1.08-.09a7.38 7.38 0 012.34-4.78l.74.8a6.2 6.2 0 00-2 3.99zm101.68-5.09a6.21 6.21 0 00-2.78-.65h-1.92v-1.16h1.92a7.36 7.36 0 013.26.76zm-9.74-.65h-5v-1.16h5zm-10.09 0h-5v-1.16h5zm-10.08 0h-5v-1.16h5zm-10.09 0h-5v-1.16h5zm-10.08 0h-5.05v-1.16h5.05zm-10.09 0h-5v-1.16h5zm-10.08 0h-5v-1.16h5zm-10.09 0h-5v-1.16h5zm-10.09 0h-5v-1.08h5z" fill="#57c278" opacity=".5"/><path d="M97.42 98.06a4.78 4.78 0 11-4.77-4.78 4.78 4.78 0 014.77 4.78z" fill="#57c278"/><path d="M128.76 100.85h-23.41a2.81 2.81 0 01-2.8-2.79 2.81 2.81 0 012.8-2.8h23.41a2.81 2.81 0 012.8 2.8 2.81 2.81 0 01-2.8 2.79zm112.9-1.26h-16.43a1.53 1.53 0 01-1.53-1.53 1.52 1.52 0 011.53-1.53h16.43a1.52 1.52 0 011.53 1.53 1.53 1.53 0 01-1.53 1.53zm36.87 0H262.1a1.54 1.54 0 01-1.53-1.53 1.53 1.53 0 011.53-1.53h16.43a1.52 1.52 0 011.53 1.53 1.53 1.53 0 01-1.53 1.53zm36.87 0H299a1.54 1.54 0 01-1.53-1.53 1.53 1.53 0 011.53-1.53h16.4a1.53 1.53 0 011.54 1.53 1.54 1.54 0 01-1.54 1.53zm36.88 0h-16.44a1.54 1.54 0 01-1.53-1.53 1.53 1.53 0 011.53-1.53h16.44a1.53 1.53 0 011.53 1.53 1.54 1.54 0 01-1.53 1.53z" fill="#57c278" opacity=".2"/><path d="M399.46 100.76H374.6a2.7 2.7 0 01-2.7-2.7 2.7 2.7 0 012.7-2.71h24.86a2.7 2.7 0 012.7 2.71 2.7 2.7 0 01-2.7 2.7z" fill="#57c278" opacity=".7"/><rect x="223.7" y="270.74" width="58.08" height="12.77" rx="5.76" fill="#57c278" opacity=".7"/><path d="M399.1 213.69v-48.62a1.52 1.52 0 011.53-1.53 1.53 1.53 0 011.53 1.53v48.62a1.53 1.53 0 01-1.53 1.53 1.52 1.52 0 01-1.53-1.53z" fill="#57c278" opacity=".2"/><circle cx="400.63" cy="227.56" r="1.53" fill="#57c278" opacity=".2"/><circle cx="400.63" cy="249.18" r="1.53" fill="#57c278" opacity=".2"/><circle cx="400.63" cy="270.8" r="1.53" fill="#57c278" opacity=".2"/><rect x="223.7" y="142.64" width="143.02" height="24.55" rx="12.28" fill="#57c278" opacity=".2"/><path d="M311 202.84h-75a12.31 12.31 0 01-12.28-12.28A12.31 12.31 0 01236 178.28h75a12.31 12.31 0 0112.27 12.28A12.31 12.31 0 01311 202.84z" fill="#57c278" opacity=".2"/><path d="M333 231.55H226.57a2.88 2.88 0 01-2.87-2.87 2.88 2.88 0 012.87-2.87H333a2.88 2.88 0 012.87 2.87 2.88 2.88 0 01-2.87 2.87zm25.05 0h-10.89a2.88 2.88 0 01-2.87-2.87 2.88 2.88 0 012.87-2.87h10.89a2.88 2.88 0 012.87 2.87 2.88 2.88 0 01-2.87 2.87zm-84.58 6.14h45.77a2.88 2.88 0 012.87 2.87 2.88 2.88 0 01-2.87 2.87h-45.77a2.88 2.88 0 01-2.87-2.87 2.88 2.88 0 012.87-2.87zm-46.9 0h32.77a2.88 2.88 0 012.87 2.87 2.88 2.88 0 01-2.87 2.87h-32.77a2.88 2.88 0 01-2.87-2.87 2.88 2.88 0 012.87-2.87zm64.49 17.62h-64.49a2.88 2.88 0 01-2.87-2.87 2.88 2.88 0 012.87-2.87h64.49a2.88 2.88 0 012.87 2.87 2.88 2.88 0 01-2.87 2.87zm46.94 0h-32.82a2.88 2.88 0 01-2.87-2.87 2.88 2.88 0 012.87-2.87H338a2.88 2.88 0 012.87 2.87 2.88 2.88 0 01-2.87 2.87z" fill="#ebebeb"/><rect x="108.79" y="134.41" width="106.29" height="131.56" rx="6.7" transform="rotate(-10.78 161.933 200.16)" fill="#57c278"/><g opacity=".2" fill="#fff"><path d="M125.12 269.48a.53.53 0 01-.24-.06.51.51 0 01-.2-.68l73.62-137.58a.5.5 0 11.88.48l-73.62 137.57a.51.51 0 01-.44.27z"/><path d="M221.44 251.14a.51.51 0 01-.32-.12l-119-100.9a.49.49 0 01-.06-.7.51.51 0 01.71-.06l119 100.89a.52.52 0 01.06.71.5.5 0 01-.39.18z"/></g><path d="M209.77 264.07s13 45.33 18.34 67.59c5.56 23.38 22.09 58.72 23.47 74.22 1.43.57 6.06-.07 8.53-1.27 0 0-2.26-49.41-15.7-71.91 3-55.39-12-68.63-12-68.63z" fill="#57c278"/><path d="M226.67 286.84l-7.34 11.27c2.33 8.5 4.71 17.36 6.65 25 2.02-13.21.69-36.27.69-36.27z" opacity=".1"/><path d="M236.69 225c.21.62.36 1.06.51 1.58s.28 1 .42 1.48c.27 1 .48 2 .69 3a58.07 58.07 0 01.9 6 48.28 48.28 0 01.26 6.14 45.08 45.08 0 01-.5 6.22v.34a3.76 3.76 0 01-.17.68 10.43 10.43 0 01-2 3.29 13.51 13.51 0 01-2.42 2.1 19.23 19.23 0 01-4.83 2.27 28.71 28.71 0 01-4.68 1 30 30 0 01-4.68.27 2.73 2.73 0 01-1.07-5.2l.23-.11c1.14-.52 2.43-1.07 3.59-1.64a37.11 37.11 0 003.33-1.82 13.38 13.38 0 002.52-2c.62-.64.79-1.22.69-1.26l-.22 1c0-1.66 0-3.31-.1-5s-.31-3.36-.58-5-.56-3.39-.94-5.06c-.18-.84-.39-1.68-.59-2.51l-.31-1.22-.3-1.11-.08-.29a5.42 5.42 0 0110.33-3.15z" fill="#ff8b7b"/><path d="M223.58 254.24l-6.53-1.86a4 4 0 00-2.82.22l-2.44 1.11a2.35 2.35 0 00-1.14 3.16l1.14 2.36a2.34 2.34 0 002.61 1.28l4.38-.95s4.92.32 6.66-2.6z" fill="#ff8b7b"/><path d="M229.49 215.84c-3.5 3.63-5.37 9.1-2.53 19.55 3.74 1.85 12.8-.55 12.8-.55s.13-15.7-10.27-19z" fill="#57c278"/><path d="M229.49 215.84c-3.5 3.63-5.37 9.1-2.53 19.55 3.74 1.85 12.8-.55 12.8-.55s.13-15.7-10.27-19z" fill="#fff" opacity=".7"/><path d="M235.84 223.13a.32.32 0 00-.32.34.33.33 0 00.33.31l1.63-.06c-.09-.21-.19-.43-.29-.64zm-.38 6.46a.33.33 0 00-.46 0 .33.33 0 000 .47l4.7 4c0-.25 0-.55-.05-.9z" fill="#263238"/><path d="M226 230.75l5.29-3.32a.33.33 0 00-.35-.56l-5.06 3.18c-.01.23.04.47.12.7z" fill="#57c278"/><path d="M220.53 200.19c-.66 4.59-1.13 12.92 2.12 15.53 0 0-4.29-.11-12.55 6.52-3-3.4-1.27-4.82-1.27-4.82 4.9-1.8 4.6-5.5 3.57-8.88z" fill="#ff8b7b"/><path d="M207.56 194.58c-.15.6-.59 1-1 1s-.58-.61-.43-1.21.58-1 1-1 .58.63.43 1.21z" fill="#263238"/><path d="M207.29 193.44l-1.31-.67s.44 1.23 1.31.67z" fill="#263238"/><path d="M207.3 195.72a18.13 18.13 0 01-3.07 3.45 2.46 2.46 0 002 .78z" fill="#ff5652"/><path d="M207.05 189.63a.33.33 0 010-.26.36.36 0 01.47-.19 3.77 3.77 0 012.37 2.37.33.33 0 01-.27.41.4.4 0 01-.44-.28 3 3 0 00-1.9-1.86.33.33 0 01-.23-.19z" fill="#263238"/><path d="M227.63 195.9c-2.1 7-2.84 10.08-7.3 13.1-6.72 4.55-14.91.92-15-6.5 0-6.68 3.4-17.09 11.06-18.7a9.43 9.43 0 0111.24 12.1z" fill="#ff8b7b"/><path d="M211.31 196.34c-4.18-3-2.14-8.42 1.69-8.59-5-3.5-2.39-9.83 3.72-9.58s7 4 7 4 9.86.5 11.24 7.66c1.63 8.44-3.52 13.84-9.86 16.34 4.31 3.53-5.85 6-10.91 3.16s-6.99-9.23-2.88-12.99z" fill="#263238"/><path d="M234.5 186.87c-5.37-1-8.07 6.44-4.57 10.78a8.46 8.46 0 001.8 1.7 3.5 3.5 0 005.39-2.67c.29-3.57.28-9.28-2.62-9.81z" fill="#fff"/><path d="M249.09 190.67a1.63 1.63 0 00.71-1.14c.23-2.1-1.36-3.47-3.27-3.77-1.15-3.65-6-3.72-8.73-1.1-2.24-1.14-4.72 1.37-4.42 4-2.35 1-3 5-.82 7.22a5.48 5.48 0 001.3 1 1.79 1.79 0 00.32.13 4.05 4.05 0 003.16 3.39 4.61 4.61 0 001.35.08 1.84 1.84 0 001.5-1.11c1.56 1.28 3.23 2.12 4.42 1.29a3.83 3.83 0 001.7-3.41 2.3 2.3 0 002.24-.08c2.3-1.57 2.1-4.43.54-6.5z" fill="#263238"/><path d="M213.6 197.4a5 5 0 01-3.3 2.4c-1.72.29-2.27-1.69-1.54-3.56.66-1.68 2.35-3.86 4-3.3s1.84 2.85.84 4.46z" fill="#ff8b7b"/><path d="M211.31 192.17c1.47-2.81 9.52-10.48 14.88-10.2a15.82 15.82 0 013.17 1.26.2.2 0 01-.08.38c-2.1.25-8.92 1.83-15.32 11.89a10.26 10.26 0 01-2.65-3.33z" fill="#57c278"/><path d="M214.52 197.88c-1.29 2.87-3.88 4.51-5.79 3.65s-2.41-3.88-1.12-6.76 3.89-4.51 5.8-3.65 2.4 3.88 1.11 6.76z" fill="#fff"/><path d="M212.94 197.17c-1.16 2.59-3.4 4.12-5 3.4s-1.94-3.4-.77-6 3.4-4.12 5-3.41 1.94 3.41.77 6.01z" fill="#57c278"/><path d="M247.27 416.21c5.61-.84 5.72-1.77 8.73-2.83 2.58-.91 3.31-.77 5.39-1.48 1.74-.58 1.15-2.24 0-4a19.92 19.92 0 01-1.29-3.29l-8.53 1.27c-.83 2.38-1.13 5.43-6 7.17-2.89 1.04-.57 3.49 1.7 3.16zm-52.04.02c5.58 0 6.65-.37 9.79-.48 2.69-.09 3.13.48 5.86.48 1.8 0 2.05-2 1.39-3.56a29.31 29.31 0 01-1-4.15h-7.69c-1.39 2.44-5.18 4.24-9.41 4.55-2.99.22-1.17 3.16 1.06 3.16z" fill="#263238"/><path d="M201.75 264.07s-1.11 40.16 1.27 65.67c-.15 23.94.59 78.78.59 78.78.18 1.22 6.61.73 7.69 0 0 0 12-39.94 6.69-78.78 13.37-40.51 10.49-65.67 10.49-65.67zm48.71 138.7a22.07 22.07 0 01.17 3.2.67.67 0 00.67.7c3.2 0 7.61-1.36 9-1.83a.66.66 0 00.44-.62v-3a.66.66 0 00-.77-.66l-9 1.51a.65.65 0 00-.51.7z" fill="#57c278"/><path d="M250.46 402.77a22.07 22.07 0 01.17 3.2.67.67 0 00.67.7c3.2 0 7.61-1.36 9-1.83a.66.66 0 00.44-.62v-3a.66.66 0 00-.77-.66l-9 1.51a.65.65 0 00-.51.7z" fill="#fff" opacity=".5"/><path d="M202.73 405.14c0 .84-.08 2.32-.15 3.41a.69.69 0 00.61.73 45.4 45.4 0 008.49-.09.64.64 0 00.56-.51l.57-3a.7.7 0 00-.66-.82l-8.76-.34a.62.62 0 00-.66.62z" fill="#57c278"/><path d="M202.73 405.14c0 .84-.08 2.32-.15 3.41a.69.69 0 00.61.73 45.4 45.4 0 008.49-.09.64.64 0 00.56-.51l.57-3a.7.7 0 00-.66-.82l-8.76-.34a.62.62 0 00-.66.62z" fill="#fff" opacity=".5"/><path d="M196.67 230.41a137.38 137.38 0 001.91 13.89c1 6 1.7 11.89 3.12 21.81 13.79 1.45 30 .28 30.71-2-1.08-8.59-1-20.19 2-40.14a7.16 7.16 0 00-7.21-8.48c-1.22 0-2.51.08-3.83.18a97.41 97.41 0 00-13.82 1.7c-1.48.32-3 .7-4.48 1.09a11.54 11.54 0 00-8.4 11.95z" fill="#57c278"/><path d="M196.67 230.41a137.38 137.38 0 001.91 13.89c1 6 1.7 11.89 3.12 21.81 13.79 1.45 30 .28 30.71-2-1.08-8.59-1-20.19 2-40.14a7.16 7.16 0 00-7.21-8.48c-1.22 0-2.51.08-3.83.18a97.41 97.41 0 00-13.82 1.7c-1.48.32-3 .7-4.48 1.09a11.54 11.54 0 00-8.4 11.95z" fill="#fff" opacity=".8"/><path d="M199.13 222.39l1.61 2a.32.32 0 00.25.12.31.31 0 00.21-.07.33.33 0 00.05-.46l-1.68-2.11c-.15.13-.3.34-.44.52z" fill="#263238"/><path d="M206.47 221.21a.34.34 0 00.33-.31l.18-3-.67.17-.17 2.75a.33.33 0 00.33.39zm14.37 2.65a.32.32 0 00.19 0 .33.33 0 00.18-.6l-8.41-5.55a.34.34 0 00-.46.09.32.32 0 00.1.45z" fill="#57c278"/><path d="M206.5 225.72a.33.33 0 00.19.43l9.38 3.67h.12a.34.34 0 00.31-.21.33.33 0 00-.19-.42l-9.39-3.68a.33.33 0 00-.42.21z" fill="#263238"/><path d="M201.08 242.43a.33.33 0 00.45-.1l5.47-8.47a.33.33 0 00-.1-.45.32.32 0 00-.45.1L201 242a.34.34 0 00.08.43zM198.4 235a.35.35 0 00.23.09.33.33 0 00.22-.57l-2-1.84c0 .32.06.66.1 1zm29.67 5.63a.34.34 0 00-.2.43.33.33 0 00.31.21.22.22 0 00.11 0l4.16-1.52c0-.24.05-.48.07-.72zm-1.78-6.77a.34.34 0 00.17-.05l7.21-4.53.12-.85-7.68 4.82a.33.33 0 00-.1.45.33.33 0 00.28.16zm-4.92 1.26a.34.34 0 00-.46-.1l-8.53 5.36a.34.34 0 00-.1.46.35.35 0 00.28.15.34.34 0 00.17-.05l8.53-5.36a.34.34 0 00.11-.46z" fill="#57c278"/><path d="M228.56 223.77h.12a.34.34 0 00.19-.43l-3-7.83h-.69l3 8a.33.33 0 00.38.26z" fill="#263238"/><path d="M220.09 264.74a.32.32 0 00-.45.09.34.34 0 00.09.46l1.87 1.23 1.08-.07zm12.06-3.11l-7.28-2.85a.33.33 0 10-.24.61l7.59 3c-.03-.27-.05-.52-.07-.76z" fill="#57c278"/><path d="M201.38 263.8c0 .2.05.4.08.61a.33.33 0 00.21-.29.33.33 0 00-.29-.32z" fill="#263238"/><path d="M201.29 253.74a.33.33 0 00.21-.58l-1.82-1.53c0 .32.09.64.14 1l1.25 1.06a.37.37 0 00.22.05z" fill="#57c278"/><path d="M216.65 250.45a.34.34 0 00.31-.21.33.33 0 00-.19-.42l-9.38-3.68a.33.33 0 00-.43.19.32.32 0 00.19.42l9.38 3.68z" fill="#263238"/><path d="M214.48 254.79l-8.54 5.36a.34.34 0 00-.1.46.32.32 0 00.28.15.34.34 0 00.17-.05l8.54-5.36a.34.34 0 00.1-.46.33.33 0 00-.45-.1z" fill="#57c278"/><path d="M222.35 252.24a.34.34 0 00.28.16.32.32 0 00.18-.06l8.53-5.36a.33.33 0 00-.35-.55l-8.53 5.36a.33.33 0 00-.11.45zM212.69 265a.33.33 0 00-.62.24l.55 1.45h.7z" fill="#263238"/><path d="M205.74 230.6c-.08.66-.14 1.12-.22 1.65s-.18 1-.27 1.52c-.19 1-.41 2-.65 3a54.69 54.69 0 01-1.77 5.81 50.71 50.71 0 01-2.41 5.65 46.41 46.41 0 01-3.13 5.4l-.21.32a2.93 2.93 0 01-.42.5 42.56 42.56 0 01-5.21 4.1c-1.69 1.18-3.42 2.27-5.14 3.33s-3.48 2.06-5.25 3-3.54 1.9-5.39 2.76a2.72 2.72 0 01-3-4.43c1.43-1.35 2.93-2.66 4.39-4l4.42-3.92c1.47-1.28 2.91-2.59 4.33-3.86.7-.64 1.38-1.29 2-1.93l.93-.93c.3-.31.52-.58.79-.87l-.63.82c.74-1.47 1.44-3 2-4.54s1.17-3.18 1.66-4.82 1-3.29 1.34-5c.2-.83.39-1.67.55-2.51l.45-2.37.1-.28a5.42 5.42 0 0110.71 1.62z" fill="#ff8b7b"/><path d="M175.28 263l-5.61-1.66a4.09 4.09 0 00-2.82.19l-2.45 1.09a2.34 2.34 0 00-1.17 3.15l1.12 2.37a2.34 2.34 0 002.6 1.3l4.38-.91a10.94 10.94 0 004.16-.58 2.61 2.61 0 001.22-3.9 2.65 2.65 0 00-1.43-1.05z" fill="#ff8b7b"/><path d="M203.2 219.23c-4.73 1.77-8.77 5.9-10.72 16.55 2.58 3.28 11.79 5 11.79 5s6.88-14.1-1.07-21.55z" fill="#57c278"/><path d="M203.2 219.23c-4.73 1.77-8.77 5.9-10.72 16.55 2.58 3.28 11.79 5 11.79 5s6.88-14.1-1.07-21.55z" fill="#fff" opacity=".8"/><path d="M200.74 224.4a.32.32 0 00.25.12.31.31 0 00.21-.07.33.33 0 00.05-.46l-2-2.49c-.17.14-.34.28-.5.43zm5.76 1.32a.33.33 0 00.19.43h.11c0-.22-.08-.44-.13-.65a.3.3 0 00-.17.22z" fill="#263238"/><path d="M202.74 240.46l3.53-5.47c.13-.52.24-1.05.34-1.6a.31.31 0 00-.16.12l-4.39 6.79zM198.4 235a.35.35 0 00.23.09.33.33 0 00.22-.57L194 230c-.08.22-.16.45-.23.68z" fill="#57c278"/></svg>