<svg xmlns="http://www.w3.org/2000/svg" viewBox="0 0 500 500"><path d="M207.73 108.81c0 .75-.13 1.5-.22 2.24s-.21 1.48-.32 2.24-.21 1.5-.33 2.25-.23 1.51-.3 2.26a4.63 4.63 0 010 .54 4.63 4.63 0 000 .54 4.73 4.73 0 010 .52c0 .18 0 .35-.05.52a2.9 2.9 0 01-.14.65 4.14 4.14 0 01-.26.61 1.5 1.5 0 01-.42.56 1.36 1.36 0 01-.61.31 1.48 1.48 0 01-.93-.13 1.52 1.52 0 01-.66-.62 3 3 0 01-.18-.6 4.6 4.6 0 01-.05-.64 4.85 4.85 0 010-.66v-.65c.06-.66.14-1.32.22-2s.17-1.34.27-2 .19-1.37.29-2.06.19-1.37.25-2.06v-1.18a2.79 2.79 0 000-.58 1.67 1.67 0 00-.15-.54c-.13-.12-.26-.24-.39-.38a3.51 3.51 0 01-.37-.41 1.8 1.8 0 01-.24-.48 1.3 1.3 0 010-.56 2.63 2.63 0 01.19-.77 3 3 0 01.42-.69 2.37 2.37 0 01.6-.54 1.93 1.93 0 01.76-.28 2.24 2.24 0 01.39.14l.37.19a3.77 3.77 0 01.83.66 4.27 4.27 0 01.61.87 4.46 4.46 0 01.38 1 4.52 4.52 0 01.11 1.1 3 3 0 000 .31zm11.9 4.42a1.54 1.54 0 01-.17.51 2 2 0 01-.33.44 1.77 1.77 0 01-.45.3 1.42 1.42 0 01-.53.13h-1.75c0 .25-.06.5-.07.76a6.7 6.7 0 01-.08.77 1.32 1.32 0 01-.25.58 2.4 2.4 0 01-.45.45 2.36 2.36 0 01-.57.35 1.59 1.59 0 01-.64.13 1.12 1.12 0 01-.72-.44 1.84 1.84 0 01-.34-.78 4.08 4.08 0 01-.1-.93v-.89h-1.52a1.17 1.17 0 01-.59-.18 1.36 1.36 0 01-.45-.41 2.35 2.35 0 01-.3-.54 1.22 1.22 0 01-.07-.63 1.48 1.48 0 01.54-.76 2.66 2.66 0 01.85-.4 5.14 5.14 0 011-.16l.93-.09v-.24a8.71 8.71 0 01.15-.89 3.85 3.85 0 01.32-.9 2.39 2.39 0 01.57-.69 1.33 1.33 0 01.89-.27 1.18 1.18 0 01.5.11 1.46 1.46 0 01.41.29 1.26 1.26 0 01.28.4 1.39 1.39 0 01.1.5 6.73 6.73 0 00-.05.89 5.51 5.51 0 01-.07.89h.28a7.44 7.44 0 01.91 0 3.15 3.15 0 01.89.24 1.79 1.79 0 01.67.51 1.12 1.12 0 01.21.95zm7.63-4.42c0 .75-.13 1.5-.22 2.24s-.2 1.48-.32 2.24-.21 1.5-.33 2.25-.23 1.51-.3 2.26a4.63 4.63 0 010 .54 4.63 4.63 0 000 .54 4.73 4.73 0 010 .52c0 .18 0 .35-.05.52a2.9 2.9 0 01-.14.65 4.14 4.14 0 01-.26.61 1.5 1.5 0 01-.42.56 1.36 1.36 0 01-.61.31 1.48 1.48 0 01-.93-.13 1.58 1.58 0 01-.66-.62 3 3 0 01-.18-.6 4.6 4.6 0 01-.05-.64 4.85 4.85 0 010-.66v-.65c.06-.66.14-1.32.22-2s.17-1.34.27-2 .19-1.37.29-2.06.19-1.37.25-2.06v-1.18a2.79 2.79 0 000-.58 1.67 1.67 0 00-.15-.54c-.13-.12-.26-.24-.39-.38a3.51 3.51 0 01-.37-.41 1.8 1.8 0 01-.24-.48 1.3 1.3 0 010-.56 2.63 2.63 0 01.19-.77 3 3 0 01.42-.69 2.37 2.37 0 01.6-.54 1.93 1.93 0 01.76-.28 2.24 2.24 0 01.39.14l.37.19a3.77 3.77 0 01.83.66 4.27 4.27 0 01.61.87 4 4 0 01.38 1 4.52 4.52 0 01.11 1.1 3 3 0 000 .31zm12.64 6.47a1.52 1.52 0 01-.3.56 2.13 2.13 0 01-.46.44 2.29 2.29 0 01-.56.29 1.71 1.71 0 01-.62.12c-1 .07-1.93.1-2.89.09s-1.9 0-2.85-.11a1.54 1.54 0 01-.61-.17 1.75 1.75 0 01-.49-.35 2 2 0 01-.35-.51 1.65 1.65 0 01-.14-.62.69.69 0 01.11-.45 1 1 0 01.31-.32 1.81 1.81 0 01.41-.23l.43-.15a9.23 9.23 0 011-.21 7 7 0 011-.07h.54l.54.05h2.06a1.1 1.1 0 00.31 0h.57a4.28 4.28 0 01.61.09 3.43 3.43 0 01.57.17 1.67 1.67 0 01.47.28 1 1 0 01.28.45 1.41 1.41 0 01.06.65zm.48-4a1 1 0 01-.09.58 1.25 1.25 0 01-.37.42 1.52 1.52 0 01-.53.25 1.6 1.6 0 01-.57 0h-6.54a1.13 1.13 0 01-.57-.12 1.3 1.3 0 01-.43-.34 1.21 1.21 0 01-.23-.5 1.14 1.14 0 010-.58 1 1 0 01.2-.46 1.67 1.67 0 01.36-.34 2.65 2.65 0 01.44-.25l.45-.2a4.85 4.85 0 011-.25l1-.12h.51a4.12 4.12 0 01.51 0h1.32a1.83 1.83 0 00.33 0h.67a4.47 4.47 0 01.87.1 2.83 2.83 0 01.83.3 1.85 1.85 0 01.62.56 1.47 1.47 0 01.22.93zm15.17 8.17a3.67 3.67 0 01-.88.7 6.23 6.23 0 01-1 .48c-.35.13-.71.25-1.07.36s-.72.21-1.06.32c-.8.21-1.6.39-2.42.52a11.3 11.3 0 01-2.46.15 1.31 1.31 0 01-.74-.21 1.69 1.69 0 01-.51-.52 2 2 0 01-.28-.72 3 3 0 010-.78 5.3 5.3 0 01.18-1 7.61 7.61 0 01.33-1 8.72 8.72 0 01.47-.91c.17-.3.35-.59.53-.87l1.39-2 1.4-2c.19-.28.38-.58.56-.89a7.51 7.51 0 00.5-.92 8.93 8.93 0 00.39-1 5.46 5.46 0 00.22-1 .92.92 0 000-.33.86.86 0 00-.11-.28.55.55 0 00-.21-.19.46.46 0 00-.32-.07 4.17 4.17 0 00-.78.1 5.15 5.15 0 00-.76.24l-.69.29a1.79 1.79 0 00-.59.48l-.1.23-.09.21-.07.21a1.26 1.26 0 01-.25.47 2 2 0 01-.38.39 2.16 2.16 0 01-.48.24 1.58 1.58 0 01-.52.09 1.16 1.16 0 01-.68-.15.87.87 0 01-.42-.55 1.54 1.54 0 01-.19-.65 3.29 3.29 0 010-.7 2.54 2.54 0 01.4-1 4.07 4.07 0 01.74-.87 5.83 5.83 0 01.94-.69c.34-.19.68-.37 1-.52a9.57 9.57 0 012.19-.68 10.7 10.7 0 012.26-.16 1.88 1.88 0 011.28.5 3.23 3.23 0 01.78 1.12 5.31 5.31 0 01.43 1.35 7 7 0 01.09 1.45 5.18 5.18 0 01-.39 1.74 11.18 11.18 0 01-.8 1.63l-1.18 1.66c-.39.55-.78 1.09-1.19 1.64s-.73 1.06-1.06 1.6a7.11 7.11 0 00-.77 1.74c.83-.14 1.65-.3 2.47-.48s1.64-.33 2.46-.44a1 1 0 01.61.15 1.8 1.8 0 01.44.43 2 2 0 01.3.49 1.25 1.25 0 01.09.6zm-46.72 89.07a3.62 3.62 0 01-.87.7 6.65 6.65 0 01-1 .48c-.36.13-.71.25-1.08.36l-1.05.32c-.8.21-1.61.39-2.43.52a11.26 11.26 0 01-2.46.15 1.28 1.28 0 01-.73-.21 1.61 1.61 0 01-.52-.52 2.23 2.23 0 01-.27-.72 2.59 2.59 0 010-.78 4.57 4.57 0 01.17-1 6.32 6.32 0 01.34-1 8.63 8.63 0 01.46-.91c.18-.3.35-.59.53-.87l1.39-2 1.41-2 .56-.89a10.36 10.36 0 00.5-.93 8 8 0 00.38-1 4.73 4.73 0 00.22-1 .91.91 0 000-.33.86.86 0 00-.11-.28.55.55 0 00-.21-.19.51.51 0 00-.33-.07 4.17 4.17 0 00-.78.1 4.69 4.69 0 00-.75.24c-.23.09-.46.18-.69.29a1.72 1.72 0 00-.6.48l-.1.23-.09.21-.06.21a1.42 1.42 0 01-.25.47 1.75 1.75 0 01-.39.38 1.57 1.57 0 01-.48.25 1.52 1.52 0 01-.51.09 1.17 1.17 0 01-.69-.15.87.87 0 01-.42-.55 1.4 1.4 0 01-.18-.65 4.1 4.1 0 010-.7 2.54 2.54 0 01.4-1 4.73 4.73 0 01.74-.87 5.91 5.91 0 01.95-.69 10.72 10.72 0 011-.52 9.81 9.81 0 012.2-.68 10.66 10.66 0 012.25-.16 1.86 1.86 0 011.28.5 3 3 0 01.78 1.12 5 5 0 01.43 1.35 7 7 0 01.09 1.45 5.42 5.42 0 01-.38 1.74 12.36 12.36 0 01-.81 1.63l-1.18 1.66c-.38.55-.78 1.09-1.19 1.64s-.72 1.06-1.06 1.6a7.51 7.51 0 00-.77 1.74c.83-.14 1.66-.3 2.48-.48s1.63-.33 2.46-.44a1 1 0 01.6.15 1.63 1.63 0 01.44.43 1.77 1.77 0 01.31.49 1.37 1.37 0 01.07.61zm12.5-6.22a1.34 1.34 0 01-.17.51 2 2 0 01-.33.44 1.77 1.77 0 01-.45.3 1.37 1.37 0 01-.52.13h-1.76c0 .25 0 .5-.07.76a6.7 6.7 0 01-.08.77 1.21 1.21 0 01-.25.58 2.4 2.4 0 01-.45.45 2.5 2.5 0 01-.56.35 1.64 1.64 0 01-.65.13 1.12 1.12 0 01-.72-.44 2 2 0 01-.34-.78 4.73 4.73 0 01-.1-.93v-.89h-1.51a1.24 1.24 0 01-.6-.18 1.36 1.36 0 01-.45-.41 2.77 2.77 0 01-.29-.54 1 1 0 01-.07-.63 1.48 1.48 0 01.54-.76 2.71 2.71 0 01.84-.4 5.28 5.28 0 011-.16l.93-.09v-.24a8.71 8.71 0 01.15-.89 3.46 3.46 0 01.33-.9 2.11 2.11 0 01.57-.69 1.3 1.3 0 01.89-.27 1.14 1.14 0 01.49.11 1.33 1.33 0 01.41.29 1.26 1.26 0 01.28.4 1.21 1.21 0 01.1.5c0 .3-.05.6-.05.89a6.88 6.88 0 01-.06.89h.28a7.18 7.18 0 01.9.05 3.15 3.15 0 01.89.24 1.71 1.71 0 01.67.51 1.12 1.12 0 01.21.9zm14.28 6.22a3.62 3.62 0 01-.87.7 6.33 6.33 0 01-1 .48c-.35.13-.71.25-1.07.36l-1.06.32a24.18 24.18 0 01-2.42.52 11.3 11.3 0 01-2.46.15 1.33 1.33 0 01-.74-.21 1.69 1.69 0 01-.51-.52 2.23 2.23 0 01-.27-.72 2.3 2.3 0 010-.78 4.57 4.57 0 01.17-1 6.32 6.32 0 01.34-1 8.63 8.63 0 01.46-.91c.17-.3.35-.59.53-.87l1.39-2 1.41-2c.18-.28.37-.58.55-.89a8.4 8.4 0 00.51-.93 8 8 0 00.38-1 5.46 5.46 0 00.22-1 .74.74 0 000-.33.85.85 0 00-.1-.28.55.55 0 00-.21-.19.51.51 0 00-.33-.07 4.17 4.17 0 00-.78.1 5.15 5.15 0 00-.76.24c-.23.09-.45.18-.68.29a1.72 1.72 0 00-.6.48l-.1.23-.09.21-.06.21a1.63 1.63 0 01-.25.47 2 2 0 01-.39.38 1.69 1.69 0 01-.48.25 1.52 1.52 0 01-.51.09 1.17 1.17 0 01-.69-.15.87.87 0 01-.42-.55 1.4 1.4 0 01-.18-.65 2.74 2.74 0 010-.7 2.54 2.54 0 01.4-1 4.38 4.38 0 01.74-.87 5.83 5.83 0 01.94-.69c.34-.19.68-.37 1-.52a9.57 9.57 0 012.19-.68 10.75 10.75 0 012.26-.16 1.86 1.86 0 011.28.5 3.23 3.23 0 01.78 1.12 5 5 0 01.43 1.35 7 7 0 01.09 1.45 5.42 5.42 0 01-.38 1.74 12.36 12.36 0 01-.81 1.63l-1.18 1.66c-.38.55-.78 1.09-1.19 1.64s-.72 1.06-1.06 1.6a7.51 7.51 0 00-.77 1.74c.83-.14 1.66-.3 2.47-.48s1.64-.33 2.47-.44a1 1 0 01.6.15 1.63 1.63 0 01.44.43 1.54 1.54 0 01.3.49 1.25 1.25 0 01.07.61zm13.24-4.17a1.66 1.66 0 01-.29.56 2.18 2.18 0 01-.47.44 2.29 2.29 0 01-.56.29 1.94 1.94 0 01-.61.12c-1 .07-1.94.1-2.9.09s-1.9 0-2.85-.11a1.54 1.54 0 01-.61-.17 1.69 1.69 0 01-.83-.86 1.66 1.66 0 01-.15-.62.76.76 0 01.11-.45 1 1 0 01.31-.32 2.06 2.06 0 01.41-.23l.43-.15a9.23 9.23 0 011-.21 7.09 7.09 0 011-.07h.55l.54.05h2.05a1.1 1.1 0 00.31 0h.57a4.28 4.28 0 01.61.09 3.43 3.43 0 01.57.17 1.47 1.47 0 01.47.28 1 1 0 01.28.45 1.41 1.41 0 01.06.65zm.48-4a.92.92 0 01-.09.58 1.25 1.25 0 01-.37.42 1.44 1.44 0 01-.53.25 1.59 1.59 0 01-.57 0h-6.54a1.07 1.07 0 01-.56-.12 1.24 1.24 0 01-.44-.34 1.21 1.21 0 01-.23-.5 1.42 1.42 0 010-.58 1 1 0 01.2-.46 1.67 1.67 0 01.36-.34 2.65 2.65 0 01.44-.26l.45-.2a4.85 4.85 0 011-.25l1-.12h.51a4.12 4.12 0 01.51 0h1.33a1.67 1.67 0 00.32 0h.67a4.47 4.47 0 01.87.1 2.73 2.73 0 01.83.3 1.85 1.85 0 01.62.56 1.47 1.47 0 01.22.94zm14.19 2.92a2.72 2.72 0 01-.37.9 1.57 1.57 0 01-.73.64 2.21 2.21 0 00-.08.37l-.06.37v.82l-.06.82v.79c0 .26-.05.53-.08.8a4.18 4.18 0 01-.16.73 2.47 2.47 0 01-.34.69 2.05 2.05 0 01-.52.54 1.65 1.65 0 01-1.69.12 1.14 1.14 0 01-.61-.73 2.47 2.47 0 01-.16-1c0-.38 0-.75.06-1.1s.09-.82.15-1.2a5.36 5.36 0 00.1-.6l.09-.59a1.13 1.13 0 010-.32 1 1 0 000-.31 3.42 3.42 0 00-.45 0h-.44c-.55 0-1.1 0-1.64-.07a7.61 7.61 0 01-1.58-.3l-.72-.21a5.66 5.66 0 01-.72-.28 3.48 3.48 0 01-.64-.38 2.55 2.55 0 01-.5-.54 1.34 1.34 0 01-.16-.56 4.42 4.42 0 010-.63 7.71 7.71 0 01.32-1.5c.16-.5.34-1 .54-1.47s.46-1 .71-1.47.54-.94.84-1.4q.22-.36.48-.69c.17-.23.35-.44.54-.65s.34-.38.52-.57a1.84 1.84 0 01.65-.41 1.31 1.31 0 01.68.15 2.85 2.85 0 01.55.39 3.5 3.5 0 01.42.57 1.26 1.26 0 01.16.69 5 5 0 01-.49 1.25c-.23.39-.45.79-.67 1.19s-.51.91-.74 1.37a13.52 13.52 0 00-.62 1.4c.5.09 1 .17 1.51.22l1.53.19a10.07 10.07 0 00.16-1.06l.09-1.07c0-.34.06-.69.08-1s0-.71.07-1.05.08-.77.14-1.15a8.1 8.1 0 01.27-1.16 1.7 1.7 0 01.22-.5 1.56 1.56 0 01.37-.4 1.47 1.47 0 01.47-.27 1.33 1.33 0 01.53-.05 1.49 1.49 0 01.67.23 1.8 1.8 0 01.5.45 2 2 0 01.31.62 2.35 2.35 0 01.08.7c0 .45 0 .9-.07 1.35s-.07.9-.12 1.35-.08.91-.13 1.36-.09.91-.13 1.37a2.42 2.42 0 000 .38 1.63 1.63 0 010 .38 1.83 1.83 0 01.73.65 1.5 1.5 0 01.14.84zm47.6 200.04a3.46 3.46 0 01-2.44-.53.71.71 0 010-.84 1 1 0 01.59-.48c1.36-.43 4.29 1.09 4.42 1.16a.19.19 0 01.1.2.19.19 0 01-.15.16 13.18 13.18 0 01-2.52.33zm-1.37-1.54a1.15 1.15 0 00-.37.06.52.52 0 00-.37.29c-.14.25-.08.36 0 .42.41.52 2.48.45 4 .21a9 9 0 00-3.26-.98z" fill="#57c278"/><path d="M313.59 403h-.08c-1-.4-3.05-2.1-2.91-3 0-.23.17-.51.7-.58a1.45 1.45 0 011.1.29c1.08.82 1.39 3 1.4 3.13a.18.18 0 01-.08.18.2.2 0 01-.13-.02zm-2.14-3.25h-.11c-.35 0-.37.18-.38.23 0 .56 1.32 1.9 2.36 2.47a4.58 4.58 0 00-1.19-2.48 1 1 0 00-.68-.22z" fill="#57c278"/><path fill="#ffb573" d="M323.29 406.88l-8.2.33-6.58-36.16-.59-3.27-.4-2.19h12.34l.06.77.36 4.22 3.01 36.3z"/><path d="M314.41 401.8l9-.35a.7.7 0 01.72.53l1.91 7.23a1.2 1.2 0 01-.84 1.47.73.73 0 01-.25 0c-3.24.08-6.12 0-10.14.18-4.75.18-3.52.71-9.1 1-3.36.18-4.13-3.62-2.71-3.86 6.49-1.08 7.09-3.08 9.52-5.51a2.89 2.89 0 011.89-.69zM304 252.81h-.63l-.5-.08-.95-.15c-.62-.11-1.21-.24-1.81-.37-1.18-.27-2.33-.6-3.46-1a54.49 54.49 0 01-6.57-2.56 57.27 57.27 0 01-6.15-3.37c-1-.59-2-1.25-2.91-1.9s-1.82-1.34-2.82-2.1a19.22 19.22 0 01-5.29-6.86 37.85 37.85 0 01-2.45-6.78c-.56-2.21-1.3-16.28-1.31-18.53l5.63-2.39c1.3 3.81 2.81 14.1 4.49 17.75a37.46 37.46 0 002.72 4.82 9.48 9.48 0 002.77 2.87c.75.43 1.64 1 2.46 1.43s1.68.94 2.55 1.35 1.72.85 2.6 1.23 1.76.75 2.63 1.15c1.77.69 3.55 1.33 5.35 1.86.88.28 4.77-1.64 5.65-1.4l1.3.3 1.06.22z" fill="#263238"/><path d="M274.79 206.74l-1.51-6.58-8.55 3.32a10.19 10.19 0 004 5.43 3.13 3.13 0 003.67-.24zm-7.72-10.64l-5.26 4.35 2.92 3.03 8.54-3.33-6.2-4.05z" fill="#ffb573"/><path d="M298.42 246c-.84 7.73-1.2 23.7 3 53.27l43.9-1.75c0-6.21-4.26-24.67-.89-52.45a7.58 7.58 0 00-6.56-8.47h-.27c-2.15-.18-4.54-.32-6.87-.34a161.62 161.62 0 00-18.67.74c-2.39.31-4.72.78-6.72 1.23a9 9 0 00-6.92 7.77z" fill="#263238"/><path d="M326.44 222.06c-.29 5.75.3 12.4 3.73 15.16a67.83 67.83 0 01-16.78 9.45c-6.09-4.78-3-8.3-3-8.3 5.67-2.77 5.49-7 4-11.56L323 220c1.4-1.32 3.54-.06 3.44 2.06z" fill="#ffb573"/><path d="M326.44 222.06c.11-2.11-2-3.38-3.47-2.08l-8.59 6.86a12.21 12.21 0 01.7 6.33 12.09 12.09 0 005.67-.88 12.39 12.39 0 005.72-4.56 44.7 44.7 0 01-.03-5.67z" style="isolation:isolate" opacity=".2"/><path d="M336.31 215.51c-.44 1-.85 1.93-1.22 2.82-2.55 5.85-4.34 9.57-9.38 11.64-8.7 3.58-18.14-3.79-17.44-12.21.63-7.59 5.91-18.6 15.49-18.58 7.49 0 13 5.39 13.41 11.33a10.24 10.24 0 01-.86 5z" fill="#ffb573"/><path d="M313.57 218.31a6.52 6.52 0 006 .53.22.22 0 10-.2-.4 6.17 6.17 0 01-5.54-.53.24.24 0 00-.32.08.23.23 0 00.06.32zm7.99-7.31c-.38.62-1 .92-1.41.67s-.43-.94 0-1.56 1-.92 1.41-.67.38.98 0 1.56zm-7.09-2.83c-.38.62-1 1-1.41.67s-.44-.94-.06-1.56 1-1 1.42-.67.42.95.05 1.56zm9.92 1.6a.44.44 0 01-.22-.4 3.31 3.31 0 00-1.22-2.8.43.43 0 01-.1-.6.42.42 0 01.58-.11 4.21 4.21 0 011.58 3.54.44.44 0 01-.47.4h-.16zm-11.29-5.99a.45.45 0 01-.2-.16.42.42 0 01.1-.62 4.24 4.24 0 013.86-.46.44.44 0 01.19.58.43.43 0 01-.55.2 3.32 3.32 0 00-3.07.4.48.48 0 01-.33.06z" fill="#263238"/><path d="M315.63 211.4c-1.52 1-1.7.82-3.53 1.46a3.7 3.7 0 002.38 1.45z" fill="#ff5652"/><path d="M336.31 215.51c-.44 1-.85 1.93-1.22 2.82a3.7 3.7 0 00-2.16-.15 5.5 5.5 0 00-2.9 2 57.62 57.62 0 012.57-8.52c.35-.89.59-2.37 1.77-2.25a7.2 7.2 0 012.8 1.12 10.24 10.24 0 01-.86 4.98z" opacity=".3"/><path d="M335 222.78a6.65 6.65 0 01-4.36 2.22c-2.09.11-2.38-2.08-1.17-4 1.08-1.73 3.49-3.87 5.28-3.09s1.73 3.26.25 4.87z" fill="#ffb573"/><path style="isolation:isolate" opacity=".2" d="M319.92 366.36l.36 4.22-11.57 1.58-.79-4.38-.7.08-.57-6.85-.05-.6 14.24-.57.37 2.05.74 4.23-2.03.24z"/><path d="M301.41 299.28a222.35 222.35 0 00-1.2 45.26c1 10.81 3 16.27 3 16.27l18 1.08s.4-5.73.54-15.82c-.43-27.93 8.53-47.95 8.53-47.95z" fill="#57c278"/><path d="M324.88 311.51c-7.23 1.87-5.13 14.06-2.66 22.28a130.75 130.75 0 013.7-22.23z" style="isolation:isolate" opacity=".3"/><path d="M376.63 385.36c-.6.87-1.29 1.63-1.88 1.64a.76.76 0 01-.69-.49 1 1 0 010-.77c.48-1.34 3.45-2.77 3.59-2.84a.21.21 0 01.26.1.22.22 0 010 .16 14 14 0 01-1.28 2.2zm-2 .17a1.06 1.06 0 00-.18.33.59.59 0 000 .47c.12.25.25.28.33.28.66 0 1.85-1.72 2.54-3.1a8.62 8.62 0 00-2.72 2z" fill="#57c278"/><path d="M377.86 383.19h-.07c-.94.56-3.51 1.17-4.18.51-.16-.15-.3-.43-.05-.9a1.44 1.44 0 01.92-.7c1.3-.37 3.26.7 3.34.74a.23.23 0 01.1.17.38.38 0 01-.06.18zM374 383l-.07.1c-.17.31-.06.41 0 .43.41.39 2.32.1 3.4-.4a4.64 4.64 0 00-2.71-.54 1 1 0 00-.62.41z" fill="#57c278"/><path fill="#ffb573" d="M386.81 377.77l-4.67 6.76-35.31-23.85 8.55-9.42 31.43 26.51z"/><path d="M377.41 381.82l5.1-7.38a.71.71 0 01.86-.26l6.93 2.82a1.19 1.19 0 01.67 1.55.89.89 0 01-.14.25c-1.88 2.63-4.69 6.37-7 9.72-2.7 3.92-.72 1.5-3.89 6.09-1.92 2.78-5.25 1.61-4.71.27 2.5-6.09 2.09-7.67 1.6-11.06a2.83 2.83 0 01.58-2z" fill="#263238"/><path style="isolation:isolate" opacity=".2" d="M343.83 358.5l8.8 6.1 6.82-9.9-8.37-6.7-7.25 10.5z"/><path d="M317 298.66s4.79 24.4 15.15 46.14c7.72 13.88 12.11 15 12.11 15l13.38-10.09s-2.18-3.47-4.28-11.86c-6.21-27.09-8-40.36-8-40.36z" fill="#57c278"/><path d="M339.16 360.1c0 .06 4.73 3.41 4.73 3.41l16.36-13.34-3.45-3.89zm-15.68-1.42v7.26l-1.52.18-2 .24-12 1.42-.7.08-4.07.48s-1.63-7.94-1.55-7.94l1.4-.11 18.39-1.44z" fill="#263238"/><path fill="#57c278" d="M313.778 261.507l26.284-4.092 5.543 35.601-26.283 4.093z"/><path style="isolation:isolate" opacity=".3" d="M313.778 261.507l26.284-4.092 5.543 35.601-26.283 4.093z"/><path fill="#57c278" d="M337.88 259.47l2.18-2.05 5.55 35.6-2.19 2.06-5.54-35.61z"/><path fill="#57c278" d="M311.601 263.568l26.284-4.092 5.543 35.601-26.284 4.092z"/><path fill="#fff" opacity=".2" d="M311.601 263.568l26.284-4.092 5.543 35.601-26.284 4.092z"/><path d="M313.87 262.06a.74.74 0 01-.22.73 12.48 12.48 0 01-2 .78l26.28-4.1 1.46-1.37z" fill="#57c278"/><path d="M313.87 262.06a.74.74 0 01-.22.73 12.48 12.48 0 01-2 .78l26.28-4.1 1.46-1.37z" fill="#fff" opacity=".8"/><path d="M341.72 238.25a20.7 20.7 0 019.36 8.16c.74.93 2.73 6.37 4 8.29s2.46 3.85 3.58 5.84 2.22 4 3.26 6l.2.38.35.72a10.58 10.58 0 01.63 1.9 8.78 8.78 0 01-.15 4.32 9.37 9.37 0 01-1.65 3.18 12.15 12.15 0 01-1.91 1.95 17.74 17.74 0 01-3.68 2.36 31.91 31.91 0 01-3.51 1.5 51 51 0 01-6.87 1.89 53.57 53.57 0 01-6.9 1l-1.36-6a106.32 106.32 0 0011.22-5.43 24.16 24.16 0 002.35-1.52 11.79 11.79 0 001.67-1.49c.37-.42.34-.77.08-.24a2.09 2.09 0 00-.1 1 2.29 2.29 0 00.07.36l-.06-.09-.21-.32q-3.46-5.34-7.2-10.47c-1.25-1.71-2.51-3.41-3.82-5.09l-1.91-2.5-1.87-2.38z" fill="#263238"/><path d="M342.13 279.71l-6.61-1.35-.58 9.14s5.23.88 8.44-3zm-12.44 2.93L331 286a2.46 2.46 0 002.46 1.57l1.48-.11.57-9.15-4.13 1.06a2.46 2.46 0 00-1.81 3 2 2 0 00.12.27z" fill="#ffb573"/><path d="M311.9 235.88a2.63 2.63 0 000 2.21c.54.86 1.8.82 2.81.67l13.26-2a3.59 3.59 0 002.65-1.22c.73-1.13-.11-2.73-1.34-3.29a7 7 0 00-4-.2 63.49 63.49 0 01-8.65 1.08c-2.48.03-3.84.04-4.73 2.75z" fill="#263238"/><path d="M307.54 241.77a6.54 6.54 0 003 5.85 9.89 9.89 0 006.61 1.37 25.76 25.76 0 0013-6.54c1.1-1.18 2-2.8 1.58-4.35a3.9 3.9 0 00-2.75-2.47 11.16 11.16 0 00-3.83-.19c-4.59.35-16.97-.3-17.61 6.33zm33.66-39.83a11.62 11.62 0 00-2.69 1.43h-.05a8.18 8.18 0 000-3.49.25.25 0 10-.49.12 8.22 8.22 0 010 3 29.56 29.56 0 00-4.73-2.73c-3.73-1.88-4.34-.24-12.82-6.78a4.44 4.44 0 01-3.68.34 8.12 8.12 0 002.39 3.18c-1.5.14-2.38-1.87-3.62-2.46a6.66 6.66 0 01-4.23-.21c1.61 4.8 3.62 4.94 8.05 6.61 2.58 1 5 3.17 7.28 4.7l7.65 5.15c1.09.73 2.32 1.5 3.62 1.3 1.72-.28 2.73-2.17 2.81-3.9a5.64 5.64 0 00-1.86-4.46 11.68 11.68 0 012.47-1.3.24.24 0 00.16-.32.26.26 0 00-.26-.18zm-60.68-3.25l-21.64 6.5a.82.82 0 01-.35 0l-2-.19 1.4-1.25a.87.87 0 01.31-.18l21.52-7.14a.9.9 0 011.12.53l.19.5a.89.89 0 01-.55 1.23z" fill="#263238"/><path fill="#ffb573" d="M269.76 201.92l-5.03-1.09-1.37 1.09 5.49 3.97.91-3.97z"/><path d="M117.91 112.06a8.41 8.41 0 00-6.21 3.76 14.52 14.52 0 00-2.27 7.06 12.75 12.75 0 00.66 5.76 6.75 6.75 0 004 4c2.48.8 5.28-.35 7.06-2.26a16.3 16.3 0 003.42-7c1.31-4.66-.57-11.66-6.66-11.32zm31.49 305.35c-5.61.46-9.67-2.05-10.83-4.7s-3.07-5.32-3.32-2.85a63.38 63.38 0 00.11 7.55l-.87.09s-1-8.24-1.35-11.92a26.09 26.09 0 01-.27-3.53 4.8 4.8 0 012.31-3l6.84 1c4.13 10.53 10.79 13.47 10.79 13.47a12.25 12.25 0 013.74 1.44c2.02 1.32-.61 1.89-7.15 2.45z" fill="#263238"/><path d="M135.55 402.4a12.92 12.92 0 004.16 5.21c1.41.95 2.11 5.3 5.34 6.47a9 9 0 007.76-.64S146.16 410.5 142 400c0 0-6.95.73-6.45 2.4z" fill="#ffb573"/><path d="M112.45 416.77c-5.31-1.8-8-5.73-8-8.61s-.7-6.12-1.91-4a63.9 63.9 0 00-2.91 7l-.82-.25s2.37-8 3.49-11.46a26.53 26.53 0 011.16-3.35 4.89 4.89 0 013.32-1.87l5.88 3.58c-.39 11.3 4.55 16.65 4.55 16.65a12.11 12.11 0 012.85 2.82c1.2 2.15-1.44 1.62-7.61-.51z" fill="#263238"/><path d="M105.71 397.52a12.87 12.87 0 001.76 6.44c.9 1.42-.18 5.7 2.31 8.05a9 9 0 007.38 2.51s-5-5.35-4.55-16.65c0 0-6.78-2.06-6.9-.35zm56.01-226.42l.35.42.46.52c.33.35.65.72 1 1.07.69.72 1.44 1.41 2.19 2.13a60 60 0 004.78 3.95c1.69 1.25 3.46 2.41 5.25 3.55 1 .53 1.82 1.1 2.76 1.62l2.17 1.2a1.44 1.44 0 001 .06c.7-.21 4.72-4.19 6-5.66 2.83-3.26 8.6-8.23 10.91-11.88l1.18 4.28a58.43 58.43 0 01-6.45 12.64 28.85 28.85 0 01-5.1 5.71 14.49 14.49 0 01-3.93 2.35 9.36 9.36 0 01-7.11-.05l-.89-.4-1.62-.73c-1.1-.49-2.14-1.06-3.2-1.6a64.4 64.4 0 01-6.17-3.73 63.3 63.3 0 01-5.74-4.45 36.27 36.27 0 01-2.67-2.59c-.44-.44-.87-.92-1.29-1.4l-.63-.76c-.22-.29-.39-.5-.71-.93z" fill="#ffb573"/><path d="M198.6 168.08l9.31-5.77-.62 9.07s-5.18 2.61-7.82.87z" fill="#ffb573"/><path fill="#ffb573" d="M214.53 161.71l.64 7.6-7.88 2.06.62-9.06 6.62-.6z"/><path fill="#263238" d="M202.558 174.712l54.086-54.693.712.703-54.086 54.693z"/><path d="M207 169.63l1.46.16a8.31 8.31 0 002.23-.08l.68-.6a1.24 1.24 0 00-.86-1.23l-1.08-.35-4.75-2.61-1.35 1.84v2.91l.45.32a2.47 2.47 0 003.22-.36z" fill="#ffb573"/><path d="M152.31 161.41c3.75-.68 30.2 22.26 30.2 22.26l-7.84 11.5s-28.93-20.14-28-25c.88-5.07.17-7.76 5.64-8.76z" fill="#263238"/><path d="M155.64 168.79l-.28 12c3 2.33 13.84 10.64 13.84 10.64z" style="isolation:isolate" opacity=".2"/><path fill="#ffb573" d="M135.55 402.4l7.71.37 3.1-22.7-8.87-.88-1.94 23.21z"/><path opacity=".2" d="M146.36 380.07l-1.45 10.6-8.31-.81.88-10.66 8.88.87z"/><path fill="#ffb573" d="M105.71 397.52l6.98 1.32 2.81-20.57-8.87-.87-.92 20.12z"/><path opacity=".2" d="M115.5 378.6l-1.51 11.06-7.85-1.22.48-10.71 8.88.87z"/><path d="M151.67 213.66h-6.61l-26.81.07c.54-13.88.48-25.11-5.45-52.41a4.62 4.62 0 014.49-5.61c2.77 0 6.24.1 9.76.46a121.52 121.52 0 0116.55 2.5l.63.15a76.88 76.88 0 018.08 2.57c1.71.59 3.79 5.26 5.66 10.6 5.03 8.63-1.12 15.91-6.3 41.67z" fill="#fff"/><path d="M152.91 215.4s18.76 54.27 18.31 80.36c-.26 14.95-1.38 42.81-5.89 62.4-3.68 16-18.68 26.2-18.68 26.2l-12-.71s-6.49-24.4-5.36-34.11c2.25-19.32 8.91-33.85 8.11-51.59-1.28-29.07-9.88-83-9.88-83z" fill="#57c278"/><path d="M131.77 372.4s0-.11.08-.11c10.71 0 23-25 22.41-69.21l-4.9-37.08z" style="isolation:isolate" opacity=".2"/><path d="M143.3 215.54s11.41 59.68 7.8 85.53c-2.06 14.81-6.55 42.32-13.4 61.23-5.58 15.42-21.7 23.75-21.7 23.75l-11.86-2.16s-3.49-25-1.2-34.51c4.57-18.91 13-32.53 14.29-50.24 2.24-29 .23-83.6.23-83.6z" fill="#57c278"/><path fill="#263238" d="M132.23 386.78l16.95 1.01 1.55-5.1-18.94-1.75.44 5.84zm-29.09-1.57l16.74 2.82 2.09-4.9-18.65-3.77-.18 5.85z"/><path d="M118.12 212.05l-.92 3.25c-.13.26.17.51.59.51l34.49-.05c.33 0 .61-.16.63-.36l.32-3.26c0-.22-.27-.41-.63-.41l-33.89.05a.65.65 0 00-.59.27z" fill="#57c278"/><path d="M118.12 212.05l-.92 3.25c-.13.26.17.51.59.51l34.49-.05c.33 0 .61-.16.63-.36l.32-3.26c0-.22-.27-.41-.63-.41l-33.89.05a.65.65 0 00-.59.27z" fill="#fff" opacity=".5"/><path d="M124.71 216.11h-1c-.18 0-.34-.1-.32-.22l.45-4.23c0-.12.18-.22.38-.22h1c.19 0 .35.1.33.23l-.45 4.22c-.03.11-.2.22-.39.22zm24.9 0h-1c-.19 0-.34-.1-.33-.22l.45-4.22c0-.13.19-.23.38-.23h1c.19 0 .34.1.33.22l-.45 4.22c.01.12-.18.23-.38.23zm-11.4-.03h-1c-.19 0-.34-.1-.32-.22l.45-4.22c0-.13.18-.23.37-.22h1c.19 0 .35.1.33.22l-.45 4.22c-.02.14-.18.23-.38.22z" fill="#57c278"/><path d="M128.61 138c1.06 5.44 2.1 15.28-1.59 18.25 0 0 1.47 5.58 11.36 7.07 10.92 1.65 5.19-4.57 5.19-4.57-5.94-2.36-5.8-6.65-4.77-10.61z" fill="#ffb573"/><path d="M132.76 142.13l6 6a16.14 16.14 0 00-.5 2.83c-2.27-.66-5.93-3.17-6.18-5.57a8.29 8.29 0 01.68-3.26z" style="isolation:isolate" opacity=".2"/><path d="M121.94 131.1c2.67 8.47 3.62 12.11 9.1 15.44 8.19 5 18-.13 17.91-9.21-.08-8.18-4.43-20.64-13.73-22a12.1 12.1 0 00-13.28 15.74z" fill="#ffb573"/><path d="M142.12 129.78a18.83 18.83 0 003.42 4 3.14 3.14 0 01-2.43 1z" fill="#ed893e"/><path d="M141.17 139.3a5.8 5.8 0 001-.19.2.2 0 00.15-.24.22.22 0 00-.25-.16 5.65 5.65 0 01-5.06-1 .22.22 0 00-.3 0 .23.23 0 000 .31 6 6 0 004.46 1.28z" fill="#263238"/><path d="M117.33 118.25a8.22 8.22 0 00-3.74 6.56 3 3 0 00.23 1.46 1.42 1.42 0 001.14.85c.76 0 1.33-.67 1.74-1.31l1.94-3a15 15 0 002-3.2c.65-1.97-2.12-2.11-3.31-1.36z" fill="#57c278"/><path d="M120 116.21c-5.32 6.13-7.69 23.12 7.86 27.86 2.6-2-1.6-5.8-3.38-10.54-1.16-3.11 4.76-8.9 7.08-11.27s4.43-5.81 7.7-5.26a4.48 4.48 0 002.56.07c2.59-1.17 1.33-2.72 0-3.81a13.51 13.51 0 00-7.05-2.58 17.31 17.31 0 00-14.77 5.53z" fill="#263238"/><path d="M123.34 134l-.43-.46c0-.5 0-.5 8.68-3.23l.3 1c-3 .93-7.85 2.47-8.23 2.66l-.21-.44z" fill="#57c278"/><path d="M121 138.21a6.55 6.55 0 004.16 2.7c2.24.4 3.11-1.66 2.33-3.66-.72-1.79-2.76-4.17-4.92-3.65a2.91 2.91 0 00-2.1 3.54 3.07 3.07 0 00.53 1.07z" fill="#ffb573"/><path d="M136.17 114.68c1.21 3.07 4.7 2.67 7.29 5.89 1.58 2 4.7-4.17.46-6.61s-9.64-4.1-7.75.72zm-3.67 12.99a.38.38 0 00.42-.24c.83-1.83 3.29-2.28 3.31-2.29a.42.42 0 00.34-.49.44.44 0 00-.5-.34c-.12 0-2.93.59-3.92 2.79a.42.42 0 00.2.56h.15zm13-3.67a.42.42 0 00.26-.77 4.24 4.24 0 00-3.83-.49.43.43 0 00-.23.56.41.41 0 00.56.22 3.34 3.34 0 013 .42.57.57 0 00.24.06zm41.11 54.74l-5.85 3.33-6.09 13.1s5.88 3.74 10.51.71 1.43-17.14 1.43-17.14zm-41.52-51.35c.48-.09 1 .45 1.11 1.19s-.16 1.42-.64 1.5-1-.45-1.11-1.19.16-1.41.64-1.5z" fill="#263238"/><path d="M146.57 126.66l-1.69.83c1.02.72 1.69-.83 1.69-.83zm-9.85 2.44c.48-.09 1 .45 1.11 1.19s-.16 1.42-.64 1.5-1-.45-1.11-1.19.16-1.41.64-1.5z" fill="#263238"/><path d="M138.2 128.37l-1.69.83c1.02.72 1.69-.83 1.69-.83zm-26.29-13.97c.08-1.93 1-4.25-.17-5.76 2.09 1.69 1.67 2.66 1.85 3.15a15.36 15.36 0 00-1.13-4.79 6.8 6.8 0 012.48 4.33 24 24 0 00-1.18-5.12 9 9 0 012.87 6.06c0-1.06 0-2.11-.07-3.17a15 15 0 01.91 3.21 10.49 10.49 0 01-.14 3.44 4.42 4.42 0 01-1.55 2.89 2.88 2.88 0 01-3.15.28c-2.4-1.48-.79-2.78-.72-4.52z" fill="#263238"/><path d="M138.07 133.58a3 3 0 01-.41 0l-4.68-.89a2.16 2.16 0 01-1.73-1.72 2.19 2.19 0 011.69-2.56l6-1.27a2.18 2.18 0 012.52 1.44l.09.26a2.16 2.16 0 01-.34 2l-1.45 1.9a2.16 2.16 0 01-1.69.84zm1.36-5.52a1 1 0 00-.24 0l-6 1.27a1.19 1.19 0 00-.92 1.38 1.17 1.17 0 00.94.94l4.68.89a1.18 1.18 0 001.16-.45l1.45-1.9a1.16 1.16 0 00.18-1.09l-.09-.26a1.17 1.17 0 00-1.16-.78zm6.73 3.11a2.38 2.38 0 01-.65-.1l-2.28-.71a2.21 2.21 0 01-1.45-1.46l-.07-.26a2.18 2.18 0 011.22-2.63l4.66-1.77a2.18 2.18 0 012.84 1.12 2.14 2.14 0 01-.42 2.4l-2.26 2.71a2.18 2.18 0 01-1.59.7zm2.28-6.1a1.27 1.27 0 00-.47.09l-4.66 1.78a1.18 1.18 0 00-.65 1.41l.08.26a1.19 1.19 0 00.78.79l2.28.71a1.16 1.16 0 001.21-.31l2.26-2.7a1.19 1.19 0 00.25-1.33 1.18 1.18 0 00-1.08-.7z" fill="#57c278"/><path d="M115.78 226.41a18.33 18.33 0 001.55 6.13c1.86 3.57 6 5.52 10 5.88s8-.63 11.91-1.61c-.46-19.78-.92-39.61-3.47-59.23-1-7.72-4.56-19.9-6.9-24.23 0 0-17.16 1.52-21.29 5.49-4.43 4.26 1 11.62 1.65 17q3.26 25.29 6.55 50.57zm40.85-15l1.75 16.34a7.78 7.78 0 01-6.49 8.49l-5 .8c-.53-14.55-.85-40-.85-49.14 0-12.86-2.76-23-4.58-30.22 4.13 1 8 2.8 10.83 3.73 1.71.59 4.38 5.16 6.25 10.5 5.09 8.61-1.54 26.65-1.91 39.5z" fill="#263238"/><path d="M87.87 196.46l14.82.34-.49-1.1a5.07 5.07 0 01.82-5.42c5.4-6.12 19-21.88 18.91-24.92-.22-4.32-4.77-7.25-9.92-7.15-3.8.08-14.37 16.69-20.81 24.93-5.69 7.3-3.33 13.32-3.33 13.32z" fill="#263238"/><path d="M98.73 197.4a112.52 112.52 0 0119.71 20.23l3.06 3.44-5.5 3.6s-17.4-11.83-21.46-16.32a23.65 23.65 0 01-5.21-9.69z" fill="#ffb573"/><path d="M106.7 202.74l-4.15-5.89-15-1.69s-2.86 6.61 3.44 10.45c4.72 2.88 15.71-2.87 15.71-2.87z" fill="#263238"/><path d="M114 216.64l10.46 3.24-7.26 5.47s-5.36-2.2-5.78-5.33z" fill="#ffb573"/><path fill="#ffb573" d="M129.23 224.5l-5.32 5.46-6.72-4.61 7.25-5.47 4.79 4.62z"/></svg>