<svg xmlns="http://www.w3.org/2000/svg" viewBox="0 0 500 500"><path fill="#263238" d="M375.18 410.97h-4.79l-1.05-73.08h6.89l-1.05 73.08z"/><path fill="#fff" opacity=".5" d="M375.18 410.97h-4.79l-1.05-73.08h6.89l-1.05 73.08z"/><path fill="#263238" d="M332.88 410.97h-4.8l-1.04-73.08h6.89l-1.05 73.08z"/><path fill="#fff" opacity=".5" d="M332.88 410.97h-4.8l-1.04-73.08h6.89l-1.05 73.08z"/><path fill="#263238" d="M323.06 410.97h-4.79l-1.05-73.08h6.89l-1.05 73.08z"/><path fill="#fff" opacity=".5" d="M323.06 410.97h-4.79l-1.05-73.08h6.89l-1.05 73.08z"/><path fill="#263238" d="M280.76 410.97h-4.8l-1.04-73.08h6.89l-1.05 73.08z"/><path fill="#fff" opacity=".5" d="M280.76 410.97h-4.8l-1.04-73.08h6.89l-1.05 73.08z"/><path d="M352.2 339.57h-77.75a6.41 6.41 0 01-6.41-6.41v-8.54a6.41 6.41 0 016.41-6.4h68.84l5.93-56.42a13.84 13.84 0 0113.44-12.16h28.89l-6.9 21.06-6.3 47.17-4.43 13.18z" fill="#57c278"/><path d="M352.2 339.57h-77.75a6.41 6.41 0 01-6.41-6.41v-8.54a6.41 6.41 0 016.41-6.4h68.84l5.93-56.42a13.84 13.84 0 0113.44-12.16h28.89l-6.9 21.06-6.3 47.17-4.43 13.18z" opacity=".2"/><path d="M393.94 249.64h-5.77a13.83 13.83 0 00-13.43 12.16l-5.93 56.42h-42.42a6.41 6.41 0 00-6.4 6.4v8.54a6.41 6.41 0 006.4 6.41h51.32a7.88 7.88 0 007.84-7.06l6.72-63.94a10.74 10.74 0 0010.5-10.05 8.72 8.72 0 00-8.83-8.88z" fill="#57c278"/><path fill="#ebb376" d="M282.42 380.78l3.33 21.76 6.87-.59-.96-21.96-9.24.79z"/><path d="M292.86 393.44s.33 5.62 1.68 8.42 3.22 6.52-1.35 6.93c-2.7.24-7.42 1.36-12.59 1.86-3.57.34-8.46 0-8.63-1.89-.2-2.19 12.46-6.78 12.41-8.89s-.62-5.75-.62-5.75z" fill="#263238"/><path d="M292.86 393.44s.33 5.62 1.68 8.42 3.22 6.52-1.35 6.93c-2.7.24-7.42 1.36-12.59 1.86-3.57.34-8.46 0-8.63-1.89-.2-2.19 12.46-6.78 12.41-8.89s-.62-5.75-.62-5.75z" fill="#fff" opacity=".1"/><path d="M327.19 277.27l-1.86 15.48s-52.83 4.64-55.84 17.85c-2.85 12.56 12.74 76.33 12.74 76.33l10.55-1.05s1.47-49.31-3.15-66.9c0 0 40.16-.3 53.55 0 6 .14 21.39-.06 17.58-17.56-4.34-20-8.93-24.15-8.93-24.15l-.16-8.76h-24z" fill="#57c278"/><path d="M327.19 277.27l-1.86 15.48s-52.83 4.64-55.84 17.85c-2.85 12.56 12.74 76.33 12.74 76.33l10.55-1.05s1.47-49.31-3.15-66.9c0 0 40.16-.3 53.55 0 6 .14 21.39-.06 17.58-17.56-4.34-20-8.93-24.15-8.93-24.15l-.16-8.76h-24z" fill="#fff" opacity=".2"/><path d="M281.21 387.2l.88 2.59a1.12 1.12 0 001.15.74l9.21-.85a1.1 1.1 0 001-1l.17-2.68a1.11 1.11 0 00-1.21-1.16l-10.26.94a1.1 1.1 0 00-.94 1.42z" fill="#57c278"/><path d="M281.21 387.2l.88 2.59a1.12 1.12 0 001.15.74l9.21-.85a1.1 1.1 0 001-1l.17-2.68a1.11 1.11 0 00-1.21-1.16l-10.26.94a1.1 1.1 0 00-.94 1.42z" fill="#fff" opacity=".6"/><path fill="#ebb376" d="M302.66 380.34l1.47 21.97h6.89l.92-21.97h-9.28z"/><path d="M311.81 395.65s-.18 5.63.92 8.54 2.63 6.78-2 6.78c-2.7 0-7.49.06-12.6-.32-3.58-.26-8.53.32-8.53-1.61 0-2.2 13.39-5.77 13.52-7.87s0-5.64 0-5.64z" fill="#263238"/><path d="M335.46 277.27l-1.69 15.48s-32.86 4.47-38.13 12.34 7.11 85.31 7.11 85.31h9.19c6.56-43 3.15-71.48 3.15-71.48h41.21c26.25 0 2.89-41.65 2.89-41.65l.1-9.2-24.29 1.4z" fill="#57c278"/><path d="M335.46 277.27l-1.69 15.48s-32.86 4.47-38.13 12.34 7.11 85.31 7.11 85.31h9.19c6.56-43 3.15-71.48 3.15-71.48h41.21c26.25 0 2.89-41.65 2.89-41.65l.1-9.2-24.29 1.4z" fill="#fff" opacity=".3"/><path d="M301.07 388.9l.69 2.83a1 1 0 001 .77h9.15a1 1 0 001-.79l.61-2.84a1 1 0 00-1-1.22h-10.46a1 1 0 00-.99 1.25z" fill="#57c278"/><path d="M301.07 388.9l.69 2.83a1 1 0 001 .77h9.15a1 1 0 001-.79l.61-2.84a1 1 0 00-1-1.22h-10.46a1 1 0 00-.99 1.25z" fill="#fff" opacity=".6"/><path d="M288.27 268.44l-7.44 1.45-7-2.05a5.72 5.72 0 00-5.2 2.05 6.69 6.69 0 00-1.56 4.32v.27h14.39l7.81-1.05z" fill="#ebb376"/><path d="M328.47 225.41a1.74 1.74 0 00-3-1.14c-2.4 2.36-5.85 5.13-7.46 20-2.07 19.15-34 23.9-34 23.9l1.52 7s23.52.8 33.26-9.36c12.6-13.05 10.76-32.64 9.68-40.4z" fill="#57c278"/><path d="M328.47 225.41a1.74 1.74 0 00-3-1.14c-2.4 2.36-5.85 5.13-7.46 20-2.07 19.15-34 23.9-34 23.9l1.52 7s23.52.8 33.26-9.36c12.6-13.05 10.76-32.64 9.68-40.4z" fill="#fff" opacity=".2"/><path d="M357.09 194.5c-2.89-19.37-19.2-12.39-19.2-12.39-10.54 3.8-7 16.89-7 24s-.9 9.57-.9 9.57c1.22-.27 2.35-.5 3.44-.72l.38-2.23.66 2c8.86-1.69 13.64-1.67 16.22-1.13a15 15 0 001.55-4.22s1.26.82 0 4.7c1.53.69 1.46 1.58 1.46 1.58s6.3-1.79 3.39-21.16z" fill="#263238"/><path d="M367.11 223.16l-38.11-.45a3.75 3.75 0 00-3.75 3.09c-4.5 24.88-1.43 24-1.43 24l1.92 30.45H330a5.39 5.39 0 005.29-4.33l.43-2.14 1.13 3a5.39 5.39 0 005 3.49h19.45c-2.26-23.38 5.15-45.94 7.73-54.37a2.09 2.09 0 00-1.92-2.74z" fill="#57c278"/><path d="M367.11 223.16l-38.11-.45a3.75 3.75 0 00-3.75 3.09c-4.5 24.88-1.43 24-1.43 24l1.92 30.45H330a5.39 5.39 0 005.29-4.33l.43-2.14 1.13 3a5.39 5.39 0 005 3.49h19.45c-2.26-23.38 5.15-45.94 7.73-54.37a2.09 2.09 0 00-1.92-2.74z" fill="#fff" opacity=".4"/><path d="M283 268.06l1.41 7.38a1.08 1.08 0 001.1.87l1.42-.06a1.06 1.06 0 001-1.22l-1.17-7.86a1.07 1.07 0 00-1.39-.87l-1.67.54a1.08 1.08 0 00-.7 1.22z" fill="#57c278"/><path d="M283 268.06l1.41 7.38a1.08 1.08 0 001.1.87l1.42-.06a1.06 1.06 0 001-1.22l-1.17-7.86a1.07 1.07 0 00-1.39-.87l-1.67.54a1.08 1.08 0 00-.7 1.22z" fill="#fff" opacity=".6"/><path d="M349 204.66c-.56 5.1-.74 14.36 3.06 17.4 0 0-1.45 5.15-11.22 6.11-6.94-3.06-4.36-4.76-4.36-4.76 5.47-1.85 6-5.95 4.76-9.76z" fill="#ebb376"/><path d="M348.14 210.33l-2-.52-2.48 1-2.44 2.82a10.54 10.54 0 01.55 3c5.38-.82 6.37-6.3 6.37-6.3z" opacity=".1"/><path d="M352.58 193.39c.24 8.41.53 12-3.3 16.64-5.77 7-16.15 5.5-18.91-2.67-2.48-7.35-2.47-19.86 5.41-23.94a11.49 11.49 0 0116.8 10z" fill="#ebb376"/><path d="M355.16 199.82a6.14 6.14 0 01-2.62 3.9c-1.81 1.18-3.36-.28-3.4-2.33 0-1.83.87-4.66 2.94-5a2.78 2.78 0 013.08 3.45z" fill="#ebb376"/><path d="M334.57 198.56a18.7 18.7 0 01-2 4.57 2.91 2.91 0 002.46.24z" fill="#d58745"/><path d="M340.22 193.75a.31.31 0 00.15-.1.34.34 0 000-.47 3.87 3.87 0 00-3.44-1 .34.34 0 00-.24.41.33.33 0 00.4.24 3.27 3.27 0 012.84.87.35.35 0 00.29.05zm-11.74.75a.39.39 0 01-.16-.07.33.33 0 01-.05-.47 3.91 3.91 0 013.27-1.5.34.34 0 01.29.37.33.33 0 01-.36.29 3.27 3.27 0 00-2.69 1.27.32.32 0 01-.3.11zm10.79 2.5c.07.68-.25 1.26-.7 1.31s-.85-.47-.91-1.16.25-1.26.69-1.31.86.47.92 1.16zm-7.7.7c.07.67-.25 1.26-.69 1.3s-.85-.48-.92-1.16.25-1.26.69-1.3.87.46.92 1.16z" fill="#2e353a"/><path d="M330.85 196.55l-1.67-.32s.95 1.2 1.67.32zm7.7-.7l-1.67-.32s.95 1.2 1.67.32z" fill="#2e353a"/><path d="M334.61 206.07a6.8 6.8 0 005.64-1.93s2.5 4.55-4.24 5.29a6 6 0 00-1.4-3.36z" fill="#263238"/><path d="M335.21 206.12l.49 1s3.18 0 4.87-2.19a4.73 4.73 0 00-.32-.83 6.77 6.77 0 01-5.04 2.02z" fill="#fff"/><path d="M336.47 209.36c3.3-.48 4.16-2 4.23-3.22-3.26.86-4.05 2.49-4.23 3.22z" fill="#de5753"/><path d="M337.89 186.7a8.13 8.13 0 01-6.06 4.2c-4.54.79-2.92 12.64-2.92 12.64s-9.81-23.92 11.55-22.22z" fill="#263238"/><path d="M341 181.78a2.62 2.62 0 00-3.18 2.21c-.25 2 .17 4.5 3.4 5.54 5.71 1.83 5.18 7.87 5.18 7.87l1-4.48s.32 6.4 3.54 5.64 3.54-6.8 3.54-6.8l-5.32-8.14z" fill="#263238"/><path d="M337.38 221.77a.43.43 0 01.58.5c-.38 1.65-.71 5.23 3.64 5.23s8.26-3.55 9.93-5.26a1.85 1.85 0 012-.43l1.14.45a.89.89 0 01.43 1.29c-1.93 3.2-8.85 13.4-14.44 5.13 0 0-3.25 5-5.25.53a8.37 8.37 0 01-.45-5.36 2.49 2.49 0 011.54-1.75z" fill="#57c278"/><path d="M337.38 221.77a.43.43 0 01.58.5c-.38 1.65-.71 5.23 3.64 5.23s8.26-3.55 9.93-5.26a1.85 1.85 0 012-.43l1.14.45a.89.89 0 01.43 1.29c-1.93 3.2-8.85 13.4-14.44 5.13 0 0-3.25 5-5.25.53a8.37 8.37 0 01-.45-5.36 2.49 2.49 0 011.54-1.75z" fill="#fff" opacity=".6"/><path d="M317.81 227.82a1.24 1.24 0 111.37 2.06l-18.09 12a1.23 1.23 0 11-1.36-2.06z" fill="#263238"/><path d="M317.81 227.82a1.24 1.24 0 111.37 2.06l-18.09 12a1.23 1.23 0 11-1.36-2.06z" fill="#fff" opacity=".6"/><path d="M299.73 239.79a8.65 8.65 0 00-1.44 2 .39.39 0 00.39.58 8.69 8.69 0 002.41-.53 1.23 1.23 0 10-1.36-2.06z" fill="#263238"/><path d="M299.73 239.79a8.65 8.65 0 00-1.44 2 .39.39 0 00.39.58 8.69 8.69 0 002.41-.53 1.23 1.23 0 10-1.36-2.06z" fill="#fff" opacity=".8"/><path d="M324.71 247.78l-7.89-5.53-1.82-7.57a4 4 0 00-3-3 4 4 0 00-4.64 2.52l-.61 1.64a4.07 4.07 0 00-.25 1.39v1.39a4 4 0 001.05 2.7l1.08 1.18a4.06 4.06 0 001 .79l4.68 2.61 7.39 7.38z" fill="#ebb376"/><path d="M365.06 225.36a3.05 3.05 0 015.16-1c1.67 2.06 2.63 6-.22 13.77-5.69 15.45-14.75 27.58-26.1 27.58-13.46 0-27.08-15.58-27.08-15.58l4.72-5.56s13.67 9.27 22.79 9.27c5.21.04 13.67-10.08 20.73-28.48z" fill="#57c278"/><path d="M365.06 225.36a3.05 3.05 0 015.16-1c1.67 2.06 2.63 6-.22 13.77-5.69 15.45-14.75 27.58-26.1 27.58-13.46 0-27.08-15.58-27.08-15.58l4.72-5.56s13.67 9.27 22.79 9.27c5.21.04 13.67-10.08 20.73-28.48z" fill="#fff" opacity=".2"/><path d="M315.64 249.56l5.32-6.42a.55.55 0 01.75-.09l2.28 1.66a.55.55 0 01.1.8l-6 7.21a.55.55 0 01-.89-.05l-1.62-2.45a.56.56 0 01.06-.66z" fill="#57c278"/><path d="M315.64 249.56l5.32-6.42a.55.55 0 01.75-.09l2.28 1.66a.55.55 0 01.1.8l-6 7.21a.55.55 0 01-.89-.05l-1.62-2.45a.56.56 0 01.06-.66z" fill="#fff" opacity=".6"/><path d="M340.2 181.24h-1.87v.07a14 14 0 0112.54 13.92h3.32a14 14 0 00-13.99-13.99z" fill="#263238"/><path d="M340.2 181.24h-1.87v.07a14 14 0 0112.54 13.92h3.32a14 14 0 00-13.99-13.99z" fill="#fff" opacity=".6"/><ellipse cx="352.58" cy="200.08" rx="4.54" ry="6.07" fill="#57c278"/><path d="M357.64 200.08c0 2.71-.82 4-3 4s-3-1.27-3-4 .83-4 3-4 3 1.28 3 4z" fill="#263238"/><path d="M357.64 200.08c0 2.71-.82 4-3 4s-3-1.27-3-4 .83-4 3-4 3 1.28 3 4z" fill="#fff" opacity=".5"/><ellipse cx="355.3" cy="200.08" rx="2.7" ry="3.61" fill="#263238"/><ellipse cx="355.3" cy="200.08" rx="2.7" ry="3.61" fill="#fff" opacity=".7"/><path fill="#263238" d="M170.08 410.97h-4.79l-2.1-125.3h8.99l-2.1 125.3z"/><path fill="#fff" opacity=".7" d="M170.08 410.97h-4.79l-2.1-125.3h8.99l-2.1 125.3z"/><path fill="#263238" d="M222.99 410.97h-4.8l-2.1-125.3h9l-2.1 125.3z"/><path fill="#fff" opacity=".7" d="M222.99 410.97h-4.8l-2.1-125.3h9l-2.1 125.3z"/><path fill="#263238" d="M167.68 283.57h90.44v9.8h-90.44z"/><path fill="#fff" opacity=".5" d="M167.68 283.57h90.44v9.8h-90.44z"/><path fill="#263238" d="M258.13 283.57h53.04v9.8h-53.04z"/><path fill="#fff" opacity=".5" d="M258.13 283.57h53.04v9.8h-53.04z"/><path fill="#263238" d="M313.43 410.97h-4.8l-2.1-125.3h8.99l-2.09 125.3z"/><path fill="#fff" opacity=".7" d="M313.43 410.97h-4.8l-2.1-125.3h8.99l-2.09 125.3z"/><rect x="245.09" y="277.27" width="75.92" height="8.4" rx="2.65" fill="#263238"/><rect x="155.74" y="277.27" width="101.17" height="8.4" rx="2.65" fill="#263238"/><rect x="155.74" y="277.27" width="101.17" height="8.4" rx="2.65" fill="#fff" opacity=".2"/><path fill="#263238" d="M260.52 410.97h-4.79l-2.1-125.3h8.99l-2.1 125.3z"/><path fill="#fff" opacity=".7" d="M260.52 410.97h-4.79l-2.1-125.3h8.99l-2.1 125.3z"/><path d="M258 277.28a1.4 1.4 0 010-2.8h38.15a1.4 1.4 0 010 2.8z" fill="#57c278"/><path d="M261.28 274.86l-5.08-36.14a2.86 2.86 0 00-2.75-2.4h-4.86v40.95h10.62a2 2 0 002.07-2.41z" fill="#57c278"/><path d="M257.11 277.27H214a2.85 2.85 0 01-2.74-2.41l-5.08-36.14a2 2 0 012.07-2.4h43.13a2.87 2.87 0 012.75 2.4l5.08 36.14a2 2 0 01-2.1 2.41z" fill="#57c278"/><path d="M257.11 277.27H214a2.85 2.85 0 01-2.74-2.41l-5.08-36.14a2 2 0 012.07-2.4h43.13a2.87 2.87 0 012.75 2.4l5.08 36.14a2 2 0 01-2.1 2.41z" fill="#fff" opacity=".7"/><path d="M234.77 255.81a1.87 1.87 0 01-1.89 2.2 2.63 2.63 0 01-2.51-2.2 1.87 1.87 0 011.89-2.2 2.61 2.61 0 012.51 2.2z" fill="#fff" opacity=".7"/><path d="M197.75 256.46h-16.66a1.81 1.81 0 00-1.78 2.13v.15a4.63 4.63 0 00-2.52.08c-3 .9-3.09 3.58-2.19 6.59s2.44 5.2 5.45 4.3a5.41 5.41 0 001.37-.64 8.45 8.45 0 002.8 3.53v2.2h10.34v-2.2a8.37 8.37 0 003.32-5.26l1.62-8.75a1.81 1.81 0 00-1.75-2.13zm-18.09 11.34c-2 .59-3-.85-3.58-2.83s-.53-3.73 1.44-4.32a2.89 2.89 0 012.2.16l1.17 6.32a3.23 3.23 0 01-1.23.67z" fill="#57c278"/><path d="M197.75 256.46h-16.66a1.81 1.81 0 00-1.78 2.13v.15a4.63 4.63 0 00-2.52.08c-3 .9-3.09 3.58-2.19 6.59s2.44 5.2 5.45 4.3a5.41 5.41 0 001.37-.64 8.45 8.45 0 002.8 3.53v2.2h10.34v-2.2a8.37 8.37 0 003.32-5.26l1.62-8.75a1.81 1.81 0 00-1.75-2.13zm-18.09 11.34c-2 .59-3-.85-3.58-2.83s-.53-3.73 1.44-4.32a2.89 2.89 0 012.2.16l1.17 6.32a3.23 3.23 0 01-1.23.67z" fill="#fff" opacity=".5"/><path d="M195 277.39h-11.19a4.2 4.2 0 01-2-.5l-3.8-2.08a.77.77 0 01.37-1.44h22a.77.77 0 01.37 1.44l-3.8 2.08a4.2 4.2 0 01-1.95.5z" fill="#57c278"/><path d="M195 277.39h-11.19a4.2 4.2 0 01-2-.5l-3.8-2.08a.77.77 0 01.37-1.44h22a.77.77 0 01.37 1.44l-3.8 2.08a4.2 4.2 0 01-1.95.5z" fill="#fff" opacity=".4"/><rect x="198.18" y="137.29" width="76.63" height="63.07" rx="5.24" fill="#57c278"/><rect x="198.18" y="137.29" width="76.63" height="63.07" rx="5.24" fill="#fff" opacity=".6"/><path d="M233.83 149.13s-5.7-2.92-8.6 3.5-10.23 2.56-7.15 15.57-10.08 8.59-3.75 18.09 16 3 21.3 3.17 15.54 3.5 18-2.42-1.75-7.91-1.84-11.12 5.24-10.9.92-14.38c-7.9-6.4-4.79-16-18.88-12.41z" fill="#2e353a"/><ellipse cx="235.63" cy="166.33" rx="12.42" ry="15.89" fill="#b97964"/><path d="M236.47 167.05a15.93 15.93 0 001.49 4.2 2.6 2.6 0 01-2.2.05z" fill="#a24e3f"/><path d="M231 167.1c0 .58.23 1.07.61 1.1s.71-.43.75-1-.24-1.06-.61-1.08-.75.41-.75.98zm-2.07-2.03a.43.43 0 01-.16 0 .36.36 0 010-.48 3.44 3.44 0 012.86-1.22.35.35 0 01.29.39.33.33 0 01-.38.29 2.7 2.7 0 00-2.25 1 .35.35 0 01-.36.02zm12.44 2.03c0 .58-.24 1.07-.62 1.1s-.71-.43-.75-1 .24-1.06.62-1.08.71.41.75.98zm2.06-2.03a.48.48 0 00.17 0 .36.36 0 000-.48 3.43 3.43 0 00-2.86-1.22.36.36 0 00-.29.39.34.34 0 00.39.29 2.72 2.72 0 012.25 1 .32.32 0 00.34.02zm-6.95 10.85a6 6 0 001-.09.19.19 0 00.15-.21.18.18 0 00-.21-.15 5 5 0 01-4.28-1.2.19.19 0 00-.26 0 .18.18 0 000 .26 5.13 5.13 0 003.6 1.39z" fill="#2e353a"/><path d="M234.47 192.61a30.47 30.47 0 0014.31-3.79 26.84 26.84 0 00-4.83-.46 16.7 16.7 0 01-8.55 2.06c-5.38 0-8.28-2.06-8.28-2.06a30 30 0 00-3.57.21c1.57 1.55 5 4.04 10.92 4.04z" fill="#577afb"/><path d="M242.54 190.14l2.27-1.44a7.29 7.29 0 01-3.23-1.32c-2.93-2.19-1.34-7.78-1.34-7.78h-8.41c-.2 3.35-.11 6.31-2 7.7a6.75 6.75 0 01-3.88 1.4l3 1.79c-.19.42 2 1.21 2 1.21l8.35.47 1.6-1s2.1-.4 1.64-1.03z" fill="#b97964"/><path d="M227.12 188.36s2.9 2.06 8.28 2.06a16.7 16.7 0 008.55-2.06s16.67-.33 16.67 12h-48.17s-2.16-12 14.67-12z" fill="#57c278"/><path d="M222.53 163.32s.55 5.34 2.3 5.16.52-8.42 3.82-9 5.18-1.31 5.31-3.38 5.25-.62 4.56-3.25a7.69 7.69 0 013.94 3.94c1.43 3.06 1.83 1.5 2.88 3.63s2 8.41 3.68 3.82-2.63-8.45-2.63-8.45l-3.81-4.5-3.56-.81-3.05-.63h-4.09l-2.74.63-3.91 4.19-2.4 4.12z" fill="#2e353a"/><path d="M224.63 167.12c.94 1.82.76 3.91-.4 4.67s-2.87-.12-3.8-1.94-.76-3.91.4-4.67 2.87.12 3.8 1.94zm21.31 0c-.94 1.82-.75 3.91.41 4.67s2.86-.12 3.8-1.94.76-3.91-.41-4.67-2.86.12-3.8 1.94z" fill="#b97964"/><path d="M222.85 168.51a1 1 0 00-.73 1.18l.51 3.27a.33.33 0 00.38.27.33.33 0 00.27-.38l-.36-2.27h.21a1.06 1.06 0 00-.32-2.07zm25.47 0a1 1 0 01.73 1.18l-.52 3.27a.33.33 0 01-.38.27.34.34 0 01-.28-.38l.36-2.27H248a1.06 1.06 0 01.33-2.07z" fill="#fff"/><circle cx="273.79" cy="137.28" r="9.01" fill="#57c278"/><path d="M268.6 142.47a.75.75 0 010-1.06l9.32-9.32a.75.75 0 011.06 0 .75.75 0 010 1.06l-9.31 9.32a.77.77 0 01-1.07 0z" fill="#fff"/><path d="M276.76 142.65h-2.63v-2a3.13 3.13 0 002.8-3.12v-1.06a.17.17 0 00-.17-.17h-.42a.18.18 0 00-.18.17.17.17 0 00.18.17h.25v.89a2.8 2.8 0 01-5.6 0v-.89h.26a.17.17 0 00.17-.17.18.18 0 00-.17-.17h-.43a.18.18 0 00-.17.17v1.06a3.14 3.14 0 002.8 3.12v2h-2.63a.35.35 0 00-.34.35v.34h6.62V143a.35.35 0 00-.34-.35z" fill="#fff"/><path d="M271.68 137.57a2.12 2.12 0 004.23 0v-4.23a2.12 2.12 0 10-4.23 0z" fill="#fff"/><rect x="76.11" y="161.32" width="109.52" height="84.43" rx="5.24" fill="#57c278"/><path d="M124.22 168.42s-5.08-1.55-6.21 9.35-8.93 14.53-.65 18.53 16.28-.38 19.53 0 9.12-1.75 8.75-7.13-9.94-21-9.94-21zm41.41 47.98c-1.79 6-6.93 21.9-10.86 21.35-4.83-.66-8.16-18-8.16-18l1.33-21s5.33 0 7.67 26.84l5.64-12.14z" fill="#263238"/><path d="M161.73 213.63l2-4.36 3.14-2.57 1.7-1.83a3 3 0 013.47-.68l1 .47a3 3 0 011.71 3.14l-.53 3.8-8.5 2.75s-.24.85-.65 2.23z" fill="#eec1bb"/><path fill="#263238" d="M160.93 212.1l5.96 4.08-.46 2.26-6.59-4.68 1.09-1.66z"/><path fill="#fff" opacity=".2" d="M160.93 212.1l5.96 4.08-.46 2.26-6.59-4.68 1.09-1.66z"/><path d="M115.52 245.75s-.91-23.83-8.08-45a112.9 112.9 0 0140.5-2s3.33 15.17-.67 47z" fill="#263238"/><path d="M115.52 245.75s-.91-23.83-8.08-45a112.9 112.9 0 0140.5-2s3.33 15.17-.67 47z" fill="#fff" opacity=".2"/><path d="M120.58 232.43c1.21-.46 1.92-.75 1.92-.75l5.38-2.5 4-3.8a2.35 2.35 0 00-.25-3.6L129.1 220a2.36 2.36 0 00-3.33.6l-4.52 6.73s-1 .29-2.62.69z" fill="#eec1bb"/><path d="M120.68 233.05c-5.86 2.21-23.42 8.26-28.7 3.5-6.37-5.75 15.46-35.8 15.46-35.8 5.83 6.59 3.73 13.4 3.73 13.4S99.94 226 101 228.92c.93 2.61 12.47 0 17.75-1.31z" fill="#263238"/><path fill="#263238" d="M119.44 226.89l2.5 6.33-2 1.17-2.58-7.5h2.08z"/><path fill="#fff" opacity=".2" d="M119.44 226.89l2.5 6.33-2 1.17-2.58-7.5h2.08z"/><path d="M134.67 197.81h-1.86a12 12 0 01.51-5.65l-7.3-7.44c.37 3.4.53 9.84-1.06 13.38-1 .07-1.93.15-2.84.24.46 1.34 2.22 4.75 8.28 4.75s4.94-3.83 4.27-5.28z" fill="#eec1bb"/><path d="M127.39 187.45l-.84 2.25a12.19 12.19 0 006.14 5.68 14.47 14.47 0 01.63-3.22l-4.84-4.94z" opacity=".1"/><path d="M122.3 179.15c1.77 6.74 2.37 9.64 6.51 12.46 6.22 4.26 14.12.62 14.41-6.52.27-6.43-2.66-16.38-9.88-17.78a9.52 9.52 0 00-11 11.84z" fill="#eec1bb"/><path d="M121.75 184.86a5.08 5.08 0 003 2.49c1.71.52 2.6-1 2.15-2.64-.4-1.47-1.77-3.51-3.51-3.31a2.31 2.31 0 00-1.94 2.61 2.34 2.34 0 00.3.85z" fill="#eec1bb"/><path d="M137.84 179.06a15 15 0 002.67 3.16 2.39 2.39 0 01-1.9.77z" fill="#d58745"/><path d="M131.83 176.53a.32.32 0 01-.14 0 .28.28 0 01-.09-.38 3.24 3.24 0 012.5-1.62.29.29 0 01.29.27.28.28 0 01-.26.29 2.7 2.7 0 00-2.06 1.35.24.24 0 01-.24.09zm6.62-2.88a.29.29 0 01-.07-.12.27.27 0 01.19-.34 3.26 3.26 0 012.94.52.28.28 0 11-.36.42 2.68 2.68 0 00-2.43-.4.29.29 0 01-.27-.08zm-4.72 5.26c.11.56.49 1 .86.88s.57-.58.45-1.14-.49-.94-.85-.87-.57.57-.46 1.13zm6.27-1.23c.1.55.49.94.85.87s.57-.57.46-1.13-.49-.95-.85-.88-.56.58-.46 1.14z" fill="#2e353a"/><path d="M140.32 176.6l1.26-.64s-.48 1.17-1.26.64zm-6.32 1.24l1.25-.64s-.44 1.17-1.25.64zm5.22 6.93a27 27 0 00-4.66.14 2.85 2.85 0 003.09 1.42c1.75-.16 1.57-1.56 1.57-1.56z" fill="#2e353a"/><path d="M136.76 185.67a3.54 3.54 0 012 .29 2 2 0 01-1.06.37 3.54 3.54 0 01-2-.29 2 2 0 011.06-.37z" fill="#de5753"/><path d="M139.06 184.76a.65.65 0 01-.48.5 19.29 19.29 0 01-3 0 1 1 0 01-.82-.39 29.94 29.94 0 014.3-.11z" fill="#fff"/><path d="M124.22 184.42s3-2.52 2.33-7.89 6.13-.36 7.49-4.86 7.22 4.63 10.1-.87-10.26-6.84-11.57-5.25-19.27-1-8.35 18.87z" fill="#263238"/><rect x="82.56" y="229.04" width="96.61" height="9.28" rx="2.38" fill="#fff"/><path fill="#263238" d="M94.66 236v-4.63l2.9 2.32-2.9 2.31zm7.57-.95l1.27-1.34-1.27-1.35v2.69zm1.27-2.64v2.6h.57v-2.6h-.57zm-13.52-.05l-1.26 1.35 1.26 1.34v-2.69zm-1.26 2.65v-2.6h-.58v2.6h.58zm24.2-1.98h61.77v1.36h-61.77z"/><path fill="#57c278" d="M139.98 230.64h2.2v6.08h-2.2z"/></svg>