<svg xmlns="http://www.w3.org/2000/svg" viewBox="0 0 500 500"><path fill="#ff8b7b" d="M234.52 332.59l8.51.71 6.58-19.4-8.5-.7-6.59 19.39z"/><path d="M243.75 331.5l-9.35-.18a.76.76 0 00-.74.57l-1.83 7.58A1.24 1.24 0 00233 341c3.37 0 8.25-.09 12.48 0 5 .09 6.51.44 12.32.56 3.52.06 4.56-3.47 3.09-3.82-6.66-1.59-9.41-1.85-15.12-5.53a4 4 0 00-2.02-.71z" fill="#263238"/><path opacity=".2" d="M249.61 313.91l-3.39 10-8.51-.71 3.39-10 8.51.71z"/><path d="M268.33 264.22c-2.21-16.22-34.14-33.05-34.14-33.05l-29.36-6.59s-11.19 2.59-6.93 14.92 34.86 19.5 49.81 31.39C246 291.1 237 317.22 237 317.22l12.36 2.84s21.75-35.5 18.97-55.84z" fill="#57c278"/><path d="M268.33 264.22c-2.21-16.22-34.14-33.05-34.14-33.05l-29.36-6.59s-11.19 2.59-6.93 14.92 34.86 19.5 49.81 31.39C246 291.1 237 317.22 237 317.22l12.36 2.84s21.75-35.5 18.97-55.84z" fill="#fff" opacity=".3"/><path fill="#57c278" d="M251.2 322.72L234.15 320l.88-5.51 18.14 2.61-1.97 5.62zm-6.63 9.98a.21.21 0 01-.13-.16.2.2 0 01.11-.21c.39-.19 3.86-1.87 4.89-1.27a.64.64 0 01.33.54 1.13 1.13 0 01-.4 1c-1 .81-3.4.43-4.78.13zm4.59-1.33c-.64-.23-2.51.44-3.88 1.06 1.88.35 3.29.3 3.82-.16a.72.72 0 00.26-.64.22.22 0 00-.12-.22.2.2 0 00-.08-.04z"/><path d="M244.57 332.7a.18.18 0 01-.08-.18c0-.1.28-2.4 1.39-3.27a1.47 1.47 0 011.13-.33c.55.07.71.35.74.58.14 1-1.94 2.78-3 3.23a.2.2 0 01-.18-.03zm2.55-3.36a.93.93 0 00-.21 0 1.1 1.1 0 00-.83.25 4.69 4.69 0 00-1.18 2.61c1.07-.61 2.48-2 2.4-2.62 0-.09-.02-.18-.18-.24zm-.19-.25z" fill="#57c278"/><path d="M221.9 246.26v10.57c8.21 3.86 16.95 7.76 23.5 12.34-3.83-8.5-16.61-20.94-23.5-22.91z" opacity=".2"/><path d="M154.28 296.78a55.73 55.73 0 11-55.73 55.73 55.79 55.79 0 0155.73-55.73m0-8A63.73 63.73 0 10218 352.51a63.73 63.73 0 00-63.73-63.73z" fill="#263238"/><path d="M154.28 299.16a53.35 53.35 0 11-53.34 53.35 53.4 53.4 0 0153.34-53.35m0-7.65a61 61 0 1061 61 61 61 0 00-61-61z" fill="#57c278"/><path d="M345.72 296.78A55.73 55.73 0 11290 352.51a55.79 55.79 0 0155.73-55.73m0-8a63.73 63.73 0 1063.73 63.73 63.73 63.73 0 00-63.73-63.73z" fill="#263238"/><path d="M345.72 299.16a53.35 53.35 0 11-53.34 53.35 53.4 53.4 0 0153.34-53.35m0-7.65a61 61 0 1061 61 61 61 0 00-61-61z" fill="#57c278"/><path d="M239.51 364.78a9.84 9.84 0 11-9.84 9.84 9.85 9.85 0 019.84-9.84m0-5a14.84 14.84 0 1014.84 14.84 14.83 14.83 0 00-14.84-14.84z" fill="#263238"/><circle cx="154.28" cy="352.51" r="9.83" fill="#263238"/><circle cx="345.72" cy="352.51" r="9.83" fill="#263238"/><path d="M154.27 345.67a6.89 6.89 0 011.85.26h.22l86.17 17.18a11.84 11.84 0 01-3 23.3 12 12 0 01-2.86-.35l-84.11-27h-.11a6.84 6.84 0 011.83-13.42m0-3a9.84 9.84 0 00-2.62 19.36l84.2 27a15 15 0 003.68.46 14.84 14.84 0 003.65-29.22L156.92 343a9.68 9.68 0 00-2.65-.37z" fill="#263238"/><path d="M239.51 377.62a3.11 3.11 0 01-.43 0 3 3 0 01-2.34-1.8l-53.39-126.51a3 3 0 115.53-2.33l51.45 121.88 82-100.34a3 3 0 014.64 3.8l-85.11 104.2a3 3 0 01-2.35 1.1z" fill="#263238"/><path d="M154.28 354.51a2 2 0 01-1.81-2.86l40.13-84.72a2 2 0 113.61 1.71l-40.12 84.72a2 2 0 01-1.81 1.15z" fill="#263238"/><path d="M345.72 355.51a3 3 0 01-2.91-2.26l-24.08-93.7-124.06 11.22a3 3 0 01-.54-6l126.6-11.45a3 3 0 013.18 2.24l24.72 96.17a3 3 0 01-2.16 3.65 2.76 2.76 0 01-.75.13z" fill="#263238"/><path d="M321 259.33a3 3 0 01-3-2.57L314.43 232a3 3 0 015.94-.87L324 255.9a3 3 0 01-2.54 3.4 3.11 3.11 0 01-.46.03z" fill="#263238"/><path d="M307.06 241.68a2.93 2.93 0 01-1.48-5.45l18.76-11a2.92 2.92 0 013 5.05l-18.75 11a3 3 0 01-1.53.4zm-141.73 5.99c5.23 6.66 27.36-.78 34.07-3s22 2.22 19.71-3-35.88-3.17-40.55-5c-9.89-3.89-22.19-.45-13.23 11z" fill="#57c278"/><path d="M230.67 408.5a2 2 0 01-1.93-2.53l17.68-63.77a2 2 0 013.85 1.07L232.59 407a2 2 0 01-1.92 1.5z" fill="#263238"/><path d="M253.31 344.74h-17.67a2 2 0 010-4h17.67a2 2 0 010 4zm-9.94 63.76h-17.66a2 2 0 010-4h17.66a2 2 0 010 4z" fill="#263238"/><path fill="#ff8b7b" d="M223.41 397.76l8.55-.69.05-19.85-8.54.68-.06 19.86z"/><path d="M233.36 395.13l-10.43.11a.75.75 0 00-.72.59l-1.61 7.63a1.26 1.26 0 001.27 1.51c3.35-.1 5.8-.32 10-.36 2.6 0 10.44.16 14 .12s4-3.59 2.55-3.9c-6.61-1.37-11.6-3.31-13.73-5.18a2.09 2.09 0 00-1.33-.52z" fill="#263238"/><path d="M260.45 170.07c3.28 5.82 6.72 11.78 10.21 17.54a178.74 178.74 0 0011 16.54c3.41 4.53 8.68 8.26 14.34 11.62 2.82 1.68 5.77 3.24 8.78 4.74 1.51.74 3 1.5 4.55 2.2l4.58 2-1.79 6.17a101.7 101.7 0 01-20.57-6.4 73 73 0 01-9.84-5.17A52.55 52.55 0 01277 216c-.77-.62-1.52-1.31-2.26-2l-1.1-1.12c-.36-.37-.63-.7-1-1.06a101.16 101.16 0 01-6.87-8.51c-2.15-2.88-4.14-5.82-6.07-8.79-3.88-6-7.41-12-10.75-18.27z" fill="#ff8b7b"/><path d="M248.09 181.33a31.87 31.87 0 007.9 17.94l16.76-12.69s-3.67-12.31-10.36-19c-12.53-12.42-15.21 4.01-14.3 13.75z" fill="#57c278"/><path d="M253 179.58l-5 1.2v.55a31.43 31.43 0 004 12.42c2.17-3.86 2-10.89 1-14.17zm-29.53 198.33l8.54-.68-.03 10.23-8.55.68.04-10.23z" opacity=".2"/><path d="M211.49 157.48c-4.33 30.88-20.81 57.2-22 63.66 6.54 1.49 31.21 7 44.66 10 16.08-25.95 24-66.66 24-66.66s-2.55-1.56-6.15-3.33c-1.13-.55-2.36-1.12-3.65-1.68q-1.08-.47-2.19-.9a167.9 167.9 0 00-18.71-5.38 89.086 89.086 0 00-6.84-1.33l-1.44-.22a6.78 6.78 0 00-7.68 5.84z" fill="#57c278"/><path d="M215.39 169.89c-1 3.88-6.44 10.91-10.8 15.07 1.67-4.77 3.23-9.84 4.51-15.13z" fill="#57c278"/><path d="M215.39 169.89c-1 3.88-6.44 10.91-10.8 15.07 1.67-4.77 3.23-9.84 4.51-15.13z" opacity=".2"/><path d="M311.25 224.5l11-.25-.82 6.85s-6.35 3.07-11.27-1.2zm15.58 1.75l-2.97 5.92-2.41-1.07.82-6.85 4.56 2z" fill="#ff8b7b"/><path d="M226.07 128c-1.44 6.71 3.62 13 12.7 12s-10.45-22.54-12.7-12z" fill="#263238"/><path d="M235.39 132.69c-.55 6.36-2.55 17.72-7.91 20.53 2.33 4.19 5.53 9.17 12.6 11.48s7.24-3 6.1-6.1c-6.25-3.54-4.65-8.46-2.13-12.8z" fill="#ff8b7b"/><path d="M238.92 138l5.12 7.75a19.84 19.84 0 00-1.53 3.15 9.51 9.51 0 01-5.24-7.29c-.13-1.89.93-3.56 1.65-3.61z" opacity=".2"/><path d="M253.28 116.79c4.38.06 3.54 8.75 1 10.88s-5.78-10.94-1-10.88z" fill="#263238"/><path d="M232.11 124.46c.14 8.5-.2 13.47 3.88 18 6.15 6.82 16.78 3.4 19.17-5 2.15-7.53 1.55-20.15-6.59-23.89a11.58 11.58 0 00-16.46 10.89z" fill="#ff8b7b"/><path d="M231.58 130.75c4.34-3.5 6.92-7.85 5.51-11.42 4.49 1.67 20.6 2.09 19.13-4.75S244 106.42 244 106.42s2.44 1.61 2.32 2.86c-5.53-2-12-2.11-14.26-1.61 1.62 1.11 1.78 1.87 1.78 1.87s-10.25.63-8 4c-4.01-.15-6.84 14.24 5.74 17.21z" fill="#263238"/><path d="M228.19 133a8.06 8.06 0 004.87 3.78c2.74.73 4.07-1.72 3.28-4.29-.71-2.31-3-5.47-5.72-5.06s-3.7 3.32-2.43 5.57z" fill="#ff8b7b"/><path d="M218.27 227.56s21.33 51.83 19.73 76.86c-1.73 27.41-2.35 78.8-2.35 78.8l-14.82 1.17s-5.95-49.1-4.52-75.83c1.64-30.46-39.19-65.46-26.8-87.41 14.03 2.93 28.76 6.41 28.76 6.41z" fill="#57c278"/><path d="M218.27 227.56s21.33 51.83 19.73 76.86c-1.73 27.41-2.35 78.8-2.35 78.8l-14.82 1.17s-5.95-49.1-4.52-75.83c1.64-30.46-39.19-65.46-26.8-87.41 14.03 2.93 28.76 6.41 28.76 6.41z" fill="#fff" opacity=".3"/><path fill="#57c278" d="M236.92 384.85l-18.37 1.81-.54-5.48 19.7-2.29-.79 5.96z"/><path d="M244.85 127.4c0 .69.31 1.26.76 1.28s.84-.52.87-1.21-.31-1.27-.76-1.29-.84.53-.87 1.22zm7.79.34c0 .69.31 1.26.76 1.28s.85-.52.88-1.21-.31-1.26-.77-1.28-.84.52-.87 1.21z" fill="#263238"/><path d="M250.15 128a24.77 24.77 0 003 6.05c-1.27 1.08-3.32.47-3.32.47z" fill="#ff5652"/><path d="M246.87 136.21a5.72 5.72 0 01-3.79-2.43.2.2 0 11.35-.21 5.47 5.47 0 004.36 2.33.2.2 0 01.19.21.21.21 0 01-.21.2 8.25 8.25 0 01-.9-.1zm-4.31-11.44a.46.46 0 01-.19-.08.4.4 0 01-.05-.57 4 4 0 013.37-1.53.4.4 0 01.35.45.4.4 0 01-.44.36 3.18 3.18 0 00-2.66 1.23.38.38 0 01-.38.14zm13.56.44a.43.43 0 01-.3-.24 3.21 3.21 0 00-2.2-1.93.41.41 0 01-.33-.47.4.4 0 01.46-.33 4 4 0 012.81 2.41.4.4 0 01-.21.53.45.45 0 01-.23.03z" fill="#263238"/><path d="M236.21 396.6a10.37 10.37 0 01-2.24-.28.23.23 0 01-.16-.17.21.21 0 01.09-.2c.31-.2 3.06-1.92 4-1.45a.64.64 0 01.35.57 1.23 1.23 0 01-.41 1.08 2.59 2.59 0 01-1.63.45zm-1.66-.57c1.46.27 2.58.21 3-.19a.86.86 0 00.27-.74.26.26 0 00-.13-.24c-.46-.24-2.02.5-3.14 1.14z" fill="#57c278"/><path d="M234 396.32h-.12a.22.22 0 01-.09-.19c0-.1.19-2.57 1.17-3.39a1.08 1.08 0 01.86-.27.65.65 0 01.65.52c.2 1-1.5 2.85-2.38 3.34zm1.69-3.49a.8.8 0 00-.47.19 4.85 4.85 0 00-1 2.69c.87-.68 2-2.11 1.84-2.67 0-.05 0-.17-.3-.2h-.09z" fill="#57c278"/><path d="M222 165.62c-.88.42-1.6.75-2.4 1.1s-1.55.66-2.33 1c-1.57.63-3.13 1.23-4.71 1.81-3.15 1.16-6.36 2.17-9.63 3.06a85.39 85.39 0 01-20.43 3.19 51.8 51.8 0 01-5.41-.17c-.92-.09-1.83-.17-2.76-.33l-.69-.1h-.35l-.28-.05-.36-.08a9 9 0 01-3.07-1.31 8.5 8.5 0 01-2.53-2.65 9 9 0 01-1.1-2.79 12.82 12.82 0 01-.16-4.16 24.74 24.74 0 011.51-5.83A57.82 57.82 0 01172 149c.86-1.44 1.76-2.85 2.72-4.21s1.89-2.7 3-4.05l5.52 3.28-1.71 4.37-1.62 4.38a73.94 73.94 0 00-2.58 8.55 17 17 0 00-.45 3.58c0 .43.11.76.14.62a1.12 1.12 0 00-.18-.57 3 3 0 00-.86-.94 3.27 3.27 0 00-.85-.43h-.07.76c.66.07 1.35.08 2 .11 1.38 0 2.78 0 4.21-.13a62.75 62.75 0 008.66-1.25c2.92-.59 5.84-1.35 8.75-2.22s5.81-1.84 8.69-2.87c1.44-.52 2.87-1.06 4.29-1.63l2.11-.86 2-.85z" fill="#ff8b7b"/><path d="M222.17 168.49c-5.58 6-22.5 10.06-22.5 10.06L193 159.23s11.07-6.63 21.6-7.56c16.14-1.43 13.33 10.63 7.57 16.82z" fill="#57c278"/><path d="M183.09 144.52l4.29-7.55-10.89-.97s-2.22 7.24 1.48 8.85z" fill="#ff8b7b"/><path fill="#ff8b7b" d="M185.49 128.52l-8.16 1.01-.84 6.5 10.89.94-1.89-8.45z"/></svg>