<svg xmlns="http://www.w3.org/2000/svg" viewBox="0 0 500 500"><path d="M254.35 132.83l-.7-.55c3.15-4 6.46-7.76 9.84-11.28l.63.62c-3.36 3.49-6.65 7.27-9.77 11.21zm-6.96 7.35l3.225-4.065.69.546-3.226 4.067zM320 179.22c21.73-34.93 24.69-69.35 8.87-80.49s-47.23 3.24-72.8 35.47L183 226.37l74.92 52.76z" fill="#57c278"/><path d="M311.45 173.2l-63.6 98.87-7.78-14.87 63.17-90.2c17.86-25.51 27.87-48.82 27.91-61.8a1.06 1.06 0 012.06-.36c4.5 12.95-3.3 39.67-21.76 68.36z" fill="#fff" opacity=".1"/><ellipse cx="220.42" cy="252.75" rx="31.81" ry="45.82" transform="rotate(-54.85 220.393 252.748)" fill="#57c278"/><ellipse cx="220.42" cy="252.75" rx="31.81" ry="45.82" transform="rotate(-54.85 220.393 252.748)" fill="#fff" opacity=".5"/><path d="M250.1 210.44c-16.44-11.58-35.09-14.89-47-9.48l-18.55 23.38c11-12.28 34.51-11.44 54.17 2.4s28.39 35.73 20.51 50.2l15.57-25c1.34-13.13-8.08-29.8-24.7-41.5z" opacity=".1"/><path d="M276.43 135.06c-4.56 7.22-8 20.73 5.55 30.26s25.11 1.76 30.36-5z" opacity=".2"/><path d="M315.54 152c-1.55 12.9-16.46 22.31-32.11 11.29s-11.82-28.23-.2-34c7.16-3.58 16.28-2 22.52 2.34S316.5 144 315.54 152z" fill="#fff"/><path d="M285.56 160.24c-6.09-4.28-9.21-9.88-8.77-15.74a14.7 14.7 0 018.1-12c5.44-2.72 13.14-1.87 18.73 2.06s9 10.91 8.25 16.95a14.68 14.68 0 01-8.53 11.65c-5.34 2.42-11.69 1.37-17.78-2.92z" fill="#57c278"/><path d="M285.56 160.24c-6.09-4.28-9.21-9.88-8.77-15.74a14.7 14.7 0 018.1-12c5.44-2.72 13.14-1.87 18.73 2.06s9 10.91 8.25 16.95a14.68 14.68 0 01-8.53 11.65c-5.34 2.42-11.69 1.37-17.78-2.92z" opacity=".3"/><path d="M285.56 160.24c-6.09-4.28-9.32-9.72-9.08-15.3a12.89 12.89 0 017.52-11.16c5.23-2.42 12.78-1.36 18.37 2.58s9.13 10.69 8.61 16.43a12.87 12.87 0 01-8 10.84c-5.13 2.11-11.33.9-17.42-3.39z" fill="#57c278"/><path d="M285.56 160.24c-6.09-4.28-9.32-9.72-9.08-15.3a12.89 12.89 0 017.52-11.16c5.23-2.42 12.78-1.36 18.37 2.58s9.13 10.69 8.61 16.43a12.87 12.87 0 01-8 10.84c-5.13 2.11-11.33.9-17.42-3.39z" fill="#fff" opacity=".2"/><path d="M306.61 140.31l-28.15 12.42a14.34 14.34 0 01-2-7.79 12.45 12.45 0 01.75-3.77l18.17-8a21.13 21.13 0 0111.21 7.16zm4.04 8.01l-25.83 11.38a24.94 24.94 0 01-4.22-3.92l28.1-12.4a19 19 0 011.95 4.94z" fill="#fff" opacity=".3"/><path d="M338.81 126.05c-.86-6.9-6.16-14.88-14.54-20.78s-17.67-8.2-24.46-6.69c11.55-4.71 21.9-4.89 29.06.15s10.48 14.86 9.94 27.32z" opacity=".1"/><ellipse cx="227.31" cy="242.96" rx="9.91" ry="13.95" transform="rotate(-54.85 227.294 242.961)" fill="#57c278" opacity=".5"/><path d="M209 246.78c-3.15 4.47-10.81 4.51-17.11.07s-8.86-11.66-5.71-16.13 10.82-4.51 17.12-.07 8.81 11.66 5.7 16.13zm43.71 30.81c-3.15 4.48-10.81 4.51-17.11.07s-8.85-11.66-5.7-16.13 10.81-4.51 17.11-.07 8.85 11.66 5.7 16.13zM223 273.38c-3.15 4.47-10.81 4.5-17.11.07s-8.85-11.66-5.7-16.14 10.81-4.5 17.11-.07 8.81 11.66 5.7 16.14zM238.72 251a7.1 7.1 0 01-1.16 1.28c1.75-4.46-.89-10.65-6.52-14.61s-12.34-4.36-15.95-1.22a7.59 7.59 0 01.81-1.51c3.15-4.47 10.82-4.51 17.12-.07s8.84 11.65 5.7 16.13z" fill="#57c278" opacity=".5"/><path d="M209 246.78a7.36 7.36 0 01-1.15 1.28c1.75-4.47-.88-10.65-6.52-14.62s-12.34-4.36-15.95-1.21a7.32 7.32 0 01.81-1.51c3.15-4.48 10.81-4.51 17.11-.07s8.81 11.65 5.7 16.13zm43.71 30.82a7.3 7.3 0 01-1.15 1.27c1.75-4.47-.89-10.65-6.52-14.61s-12.34-4.37-15.95-1.21a7.15 7.15 0 01.81-1.52c3.15-4.48 10.81-4.51 17.11-.07s8.86 11.66 5.7 16.14zM223 273.38a6.61 6.61 0 01-1.15 1.27c1.75-4.46-.89-10.65-6.52-14.61s-12.34-4.36-15.95-1.21a6.94 6.94 0 01.81-1.52c3.15-4.48 10.81-4.5 17.11-.07s8.81 11.66 5.7 16.14z" fill="#57c278" opacity=".5"/><path d="M232.58 168.23s-13.5 17.52-25.26 32.6a15.48 15.48 0 01-14.21 5.71c-10.27-1.27-27 6-27 6s31.65-51.99 66.47-44.31z" fill="#57c278"/><path d="M232.58 168.23s-13.5 17.52-25.26 32.6a15.48 15.48 0 01-14.21 5.71c-10.27-1.27-27 6-27 6s31.65-51.99 66.47-44.31z" opacity=".3"/><path d="M295.89 212.82s-11.89 18.61-22.18 34.76a15.47 15.47 0 00-.58 15.3c4.66 9.25 3.44 27.49 3.44 27.49s38.29-47.37 19.32-77.55z" fill="#57c278"/><path d="M295.89 212.82s-11.89 18.61-22.18 34.76a15.47 15.47 0 00-.58 15.3c4.66 9.25 3.44 27.49 3.44 27.49s38.29-47.37 19.32-77.55z" opacity=".3"/><path d="M339.51 346.61c12.49-30.56-41.51-39.22-62.88-31.55s-43.16 13.37-44-7.08 15.62-33.13 7.77-37.85c-4.35-2.62-5.59 2-7.74 8.74-6.58 20.65-43.85 25.57-26.7 55.46s8 23.4-20.85 35.39-14 46.52 13.91 46.52H367.1c77.04 0 4.1-147.46-27.59-69.63z" fill="#57c278"/><path d="M339.51 346.61c12.49-30.56-41.51-39.22-62.88-31.55s-43.16 13.37-44-7.08 15.62-33.13 7.77-37.85c-4.35-2.62-5.59 2-7.74 8.74-6.58 20.65-43.85 25.57-26.7 55.46s8 23.4-20.85 35.39-14 46.52 13.91 46.52H367.1c77.04 0 4.1-147.46-27.59-69.63z" fill="#fff" opacity=".6"/><path d="M197.55 240.09c-2.24-7.78-14.36 2-26.3 13.85s-17.83 38.9-29.38 53-44.62 26.84-31.69 48.06c19.07 31.27-24.76 61.27 27.15 61.27H243.8c19.47 0 40.58-23.81 10.26-40s-75.74 21.56-88-14.45c-6.08-17.87 16-9.67 5.77-38.93s-9.55-37.23-4.34-50.27c12.68-31.78 33.51-20.71 30.06-32.53z" fill="#57c278"/><path d="M197.55 240.09c-2.24-7.78-14.36 2-26.3 13.85s-17.83 38.9-29.38 53-44.62 26.84-31.69 48.06c19.07 31.27-24.76 61.27 27.15 61.27H243.8c19.47 0 40.58-23.81 10.26-40s-75.74 21.56-88-14.45c-6.08-17.87 16-9.67 5.77-38.93s-9.55-37.23-4.34-50.27c12.68-31.78 33.51-20.71 30.06-32.53z" fill="#fff" opacity=".6"/><path d="M219.62 243.68c2.64-4.82 11.7-1.93 11.5 4.38s-23.66 14.58-19.3 36.37 46.24 23.35 56.07 45.18-28.25 24.89-16.89 38.54 46.42-17.7 71.4-9.64 49.94 57.73 4.12 57.73H185.33c-30.7 0-53.12-63.39-23.62-89.47s5.7-17.61 16.71-34.32 31.07-30.29 41.2-48.77z" fill="#57c278"/><path d="M219.62 243.68c2.64-4.82 11.7-1.93 11.5 4.38s-23.66 14.58-19.3 36.37 46.24 23.35 56.07 45.18-28.25 24.89-16.89 38.54 46.42-17.7 71.4-9.64 49.94 57.73 4.12 57.73H185.33c-30.7 0-53.12-63.39-23.62-89.47s5.7-17.61 16.71-34.32 31.07-30.29 41.2-48.77z" fill="#fff" opacity=".8"/></svg>