<svg xmlns="http://www.w3.org/2000/svg" viewBox="0 0 500 500"><path d="M267.1 276.22c12.67-17.65 25.07-25.93 30.18-46.12 18.76-4 56 8.92 65.87-12.55l-28.72-23.26s-50.31 3.92-57.46 18.93c-3 6.21-10.51 23.7-20.25 44.31-3.53 7.46-9.19 17-10.7 22.54l12.42 9.87c4.39-6.89 6.07-10.11 8.66-13.72z" fill="#57c278"/><path d="M267.1 276.22c12.67-17.65 25.07-25.93 30.18-46.12 18.76-4 56 8.92 65.87-12.55l-28.72-23.26s-50.31 3.92-57.46 18.93c-3 6.21-10.51 23.7-20.25 44.31-3.53 7.46-9.19 17-10.7 22.54l12.42 9.87c4.39-6.89 6.07-10.11 8.66-13.72z" fill="#fff" opacity=".2"/><path d="M257.66 299.34l-.89-.85-29.54-16.7c-1.48.43-2.43 3.94 1.56 6.09s10.25 5.34 14.37 7.56 7.52 4.24 11.39 6.32c1.11.6 2.84-.57 3.11-2.42z" fill="#57c278"/><path d="M257.66 299.34l-.89-.85-29.54-16.7c-1.48.43-2.43 3.94 1.56 6.09s10.25 5.34 14.37 7.56 7.52 4.24 11.39 6.32c1.11.6 2.84-.57 3.11-2.42z" opacity=".3"/><path d="M264.39 288.09c-1.17 3.93-4.15 9.59-6.47 11.24-.41.78-1.09.44-1.87 0-4.27-2.3-9.06-5.07-13.14-7.35-4.77-2.67-8.09-3.88-13.68-7-3.39-1.9-2.3-4.29-.48-4.33 5.29-.14 10.9 2 17.16.38 1.76-4.94 8-23 11.77-28.31a1.59 1.59 0 011.5-.64c8.21 1.19 16.42 7.11 19.38 9.43a1.6 1.6 0 01.35 2.14c-3 4.62-13.61 21.08-14.52 24.44zM288 204.37c-6 .62-13.66 7-15 17.57 6.37-1.79 10.53-4.29 11.91-6.13 2.99-3.95 3.09-11.44 3.09-11.44z" fill="#263238"/><path d="M338.37 153.54c-.44.8-.77 1.39-1.16 2.05s-.76 1.25-1.15 1.87c-.77 1.23-1.59 2.42-2.42 3.61-1.67 2.35-3.43 4.65-5.32 6.84-.92 1.11-1.91 2.19-2.87 3.27s-2 2.11-3.07 3.12a80.21 80.21 0 01-6.63 5.82l-.5.41a5.24 5.24 0 01-2.11 1 55.28 55.28 0 01-8.35 1.26 59.12 59.12 0 01-8.2.05 68.26 68.26 0 01-8-1c-1.32-.25-2.62-.54-3.92-.86s-2.53-.7-3.94-1.18a3.84 3.84 0 011.07-7.47h.37c1.05 0 2.31-.07 3.48-.13s2.38-.14 3.56-.21c2.36-.18 4.7-.42 7-.75s4.54-.75 6.73-1.24a61.06 61.06 0 006.32-1.85l-2.61 1.43c1.73-1.76 3.44-3.54 5.07-5.44s3.22-3.84 4.74-5.85 3-4.05 4.44-6.15c.72-1 1.41-2.09 2.1-3.13l1-1.57.92-1.45.2-.31a7.69 7.69 0 0113.24 7.81z" fill="#57c278"/><path d="M338.37 153.54c-.44.8-.77 1.39-1.16 2.05s-.76 1.25-1.15 1.87c-.77 1.23-1.59 2.42-2.42 3.61-1.67 2.35-3.43 4.65-5.32 6.84-.92 1.11-1.91 2.19-2.87 3.27s-2 2.11-3.07 3.12a80.21 80.21 0 01-6.63 5.82l-.5.41a5.24 5.24 0 01-2.11 1 55.28 55.28 0 01-8.35 1.26 59.12 59.12 0 01-8.2.05 68.26 68.26 0 01-8-1c-1.32-.25-2.62-.54-3.92-.86s-2.53-.7-3.94-1.18a3.84 3.84 0 011.07-7.47h.37c1.05 0 2.31-.07 3.48-.13s2.38-.14 3.56-.21c2.36-.18 4.7-.42 7-.75s4.54-.75 6.73-1.24a61.06 61.06 0 006.32-1.85l-2.61 1.43c1.73-1.76 3.44-3.54 5.07-5.44s3.22-3.84 4.74-5.85 3-4.05 4.44-6.15c.72-1 1.41-2.09 2.1-3.13l1-1.57.92-1.45.2-.31a7.69 7.69 0 0113.24 7.81z" opacity=".2"/><path d="M290.42 170.65s3 9.78.43 13.14a133.77 133.77 0 01-19.18-5.17s-3.09 5-9.72.63 0-9.38 5.15-9.72 23.32 1.12 23.32 1.12z"/><path d="M220.14 264s12.9-38.82-13.69-63.4c-24.79-22.92-58.6-13.47-65.85-11.07a.93.93 0 00-.23 1.66 20.89 20.89 0 0010 3s32.14-12 55.9 20.42c8.51 11.61 10.5 39.94 10.2 42.49a20.18 20.18 0 003.67 6.9z" fill="#57c278"/><path d="M250.55 210c-2.1-6-3.82-12-4.66-15a1.68 1.68 0 00-2.45-1l-26.05 14.8a1.68 1.68 0 00-.49 2.49l3.1 3.91a1.68 1.68 0 002.27.35 1.68 1.68 0 012.59 1l1.17 5.47a1.68 1.68 0 002.42 1.14l21.3-11.15a1.68 1.68 0 00.8-2.01z" fill="#57c278"/><path d="M250.55 210c-2.1-6-3.82-12-4.66-15a1.68 1.68 0 00-2.45-1l-26.05 14.8a1.68 1.68 0 00-.49 2.49l3.1 3.91a1.68 1.68 0 002.27.35 1.68 1.68 0 012.59 1l1.17 5.47a1.68 1.68 0 002.42 1.14l21.3-11.15a1.68 1.68 0 00.8-2.01z" opacity=".3"/><path d="M290.86 325.48l-.72-6c5.74-.69 10.08-3 12.87-6.85a17.79 17.79 0 002.9-13.46l5.89-1.16a23.59 23.59 0 01-3.93 18.15c-3.77 5.22-9.65 8.43-17.01 9.32z" fill="#e0e0e0"/><path d="M357.6 322.94a43.51 43.51 0 11-57.53 21.86 43.51 43.51 0 0157.53-21.86zm-30.1 67a30 30 0 10-15.08-39.62A30 30 0 00327.5 390z" fill="#f0f0f0"/><path d="M360.8 315.81A51.32 51.32 0 11293 341.6a51.34 51.34 0 0167.8-25.79zm-35.5 79.07a35.36 35.36 0 10-17.78-46.73 35.35 35.35 0 0017.78 46.73z" fill="#263238"/><path d="M339.46 414.51a1 1 0 01-1-1 1 1 0 011-1 1 1 0 011 1 1 1 0 01-1 1zm5-1.21a1 1 0 01.88-1.11 1 1 0 011.11.89 1 1 0 01-.88 1.1h-.12a1 1 0 01-.96-.88zm-11.16.81a1 1 0 01-.87-1.11 1 1 0 011.12-.87 1 1 0 01.87 1.12 1 1 0 01-1 .87h-.13zm17.11-1.73a1 1 0 01.75-1.2 1 1 0 011.2.74 1 1 0 01-.74 1.21.93.93 0 01-.23 0 1 1 0 01-.95-.75zm-23.15.61a1 1 0 01-.73-1.22 1 1 0 011.21-.72 1 1 0 01.73 1.21 1 1 0 01-1 .76zm29-2.22a1 1 0 01.6-1.28 1 1 0 011.28.6 1 1 0 01-.6 1.28 1 1 0 01-.34.06 1 1 0 01-.95-.66zm-34.82.38a1 1 0 01-.58-1.29 1 1 0 011.29-.58 1 1 0 01.58 1.29 1 1 0 01-.94.65 1 1 0 01-.36-.07zm40.4-2.66a1 1 0 01.44-1.35 1 1 0 011.34.45 1 1 0 01-.44 1.34 1 1 0 01-.45.11 1 1 0 01-.9-.55zm-46 .15a1 1 0 01-.43-1.35 1 1 0 011.35-.42 1 1 0 01.43 1.34 1 1 0 01-.89.54 1 1 0 01-.48-.11zm51.28-3.08a1 1 0 01.28-1.38 1 1 0 011.39.28 1 1 0 01-.29 1.38 1 1 0 01-.55.17 1 1 0 01-.85-.45zm-56.55-.07a1 1 0 01-.27-1.39 1 1 0 011.39-.26 1 1 0 01.27 1.39 1 1 0 01-.83.44 1 1 0 01-.58-.18zM372 402a1 1 0 01.11-1.41 1 1 0 011.41.12 1 1 0 01-.11 1.41 1 1 0 01-.65.24 1 1 0 01-.76-.36zm-66.31-.29a1 1 0 01-.1-1.41 1 1 0 011.41-.1 1 1 0 01.1 1.41 1 1 0 01-.76.34 1 1 0 01-.66-.21zm70.73-3.71a1 1 0 01-.05-1.41 1 1 0 011.41-.06 1 1 0 01.05 1.42 1 1 0 01-.74.32 1 1 0 01-.67-.27zm-75.13-.52a1 1 0 01.07-1.41 1 1 0 011.42.07 1 1 0 01-.08 1.41 1 1 0 01-.67.26 1 1 0 01-.74-.38zm79-4.06a1 1 0 01-.22-1.4 1 1 0 011.39-.22 1 1 0 01.23 1.39 1 1 0 01-.81.42 1 1 0 01-.54-.24zm-82.89-.73a1 1 0 01.24-1.4 1 1 0 011.39.24 1 1 0 01-.24 1.39.93.93 0 01-.57.19 1 1 0 01-.77-.47zm86.23-4.29a1 1 0 01-.38-1.36 1 1 0 011.36-.38A1 1 0 01385 388a1 1 0 01-.87.51 1 1 0 01-.45-.16zm-89.48-.93a1 1 0 01.4-1.36 1 1 0 011.36.4 1 1 0 01-.4 1.36 1 1 0 01-.48.12 1 1 0 01-.83-.57zm92.26-4.47a1 1 0 01-.54-1.31 1 1 0 011.31-.54 1 1 0 01.54 1.31 1 1 0 01-.93.62 1 1 0 01-.38-.08zm-94.82-1.12a1 1 0 01.56-1.3 1 1 0 011.3.56 1 1 0 01-.56 1.29 1 1 0 01-.37.08 1 1 0 01-.93-.65zm96.91-4.53a1 1 0 01-.7-1.24 1 1 0 011.24-.69 1 1 0 01.69 1.23 1 1 0 01-1 .73 1.24 1.24 0 01-.23-.05zM289.66 376a1 1 0 01.7-1.23 1 1 0 011.23.71 1 1 0 01-.71 1.23 1.15 1.15 0 01-.26 0 1 1 0 01-.96-.71zm100.24-4.56a1 1 0 01-.84-1.15 1 1 0 011.15-.83 1 1 0 01.83 1.14 1 1 0 01-1 .85h-.15zM288.42 370a1 1 0 01.84-1.13 1 1 0 011.14.85 1 1 0 01-.85 1.13h-.14a1 1 0 01-.99-.85zm102.17-4.53a1 1 0 01-1-1 1 1 0 011-1 1 1 0 011 1 1 1 0 01-1 1zm-102.69-1.58a1 1 0 011-1 1 1 0 011 1 1 1 0 01-1 1 1 1 0 01-1-1zm101.59-5.35a1 1 0 01.91-1.08 1 1 0 011.08.91 1 1 0 01-.91 1.08h-.09a1 1 0 01-.99-.91zm-100.48.3a1 1 0 01-.9-1.09 1 1 0 011.09-.9 1 1 0 01.9 1.09 1 1 0 01-1 .91h-.1zm99.64-6.15a1 1 0 01.78-1.18 1 1 0 011.18.78 1 1 0 01-.78 1.18.68.68 0 01-.2 0 1 1 0 01-.98-.78zm-98.83.18a1 1 0 01-.77-1.19 1 1 0 011.19-.77 1 1 0 01.77 1.19 1 1 0 01-1 .79zm97.31-5.87a1 1 0 01.64-1.27 1 1 0 011.26.64 1 1 0 01-.64 1.26.84.84 0 01-.31.05 1 1 0 01-.95-.68zm-95.8 0a1 1 0 01-.62-1.27 1 1 0 011.27-.62 1 1 0 01.62 1.28 1 1 0 01-.94.67 1 1 0 01-.33-.06zm93.67-5.5a1 1 0 01.48-1.33 1 1 0 011.33.48 1 1 0 01-.48 1.33 1.07 1.07 0 01-.43.09 1 1 0 01-.9-.57zm-91.43-.08a1 1 0 01-.47-1.34 1 1 0 011.33-.46 1 1 0 01.47 1.33 1 1 0 01-.9.57.94.94 0 01-.48-.1zm88.61-5.12a1 1 0 01.32-1.38 1 1 0 011.37.33 1 1 0 01-.32 1.37 1 1 0 01-.52.15 1 1 0 01-.9-.47zm-85.79-.2a1 1 0 01-.3-1.38 1 1 0 011.38-.31 1 1 0 01.3 1.38 1 1 0 01-.84.46 1.08 1.08 0 01-.59-.15zm82.39-4.63a1 1 0 01.16-1.4 1 1 0 011.4.16 1 1 0 01-.16 1.4 1 1 0 01-.62.22 1 1 0 01-.83-.38zm-79-.33a1 1 0 01-.14-1.4 1 1 0 011.41-.14 1 1 0 01.14 1.4 1 1 0 01-.78.37 1 1 0 01-.63-.23zm75-4.06a1 1 0 010-1.41 1 1 0 011.42 0 1 1 0 010 1.41 1 1 0 01-.72.3 1 1 0 01-.71-.3zm-71-.45a1 1 0 010-1.41 1 1 0 011.42 0 1 1 0 010 1.41 1 1 0 01-.7.28 1 1 0 01-.72-.28zm66.54-3.43a1 1 0 01-.18-1.41 1 1 0 011.41-.18 1 1 0 01.18 1.41 1 1 0 01-.8.39 1 1 0 01-.61-.21zm-62-.56a1 1 0 01.2-1.41 1 1 0 011.4.2 1 1 0 01-.2 1.4 1 1 0 01-.6.2 1 1 0 01-.83-.39zm57.16-2.77a1 1 0 01-.35-1.37 1 1 0 011.37-.35 1 1 0 01.35 1.37 1 1 0 01-.86.49 1 1 0 01-.54-.14zm-52.2-.67a1 1 0 01.36-1.37 1 1 0 011.36.36 1 1 0 01-.36 1.37 1 1 0 01-.5.14 1 1 0 01-.89-.5zm47-2.06h-.14a1 1 0 01-.5-1.32 1 1 0 011.32-.51h.13a1 1 0 01.5 1.33 1 1 0 01-.91.59 1 1 0 01-.47-.09zm-41.64-.77a1 1 0 01.52-1.31 1 1 0 011.31.52 1 1 0 01-.52 1.31.88.88 0 01-.39.08 1 1 0 01-.99-.6zm36-1.38a1 1 0 01-.66-1.25 1 1 0 011.25-.66 1 1 0 01.66 1.25 1 1 0 01-1 .71 1 1 0 01-.34-.04zm-30.36-.8a1 1 0 01.67-1.24 1 1 0 011.24.67 1 1 0 01-.67 1.24.9.9 0 01-.28 0 1 1 0 01-1.05-.67zm24.62-.62a1 1 0 01-.8-1.16 1 1 0 011.17-.8 1 1 0 01.8 1.16 1 1 0 01-1 .82.62.62 0 01-.26-.02zm-18.9-.88a1 1 0 01.81-1.16 1 1 0 011.16.81 1 1 0 01-.81 1.16H331a1 1 0 01-1-.81zm12.93.16a1 1 0 01-.93-1.07 1 1 0 011.06-.93 1 1 0 01.93 1.06 1 1 0 01-1 .94h.01zm-7-1a1 1 0 01.95-1.05 1 1 0 011.05.94 1 1 0 01-.94 1.05h.01a1 1 0 01-1-.91zm-199.87 9.65a1 1 0 011-1 1 1 0 011 1 1 1 0 01-1 1 1 1 0 01-1-1zm-5.07.81a1 1 0 01-.92-1.09 1 1 0 011.08-.91 1 1 0 01.91 1.08 1 1 0 01-1 .92H131zm11-1.2a1 1 0 01.85-1.13 1 1 0 011.13.85 1 1 0 01-.85 1.13H143a1 1 0 01-1-.85zm-17.08.34a1 1 0 01-.79-1.18 1 1 0 011.18-.78 1 1 0 01.78 1.17 1 1 0 01-1 .81zm23-1.4a1 1 0 01.71-1.22 1 1 0 011.22.72 1 1 0 01-.72 1.22 1 1 0 01-.25 0 1 1 0 01-.94-.72zm-28.91-.13a1 1 0 01-.65-1.26 1 1 0 011.26-.65 1 1 0 01.65 1.26 1 1 0 01-1 .7 1 1 0 01-.26-.05zm34.63-1.58a1 1 0 01.57-1.29 1 1 0 011.29.57 1 1 0 01-.57 1.3 1.13 1.13 0 01-.36.06 1 1 0 01-.89-.64zm-40.33-.6a1 1 0 01-.5-1.32 1 1 0 011.32-.51 1 1 0 01.5 1.32 1 1 0 01-.91.6 1 1 0 01-.37-.09zm45.88-1.74a1 1 0 01.43-1.35 1 1 0 011.35.43 1 1 0 01-.43 1.35 1.11 1.11 0 01-.46.11 1 1 0 01-.89-.54zm-51.26-1.06a1 1 0 01-.35-1.37 1 1 0 011.37-.35 1 1 0 01.35 1.37 1 1 0 01-.86.49 1 1 0 01-.51-.14zm56.48-1.88a1 1 0 01.28-1.39 1 1 0 011.38.28 1 1 0 01-.27 1.39 1 1 0 01-.56.16 1 1 0 01-.83-.44zm-61.55-1.5a1 1 0 01-.2-1.4 1 1 0 011.4-.2 1 1 0 01.2 1.4 1 1 0 01-.81.4 1 1 0 01-.59-.2zm66.41-2a1 1 0 01.12-1.41 1 1 0 011.41.13 1 1 0 01-.12 1.4 1 1 0 01-.65.24 1 1 0 01-.76-.37zm-71.08-1.93a1 1 0 010-1.41 1 1 0 011.41 0 1 1 0 010 1.41 1 1 0 01-.73.32 1 1 0 01-.68-.33zm75.51-2.1a1 1 0 010-1.41 1 1 0 011.42 0 1 1 0 010 1.42 1 1 0 01-.73.31 1 1 0 01-.69-.33zM94 303.19a1 1 0 01.11-1.41 1 1 0 011.41.12 1 1 0 01-.11 1.41 1 1 0 01-.65.23 1 1 0 01-.76-.35zm83.65-2.19a1 1 0 01-.2-1.4 1 1 0 011.4-.2 1 1 0 01.2 1.4 1 1 0 01-.8.4 1 1 0 01-.6-.2zm-87.33-2.71a1 1 0 01.28-1.39 1 1 0 011.38.28 1 1 0 01-.27 1.39 1 1 0 01-.56.17 1 1 0 01-.83-.43zm90.74-2.21a1 1 0 01-.35-1.37 1 1 0 011.37-.35 1 1 0 01.35 1.37 1 1 0 01-.86.49 1.06 1.06 0 01-.51-.12zm-93.84-3.05a1 1 0 01.43-1.34 1 1 0 011.35.43 1 1 0 01-.43 1.34 1 1 0 01-.46.12 1 1 0 01-.89-.53zm96.69-2.22a1 1 0 01-.5-1.32 1 1 0 011.32-.5 1 1 0 01.5 1.32 1 1 0 01-.91.59 1 1 0 01-.41-.07zm-99.18-3.34a1 1 0 01.58-1.29 1 1 0 011.29.57 1 1 0 01-.58 1.29.92.92 0 01-.36.07 1 1 0 01-.93-.62zm101.43-2.21a1 1 0 01-.65-1.26 1 1 0 011.26-.65 1 1 0 01.64 1.26 1 1 0 01-.95.7 1 1 0 01-.3-.03zm-103.29-3.6a1 1 0 01.72-1.22 1 1 0 011.22.71 1 1 0 01-.72 1.22 1.09 1.09 0 01-.25 0 1 1 0 01-.97-.69zm104.9-2.17a1 1 0 01-.78-1.18 1 1 0 011.17-.78 1 1 0 01.79 1.18 1 1 0 01-1 .8zm-106.1-3.79a1 1 0 01.85-1.14 1 1 0 011.13.85 1 1 0 01-.85 1.13h-.14a1 1 0 01-.99-.84zm107.06-2.1a1 1 0 01-.91-1.08 1 1 0 011.08-.91 1 1 0 01.91 1.08 1 1 0 01-1 .91h-.08zm-107.58-4a1 1 0 011-1 1 1 0 011 1 1 1 0 01-1 1 1 1 0 01-1-.98zm106.83-3a1 1 0 011-1 1 1 0 011 1 1 1 0 01-1 1 1 1 0 01-.98-.96zm-105.75-2a1 1 0 01-.91-1.08 1 1 0 011.08-.91 1 1 0 01.91 1.08 1 1 0 01-1 .91h-.09zm105.26-3.81a1 1 0 01.85-1.13 1 1 0 011.13.85 1 1 0 01-.85 1.13h-.14a1 1 0 01-.99-.85zM83 258.65a1 1 0 01-.78-1.17 1 1 0 011.17-.79 1 1 0 01.79 1.18 1 1 0 01-1 .8.71.71 0 01-.18-.02zM186.35 255a1 1 0 01.72-1.22 1 1 0 011.21.72 1 1 0 01-.72 1.22 1 1 0 01-.25 0 1 1 0 01-.96-.72zm-102-2.2a1 1 0 01-.64-1.26 1 1 0 011.25-.65 1 1 0 01.65 1.26 1 1 0 01-.95.69 1.1 1.1 0 01-.32-.01zm100.22-3.4a1 1 0 01.58-1.29 1 1 0 011.3.58 1 1 0 01-.58 1.28.92.92 0 01-.36.07 1 1 0 01-.95-.61zm-98.18-2.24a1 1 0 01-.51-1.32 1 1 0 011.32-.5 1 1 0 01.51 1.32 1 1 0 01-.92.59 1 1 0 01-.41-.06zm95.79-3.13a1 1 0 01.43-1.35 1 1 0 011.35.43 1 1 0 01-.43 1.35 1 1 0 01-.46.11 1 1 0 01-.9-.51zM89 241.82a1 1 0 01-.36-1.37 1 1 0 011.37-.36 1 1 0 01.36 1.37 1 1 0 01-.87.5 1 1 0 01-.5-.14zm90.2-2.82a1 1 0 01.28-1.39 1 1 0 011.38.28 1 1 0 01-.28 1.39 1 1 0 01-.55.17 1 1 0 01-.83-.45zm-87-2.22a1 1 0 01-.2-1.4 1 1 0 011.4-.2 1 1 0 01.2 1.4 1 1 0 01-.8.4 1 1 0 01-.56-.21zm83.43-2.48a1 1 0 01.12-1.41 1 1 0 011.41.12 1 1 0 01-.12 1.41 1 1 0 01-.64.23 1 1 0 01-.73-.36zM96 232.11a1 1 0 010-1.41 1 1 0 011.42 0 1 1 0 010 1.41 1 1 0 01-.73.32 1 1 0 01-.69-.32zm75.63-2.1a1 1 0 010-1.42 1 1 0 011.42 0 1 1 0 010 1.41 1 1 0 01-.72.31 1 1 0 01-.69-.31zm-71.35-2.1a1 1 0 01.12-1.41 1 1 0 011.41.11 1 1 0 01-.12 1.41 1 1 0 01-.65.24 1 1 0 01-.75-.35zm66.86-1.7a1 1 0 01-.2-1.4 1 1 0 011.4-.2 1 1 0 01.2 1.41 1 1 0 01-.8.39 1 1 0 01-.59-.2zm-62.14-2a1 1 0 01.27-1.39 1 1 0 011.39.28 1 1 0 01-.28 1.39 1 1 0 01-.55.17 1 1 0 01-.83-.44zm57.27-1.21a1 1 0 01-.36-1.37 1 1 0 011.37-.35 1 1 0 01.35 1.36 1 1 0 01-.86.5 1 1 0 01-.5-.14zm-52.16-1.87a1 1 0 01.43-1.35 1 1 0 011.35.43 1 1 0 01-.43 1.35 1 1 0 01-.46.11 1 1 0 01-.89-.59zm46.94-.83h-.14a1 1 0 01-.51-1.32 1 1 0 011.32-.5h.15a1 1 0 01.5 1.32 1 1 0 01-.92.6 1 1 0 01-.4-.15zm-41.52-1.72a1 1 0 01.57-1.29 1 1 0 011.3.58 1 1 0 01-.58 1.29 1.13 1.13 0 01-.36.06 1 1 0 01-.93-.69zm35.88-.44a1 1 0 01-.65-1.26 1 1 0 011.26-.64 1 1 0 01.65 1.25 1 1 0 01-1 .7 1 1 0 01-.26-.1zm-30.21-1.54a1 1 0 01.71-1.22 1 1 0 011.22.72 1 1 0 01-.71 1.22 1.15 1.15 0 01-.26 0 1 1 0 01-.96-.72zm24.52 0a1 1 0 01-.78-1.18 1 1 0 011.17-.79 1 1 0 01.79 1.18 1 1 0 01-1 .8h-.2zM127 215.31a1 1 0 01.85-1.13 1 1 0 011.15.82 1 1 0 01-.85 1.13H128a1 1 0 01-1-.82zm12.86.5a1 1 0 01-.91-1.08 1 1 0 011.08-.91 1 1 0 01.91 1.07 1 1 0 01-1 .92h-.09zm-6.9-1.13a1 1 0 011-1 1 1 0 011 1 1 1 0 01-1 1 1 1 0 01-.96-1z" fill="#263238"/><path d="M348.17 343.94a20.49 20.49 0 11-27.09 10.3 20.48 20.48 0 0127.09-10.3z" fill="#57c278"/><path d="M285.64 308.16a1 1 0 01-.38-.07 1 1 0 01-.32-.22.87.87 0 01-.22-.32 1.09 1.09 0 01-.08-.39 1 1 0 01.3-.7 1 1 0 011.09-.22.87.87 0 01.32.22 1 1 0 01.22.32 1 1 0 01.07.38 1 1 0 01-.07.39 1.07 1.07 0 01-.54.54 1.07 1.07 0 01-.39.07z" fill="#263238"/><path d="M339.1 383.13a1 1 0 01-1.08.92 1 1 0 01-.92-1.08 1 1 0 01-1.16.81 1 1 0 01-.81-1.16 1 1 0 01-1.23.68 1 1 0 01-.69-1.23 1 1 0 01-1.3.56 1 1 0 01-.56-1.29 1 1 0 01-1.35.43 1 1 0 01-.43-1.34 1 1 0 01-1.38.3 1 1 0 01-.3-1.38 1 1 0 01-1.41-.08 1 1 0 010-1.38 1 1 0 01-1.38-.1 1 1 0 01.05-1.39 1 1 0 01-1.38-.1 1 1 0 01.05-1.39 1 1 0 01-1.39-.1 1 1 0 01.06-1.39 1 1 0 01-1.39-.1 1 1 0 01.05-1.39 1 1 0 01-1.39-.09 1 1 0 01.05-1.39 1 1 0 01-1.38-.1 1 1 0 010-1.38 1 1 0 01-1.38-.11 1 1 0 01.08-1.41 1 1 0 01-1.41-.08 1 1 0 01.05-1.39 1 1 0 01-1.38-.1 1 1 0 01.05-1.39 1 1 0 01-1.39-.09 1 1 0 010-1.39 1 1 0 01-1.38-.1 1 1 0 01.05-1.38 1 1 0 01-1.38-.11 1 1 0 01.05-1.39 1 1 0 01-1.38-.1 1 1 0 010-1.39 1 1 0 01-1.39-.09 1 1 0 01.05-1.4 1 1 0 01-1.39-.09 1 1 0 01.06-1.4 1 1 0 01-1.39-.09 1 1 0 01.06-1.39 1 1 0 01-1.39-.1 1 1 0 01.07-1.41 1 1 0 01-1.41-.08 1 1 0 01.05-1.39 1 1 0 01-1.38-.09 1 1 0 01.05-1.39 1 1 0 01-1.39-.1 1 1 0 01.05-1.38 1 1 0 01-1.38-.11 1 1 0 010-1.38 1 1 0 01-1.38-.11 1 1 0 01.05-1.39 1 1 0 01-1.38-.09 1 1 0 01.07-1.42 1 1 0 01-1.41-.07 1 1 0 01.08-1.41 1 1 0 01-1.41-.08 1 1 0 010-1.38 1 1 0 01-1.38-.11 1 1 0 01.05-1.38 1 1 0 01-1.38-.11 1 1 0 010-1.39 1 1 0 01-1.39-.09 1 1 0 01.06-1.39 1 1 0 01-1.39-.1 1 1 0 01.05-1.39 1 1 0 01-1.39-.1 1 1 0 01.05-1.38 1 1 0 01-1.38-.11 1 1 0 010-1.38 1 1 0 01-1.38-.1 1 1 0 01.06-1.4 1 1 0 01-1.39-.09 1 1 0 01.07-1.41 1 1 0 01-1.41-.08 1 1 0 01.08-1.41 1 1 0 01-1.41-.08 1 1 0 010-1.39 1 1 0 01-1.39-.1 1 1 0 01.05-1.38 1 1 0 01-1.38-.1 1 1 0 01.05-1.4 1 1 0 01-1.39-.09 1 1 0 01.06-1.39 1 1 0 01-1.39-.1 1 1 0 01.08-1.41 1 1 0 011.41.07 1 1 0 01-.06 1.4 1 1 0 011.39.09 1 1 0 010 1.39 1 1 0 011.39.1 1 1 0 01-.05 1.38 1 1 0 011.38.11 1 1 0 01-.05 1.39 1 1 0 011.39.1 1 1 0 01-.08 1.41 1 1 0 011.41.07 1 1 0 01-.08 1.42 1 1 0 011.42.07 1 1 0 01-.06 1.39 1 1 0 011.39.1 1 1 0 010 1.38 1 1 0 011.38.11 1 1 0 01-.05 1.38 1 1 0 011.38.1 1 1 0 01-.05 1.4 1 1 0 011.39.09 1 1 0 01-.06 1.39 1 1 0 011.39.1 1 1 0 01-.05 1.39 1 1 0 011.39.1 1 1 0 010 1.38 1 1 0 011.38.11 1 1 0 01-.05 1.38 1 1 0 011.39.1 1 1 0 01-.08 1.42 1 1 0 011.41.07 1 1 0 01-.08 1.41 1 1 0 011.41.08 1 1 0 01-.05 1.39 1 1 0 011.39.1 1 1 0 01-.05 1.38 1 1 0 011.39.11 1 1 0 01-.05 1.38 1 1 0 011.38.1 1 1 0 01-.05 1.39 1 1 0 011.38.1 1 1 0 01-.05 1.39 1 1 0 011.39.1 1 1 0 01-.08 1.41 1 1 0 011.42.08 1 1 0 01-.06 1.39 1 1 0 011.39.09 1 1 0 01-.06 1.4 1 1 0 011.39.09 1 1 0 01-.05 1.39 1 1 0 011.39.1 1 1 0 01-.05 1.39 1 1 0 011.38.1 1 1 0 01-.05 1.39 1 1 0 011.39.1 1 1 0 01-.05 1.38 1 1 0 011.38.1 1 1 0 010 1.39 1 1 0 011.38.1 1 1 0 01-.06 1.39 1 1 0 011.39.1 1 1 0 01-.05 1.39 1 1 0 011.39.1 1 1 0 01-.08 1.41 1 1 0 011.41.08 1 1 0 010 1.38 1 1 0 011.38.1 1 1 0 01-.05 1.39 1 1 0 011.38.1 1 1 0 01-.05 1.39 1 1 0 011.39.1 1 1 0 01-.06 1.39 1 1 0 011.39.1 1 1 0 01-.05 1.39 1 1 0 011.39.09 1 1 0 010 1.39 1 1 0 011.38.1 1 1 0 010 1.39 1 1 0 011.38.1 1 1 0 01.1 1.2 1 1 0 011.23-.12 1 1 0 01.35 1.3 1 1 0 011.29-.35 1 1 0 01.48 1.25 1 1 0 011.26-.47 1 1 0 01.59 1.21 1 1 0 011.21-.6 1 1 0 01.71 1.14 1 1 0 011.14-.71 1 1 0 01.81 1.08 1 1 0 011.07-.84 1 1 0 01.92 1 1 1 0 011-.92 1 1 0 011 .88 1 1 0 01.89-1 1 1 0 011.09.79 1 1 0 01.78-1.09 1 1 0 011.17.68 1 1 0 01.67-1.17 1 1 0 011.22.56 1 1 0 01.56-1.22 1 1 0 011.27.44 1 1 0 01.44-1.28 1 1 0 011.31.32 1 1 0 01.31-1.31 1 1 0 011.33.18 1 1 0 01.18-1.33 1 1 0 011.36.06 1 1 0 010-1.36 1 1 0 011.35-.08 1 1 0 01-.09-1.34 1 1 0 011.34-.21 1 1 0 01-.22-1.33 1 1 0 011.3-.34 1 1 0 01-.34-1.3 1 1 0 011.26-.46 1 1 0 01-.46-1.26 1 1 0 011.21-.59 1 1 0 01-.58-1.21 1 1 0 011.16-.69 1 1 0 01-.71-1.15 1 1 0 011.07-.81 1 1 0 01-.81-1.07 1 1 0 011-.91 1 1 0 01-.91-1 1 1 0 01.9-1 1 1 0 01-1-.9 1 1 0 01.79-1.08 1 1 0 01-1.08-.8 1 1 0 01.69-1.15 1 1 0 01-1.16-.69 1 1 0 01.58-1.22 1 1 0 01-1.23-.57 1 1 0 01.48-1.28 1 1 0 01-1.29-.44 1 1 0 01.33-1.31 1 1 0 01-1.31-.31 1 1 0 01.19-1.33 1 1 0 01-1.33-.2 1 1 0 01.08-1.36 1 1 0 01-1.36 0 1 1 0 01-.07-1.34 1 1 0 01-1.34.06 1 1 0 01-.22-1.28 1 1 0 01-1.29.24 1 1 0 01-.37-1.34 1 1 0 01-1.36.33 1 1 0 01-.37-1.34 1 1 0 01-1.35.32 1 1 0 01-.37-1.34 1 1 0 01-1.35.33 1 1 0 01-.37-1.34 1 1 0 01-1.36.33 1 1 0 01-.37-1.34 1 1 0 01-1.35.32 1 1 0 01-.35-1.36 1 1 0 011.36-.36 1 1 0 01.38 1.34 1 1 0 011.35-.33 1 1 0 01.37 1.34 1 1 0 011.35-.32 1 1 0 01.37 1.34 1 1 0 011.35-.33 1 1 0 01.38 1.34 1 1 0 011.35-.33 1 1 0 01.37 1.34 1 1 0 011.35-.32 1 1 0 01.36 1.36 1 1 0 011.41-.14 1 1 0 01.15 1.4 1 1 0 011.4 0 1 1 0 010 1.41 1 1 0 011.41.13 1 1 0 01-.14 1.41 1 1 0 011.39.27 1 1 0 01-.27 1.39 1 1 0 011.35.41 1 1 0 01-.41 1.35 1 1 0 011.31.54 1 1 0 01-.54 1.31 1 1 0 011.25.66 1 1 0 01-.66 1.25 1 1 0 011.18.78 1 1 0 01-.78 1.18 1 1 0 011.1.89 1 1 0 01-.89 1.1 1 1 0 011 1 1 1 0 01-1 1 1 1 0 01.9 1.09 1 1 0 01-1.08.91 1 1 0 01.79 1.16 1 1 0 01-1.17.8 1 1 0 01.68 1.24 1 1 0 01-1.24.68 1 1 0 01.55 1.3 1 1 0 01-1.3.56 1 1 0 01.42 1.34 1 1 0 01-1.36.42 1 1 0 01.29 1.39 1 1 0 01-1.38.28 1 1 0 01.15 1.41 1 1 0 01-1.4.15 1 1 0 010 1.42 1 1 0 01-1.41 0 1 1 0 01-.12 1.41 1 1 0 01-1.41-.12 1 1 0 01-.26 1.39 1 1 0 01-1.39-.26 1 1 0 01-.4 1.35 1 1 0 01-1.35-.39 1 1 0 01-.53 1.31 1 1 0 01-1.31-.52 1 1 0 01-.65 1.26 1 1 0 01-1.26-.65 1 1 0 01-.77 1.18 1 1 0 01-1.19-.77 1 1 0 01-.88 1.11 1 1 0 01-1.1-.88 1 1 0 01-1 1 1 1 0 01-.91-.97zm20.16-20.61zm-19-22.08a1 1 0 01-.36-1.37 1 1 0 011.37-.35 1 1 0 01.36 1.37 1 1 0 01-.87.49.93.93 0 01-.48-.14zm-1.72-1a1 1 0 01-.38-1.34 1 1 0 01-1.35.33 1 1 0 01-.37-1.34 1 1 0 01-1.35.32 1 1 0 01-.37-1.34 1 1 0 01-1.35.33 1 1 0 01-.37-1.4 1 1 0 011.37-.35 1 1 0 01.37 1.33 1 1 0 011.35-.32 1 1 0 01.37 1.34 1 1 0 011.36-.33 1 1 0 01.37 1.34 1 1 0 011.35-.33 1 1 0 01.35 1.37 1 1 0 01-.86.5 1 1 0 01-.47-.12zm-6.9-4.05a1 1 0 01-.37-1.34 1 1 0 01-1.35.32 1 1 0 01-.37-1.34 1 1 0 01-1.35.33 1 1 0 01-.38-1.33 1 1 0 01-1.35.32 1 1 0 01-.37-1.34 1 1 0 01-1.35.33 1 1 0 01-.36-1.37 1 1 0 011.37-.36 1 1 0 01.38 1.34 1 1 0 011.35-.33 1 1 0 01.37 1.34 1 1 0 011.35-.32 1 1 0 01.37 1.34 1 1 0 011.35-.33 1 1 0 01.37 1.34 1 1 0 011.36-.33A1 1 0 01333 335a1 1 0 01-.86.5 1.06 1.06 0 01-.48-.12zm-8.61-5.07a1 1 0 01-.38-1.33 1 1 0 01-1.35.32 1 1 0 01-.3-1.31 1 1 0 01-1.35.33 1 1 0 01-.37-1.34 1 1 0 01-1.35.32 1 1 0 01-.37-1.34 1 1 0 01-1.36.33 1 1 0 01-.35-1.37 1 1 0 011.37-.35 1 1 0 01.37 1.33 1 1 0 011.35-.32 1 1 0 01.37 1.34 1 1 0 011.35-.33 1 1 0 01.38 1.34 1 1 0 011.35-.33 1 1 0 01.37 1.34 1 1 0 011.35-.32 1 1 0 01.35 1.37 1 1 0 01-.86.49.93.93 0 01-.55-.18zm-8.62-5.06a1 1 0 01-.37-1.34 1 1 0 01-1.35.32 1 1 0 01-.37-1.34 1 1 0 01-1.36.33 1 1 0 01-.37-1.34 1 1 0 01-1.35.33 1 1 0 01-.35-1.37 1 1 0 011.36-.36 1 1 0 01.38 1.34 1 1 0 011.35-.32 1 1 0 01.37 1.34 1 1 0 011.35-.33 1 1 0 01.37 1.34 1 1 0 011.35-.33 1 1 0 01.36 1.37 1 1 0 01-.86.49 1 1 0 01-.49-.14zm-6.89-4.05a1 1 0 01-.36-1.37 1 1 0 011.37-.36 1 1 0 01.36 1.37 1 1 0 01-.87.49 1 1 0 01-.48-.14zm-1.72-1a1 1 0 01-.38-1.34 1 1 0 01-1.35.33 1 1 0 01-.37-1.34 1 1 0 01-1.35.33 1 1 0 01-.38-1.34 1 1 0 01-1.34.32 1 1 0 01-.36-1.37 1 1 0 011.37-.35 1 1 0 01.38 1.33 1 1 0 011.34-.32 1 1 0 01.37 1.34 1 1 0 011.36-.33 1 1 0 01.37 1.34 1 1 0 011.35-.32 1 1 0 01.35 1.37 1 1 0 01-.86.49.9.9 0 01-.48-.17zm-6.9-4.05a1 1 0 01-.35-1.37 1 1 0 011.37-.35 1 1 0 01.35 1.36 1 1 0 01-.86.5 1.06 1.06 0 01-.49-.17zm-1.72-1a1 1 0 01-.38-1.34 1 1 0 01-1.34.32 1 1 0 01-.38-1.34 1 1 0 01-1.35.33 1 1 0 01-.37-1.34 1 1 0 01-1.35.33 1 1 0 01-.36-1.37 1 1 0 011.37-.36 1 1 0 01.38 1.34 1 1 0 011.35-.32 1 1 0 01.37 1.34 1 1 0 011.35-.33 1 1 0 01.38 1.33 1 1 0 011.34-.32 1 1 0 01.36 1.37 1 1 0 01-.86.49 1 1 0 01-.49-.17zm-6.89-4.06a1 1 0 01-.38-1.33 1 1 0 01-1.35.32 1 1 0 01-.37-1.34 1 1 0 01-1.35.33 1 1 0 01-.36-1.37 1 1 0 011.37-.36 1 1 0 01.38 1.34 1 1 0 011.35-.32 1 1 0 01.37 1.34 1 1 0 011.35-.33 1 1 0 01.35 1.37 1 1 0 01-.86.49.93.93 0 01-.48-.18z" fill="#263238"/><path d="M273.78 320.09a1 1 0 01-.71-.29 1 1 0 01-.29-.71 1 1 0 01.29-.7 1 1 0 011.42 0 1 1 0 01.29.7 1 1 0 01-.29.71 1 1 0 01-.71.29z" fill="#263238"/><path d="M322.15 298.13l-28.64 7.17a4.35 4.35 0 00-2.58 1.84l-9.37 14.4a4.36 4.36 0 01-4.21 1.93l-28.46-3.87a4.29 4.29 0 01-2.63-1.38L226.14 296a4.32 4.32 0 01-1.08-3.47l3-22.74a4.31 4.31 0 013.46-3.68l14.62-2.87a4.34 4.34 0 003.48-3.92l.59-7.78a4.33 4.33 0 014.56-4l36.06 2.07a4.33 4.33 0 013.2 1.7l30.5 40a4.33 4.33 0 01-2.38 6.82zm27.9-6.26l18.79 3.39a10.48 10.48 0 0012.16-8.44 10.48 10.48 0 00-8.43-12.14l-18.8-3.38a10.48 10.48 0 00-12.14 8.44 10.47 10.47 0 008.42 12.13z" fill="#e0e0e0"/><path d="M272.85 288.75l-3.05-1.37a2.61 2.61 0 01-1.55-2.49l.31-8.94a2.45 2.45 0 00-.2-1.1c-.81-1.93-3.65-8.67-5.28-11.89a1.39 1.39 0 00-2.22-.35 1.4 1.4 0 00-.28 1.61l5.16 10.53a2.59 2.59 0 01.26 1.31l-.58 9.85a2.75 2.75 0 00.27 1.32l2.59 5.27a1.82 1.82 0 001.75 1l2-.13a1.81 1.81 0 001.65-1.43l.25-1.16a1.82 1.82 0 00-1.08-2.03z" fill="#fff"/><circle cx="255.14" cy="300.29" r="13.16" transform="rotate(-52.65 255.13 300.281)" fill="#263238" opacity=".3"/><rect x="280.28" y="268.09" width="10.84" height="22.46" rx="3.62" transform="rotate(-174.89 285.702 279.322)" fill="#727375" opacity=".2"/><path d="M247 283.81a2.42 2.42 0 103.2-1.21 2.43 2.43 0 00-3.2 1.21z" fill="#263238" opacity=".3"/><path d="M275.75 318.94L335 365.2a5 5 0 007-.86 5 5 0 00-.86-7l-59.22-46.26a5 5 0 00-7 .85 5 5 0 00.83 7.01z" fill="#e0e0e0"/><path d="M315.24 289.51c-5.57 1-23.74 5.34-29.81 6.81a1.8 1.8 0 01-2.21-1.57l-3.62-33.83-4.53.4 3.73 37a1.81 1.81 0 01-.12.83l-2.09 5.43a1.77 1.77 0 01-1.23 1.09l-5 1.31a1.76 1.76 0 00-1.19 1l-4 8.81a1.8 1.8 0 01-1.81 1.06l-10.07-.85a10.26 10.26 0 01-6.68-3.33L229 294.23a1.81 1.81 0 01-.46-1.31l1.87-33.25a1.8 1.8 0 00-1.24-1.82 1.81 1.81 0 00-2.36 1.56l-3.12 36.67a1.82 1.82 0 00.38 1.27l17.44 22.13a11.73 11.73 0 008.73 4.46l21.35.87a1.8 1.8 0 001.63-.88l13.17-22.05a1.87 1.87 0 011.06-.81l31-8.7-1.37-2.07a1.81 1.81 0 00-1.84-.79z" fill="#57c278"/><path d="M269.89 216.07l-13.84-1.6a2 2 0 00-2.13 1.6L247.23 256a1.92 1.92 0 001.64 2.22l30.85 4.31a1.92 1.92 0 002.18-1.67l.76-6.15a1.92 1.92 0 011-1.48l3.24-1.67a1.92 1.92 0 012.69 1l8.05 22a2 2 0 00.78 1l10.39 6.59a1.94 1.94 0 001.1.3l50.42-1.82a1.94 1.94 0 001.38-.65c1.66-1.87 7.94-7 23.29-1.3 12.82 4.78 22 8.86 26.36 10.91a1.93 1.93 0 002.73-1.86 1.89 1.89 0 00-.49-1.19 75 75 0 00-24.07-17c-15.24-6.84-47.7-10.1-50.34-10.36a1.86 1.86 0 01-.34-.06l-47.61-13.46a1.86 1.86 0 01-1.07-.77l-18.93-28a1.91 1.91 0 00-1.35-.82z" fill="#263238"/><path d="M154.23 226.52A45.54 45.54 0 1194 249.41a45.53 45.53 0 0160.23-22.89zM122 298.23a33.07 33.07 0 10-16.62-43.7 33.07 33.07 0 0016.62 43.7z" fill="#f0f0f0"/><path d="M157.67 218.86A53.94 53.94 0 1186.36 246a53.92 53.92 0 0171.31-27.14zm-38.94 86.73a41.13 41.13 0 10-20.67-54.37 41.14 41.14 0 0020.67 54.37z" fill="#263238"/><path d="M140.33 271.54l106.53-77a5 5 0 001.12-6.94 5 5 0 00-6.94-1.12l-106.53 77a5 5 0 00-1.12 6.93 5 5 0 006.94 1.13z" fill="#e0e0e0"/><rect x="224.74" y="186.57" width="20.8" height="12.54" rx="3.85" transform="rotate(144.15 235.136 192.848)" fill="#e0e0e0"/><path d="M245.84 187.1l13.75-9.94a1.67 1.67 0 011.07-.3l12.41-1.86a1.5 1.5 0 011.7 1.27l.05.36a1.49 1.49 0 01-1.26 1.7l-12.4 1.81-13.35 9.65a1.68 1.68 0 01-2-2.73z" fill="#263238"/><path d="M216.3 201.5l30.91-22.85a.91.91 0 00-.84-1.58l-22.09 7.74a12.85 12.85 0 00-8.42 10l-1 5.84a.91.91 0 001.44.85zm-73.41 50.26a17.87 17.87 0 11-23.62 9 17.88 17.88 0 0123.62-9z" fill="#57c278"/><path d="M140.2 272.87l21.33-15.42a1.44 1.44 0 00.32-2l-5.27-7.31a1.47 1.47 0 00-2-.33l-21.37 15.39a6 6 0 00-1.34 8.32 6 6 0 008.33 1.35z" fill="#263238"/><path d="M364.2 259.25a5.43 5.43 0 01-.33 5.25l-.73 1.15a5.43 5.43 0 01-4.19 2.49c-7.15.48-27.65 1-54.47-5.4a35.93 35.93 0 01-22.56-16.61c-6.24-10.55-12.27-23.84-14.3-33.74a1.34 1.34 0 011.18-1.57 6.94 6.94 0 012.35.12 1.27 1.27 0 011 .81c1.26 3.28 8 19.36 21.37 25.37 13 5.86 56.27 16.56 67.13 19.2a5.42 5.42 0 013.55 2.93z" fill="#57c278"/><path d="M268.42 219.49a6.28 6.28 0 00-1.07-7.48c-3.54-3.47-7.58-5.73-13-8.64-5.55-3-9 1.89-10.28 4.12a1.5 1.5 0 00.24 1.78 1.54 1.54 0 01-.6 2.51l-13 4.45a10.63 10.63 0 00-7.13 9.15l-2.34 27.35a5.52 5.52 0 003.24 5.5l6.59 3a5.51 5.51 0 007-2.28l3.15-5.47a5.51 5.51 0 014.24-2.73l8-.79a7.81 7.81 0 007-7.11l.92-10.69z" fill="#57c278"/><path d="M233.23 257.43a2.17 2.17 0 01-.36 0 2.29 2.29 0 01-.72-.21l-6.6-3a2.66 2.66 0 01-1.55-2.62l2.34-27.35a7.76 7.76 0 015.2-6.67l13-4.45a4.41 4.41 0 002.46-6.23l-.07-.13.08-.13c.92-1.36 2.4-2.93 4.24-2.68a4.9 4.9 0 011.63.57c5.54 3 9.13 5 12.32 8.16a3.42 3.42 0 01.56 4.06l-7.15 13.16-1 11.28a4.93 4.93 0 01-4.44 4.5l-8 .79a8.4 8.4 0 00-6.45 4.16l-3.15 5.47a2.63 2.63 0 01-2.34 1.32zm-.29-.52a2.11 2.11 0 002.14-1.05l3.15-5.47a8.92 8.92 0 016.84-4.41l8-.79a4.46 4.46 0 004-4l1-11.43 7.18-13.21a2.91 2.91 0 00-.47-3.46c-3.14-3.08-6.71-5.11-12.21-8.08a4.33 4.33 0 00-1.46-.51c-1.53-.2-2.83 1.13-3.67 2.34a4.92 4.92 0 01-2.8 6.8l-12.95 4.46a7.25 7.25 0 00-4.87 6.23l-2.34 27.36a2.14 2.14 0 001.26 2.13l6.59 3a1.81 1.81 0 00.59.17z" opacity=".1"/><path d="M359.57 276.87l2.33 3.82a5 5 0 01.73 2.53l.2 14a5 5 0 01-1.37 3.51l-4.93 5.2a5 5 0 01-4.2 1.52l-25.26-2.93a5 5 0 01-3.5-2.07l-10.86-15.26a5 5 0 011.83-7.37l10-5.05a25.45 25.45 0 0114.86-2.48l16.6 2.23a5 5 0 013.57 2.35z" fill="#57c278"/><path d="M352.2 303.46h-.24l-25.3-2.93a2.14 2.14 0 01-1.45-.88l-10.86-15.26a2.13 2.13 0 01-.33-1.74 2.1 2.1 0 011.11-1.39l10-5.05a22.51 22.51 0 0113.22-2.21l16.54 2.24a2.15 2.15 0 011.53 1l2.32 3.81a2.08 2.08 0 01.31 1.08l.2 14a2.1 2.1 0 01-.58 1.49l-4.93 5.2a2.13 2.13 0 01-1.54.64zM326.72 300l25.28 3a1.63 1.63 0 001.37-.5l4.93-5.19a1.6 1.6 0 00.44-1.14l-.2-14a1.62 1.62 0 00-.23-.83l-2.31-3.86a1.6 1.6 0 00-1.17-.76l-16.53-2.24a22 22 0 00-12.89 2.16l-10 5.05a1.62 1.62 0 00-.6 2.39l10.86 15.26a1.61 1.61 0 001.05.66z" opacity=".1"/><path d="M334.29 359.51a4.07 4.07 0 105.37-2.09 4.09 4.09 0 00-5.37 2.09z" fill="#263238" opacity=".3"/><path d="M283.22 294.75c9.92-19.33 21-29.35 23-50.07 17.95-6.78 56.67.54 63.29-22.17l-31.85-18.75s-49.18 11.33-54 27.23c-2 6.58-6.88 25-13.46 46.82-2.39 7.9-6.58 18.17-7.25 23.88l13.75 7.91c3.3-7.46 4.49-10.89 6.52-14.85z" fill="#57c278"/><path d="M283.22 294.75c9.92-19.33 21-29.35 23-50.07 17.95-6.78 56.67.54 63.29-22.17l-31.85-18.75s-49.18 11.33-54 27.23c-2 6.58-6.88 25-13.46 46.82-2.39 7.9-6.58 18.17-7.25 23.88l13.75 7.91c3.3-7.46 4.49-10.89 6.52-14.85z" fill="#fff" opacity=".4"/><path d="M277.31 319l-1-.71-31.68-12.14c-1.41.64-1.83 4.26 2.44 5.8s10.93 3.75 15.33 5.34 8.06 3.08 12.2 4.57c1.18.45 2.71-.97 2.71-2.86z" fill="#57c278"/><path d="M277.31 319l-1-.71-31.68-12.14c-1.41.64-1.83 4.26 2.44 5.8s10.93 3.75 15.33 5.34 8.06 3.08 12.2 4.57c1.18.45 2.71-.97 2.71-2.86z" opacity=".3"/><path d="M286.63 279.91l-.41-.28c6.93-9.93 15.85-37.65 14.26-39.5-.34-.39-.53-.7-.37-.95s.66-.17 1.38 0c.45.12 1.37.36 1.51.18s.05-.23-.16-.64a.79.79 0 010-.73c.95-1.76 9.56-2.93 19.86-4.18 2.56-.31 4.76-.58 6.17-.81 3.17-.51 6.36-2 9.44-3.47 2.78-1.31 5.4-2.54 7.6-2.82 4.94-.6 9.7-4.24 13.41-10.23l.43.26c-3.8 6.13-8.69 9.84-13.78 10.47-2.12.26-4.71 1.48-7.44 2.77-3.12 1.47-6.34 3-9.58 3.52-1.42.23-3.63.49-6.19.8-6.95.85-18.58 2.25-19.48 3.93a.24.24 0 000 .26c.17.35.37.85.1 1.19s-1.2.2-2 0c-.23-.06-.55-.14-.74-.17a2.19 2.19 0 00.23.3c1.93 2.25-7.6 30.59-14.24 40.1z" fill="#57c278" opacity=".5"/><path d="M282.3 306.9c-.58 4.05-2.69 10.1-4.73 12.07-.3.83-1 .6-1.86.3-4.55-1.64-9.7-3.67-14.08-5.33-5.11-1.93-8.57-2.64-14.57-4.91-3.62-1.37-2.91-3.89-1.12-4.21 5.22-.92 11.09.39 17-2.16 1-5.14 4.45-23.9 7.45-29.74a1.55 1.55 0 011.39-.85c8.29 0 17.29 4.6 20.55 6.45a1.59 1.59 0 01.67 2.06c-2.24 5.01-10.3 22.86-10.7 26.32z" fill="#263238"/><path d="M359 149.22c-7.29-13.89-18.6-14.91-35.48-6.47-6.44 3.22-11.48 8-9.21 15.43 5.34 17.38 11.1 25 9.67 35.62.73 7.09 26.31 22.5 46.85 28.89 9.61-16.8-1.56-53.94-11.83-73.47z" fill="#57c278"/><path d="M347 159.55c-11.37 5.28-20.23 12.87-25.92 17.36 1.93 5.19 3.22 9.51 3.09 14.25 3 .18 6.24 0 8.09-1.58 7.18-6.04 14.85-22.64 14.74-30.03z" opacity=".3"/><path d="M333.62 126.47l-12.18 7.21c1.8 4.18 2.68 6.65.34 10-1.78 2.23 1.23 5.82 6.53 4.39 4.61-1.24 11.76-5 13.42-7.49-2.09-3.72-5.55-8.94-8.11-14.11zm-30.43-19.68c-1.39.53-.86 7.33-.29 9-1.29 8.3 2.31 10.08 2.31 10.08s-2.36 1.56 1 6.31c11.47-.07 20.47-9.34 19.95-17.54s-15.8-8.83-22.97-7.85z" fill="#263238"/><path d="M345.48 132.86c-7.38 6-37.11 11.15-45.14 12.44a2.42 2.42 0 01-2.67-1.6l-2.26-6.54a2.42 2.42 0 01.4-2.32l3.18-3.92a4.2 4.2 0 013.15-1.56c3.08-.08 9.26-.53 13.52-2.78 5.89-3.11 8.47-7.75 7.74-13.51s-34.66-5.47-34.66-5.47-1.1-1.9 4.16-5 20.46-4.46 20.46-4.46 11.09-3.29 19.64-1.74 6.28 4.86 6.28 4.86 6.48 2.63 9.37 12.3.01 16.7-3.17 19.3z" fill="#57c278"/><path d="M348.68 113.56a21.16 21.16 0 00-6.58-10.49c-10.3 1.63-28.8 1.76-43.27-2.6a23.92 23.92 0 00-5.93 2.13c-5.27 3.09-4.16 5-4.16 5s33.93-.3 34.66 5.47-1.85 10.39-7.74 13.5c-4.26 2.26-10.44 2.71-13.52 2.79a4.2 4.2 0 00-3.15 1.55l-3.17 3.92a2.61 2.61 0 00-.2.3c14.64-2 33.58-16.71 54-10.92a25 25 0 00-.94-10.65z" fill="#fff" opacity=".2"/><path d="M302.35 113.89c-.87.77-.87 9.61 1.17 11.79s5 .83 6 .1 7-1.62 7.95-4.94 1.35-6.58-3.4-8.58a12.13 12.13 0 00-11.72 1.63z" fill="#57c278"/><path d="M310.64 114a8.71 8.71 0 00-1.5-.39 10.36 10.36 0 00-7.23 1.86c-.33 2.85 0 8.49 1.61 10.17a3.85 3.85 0 00.7.6 4.65 4.65 0 001.92-.94 7.42 7.42 0 011.8-.92c1.69-.72 4.55-1.94 5.05-3.79.95-3.4.83-5.37-2.35-6.59z" fill="#263238"/><path d="M314.88 114.1s21.26-8.45 31.87-7.93a30.87 30.87 0 012.9 6 3.43 3.43 0 01-1 1.19c-.59-.93-1.25-.89-2.52-.67s-24 6.21-30.76 9.15a22.13 22.13 0 01-.49-7.74z" fill="#57c278"/><path d="M314.88 114.1s21.26-8.45 31.87-7.93a30.87 30.87 0 012.9 6 3.43 3.43 0 01-1 1.19c-.59-.93-1.25-.89-2.52-.67s-24 6.21-30.76 9.15a22.13 22.13 0 01-.49-7.74z" fill="#fff" opacity=".5"/><path d="M347.06 128.94c-3.72-2.16-14.29 8.1-43.35 15.8 10.91-1.87 35.2-6.53 41.77-11.88a9.8 9.8 0 002.27-2.79 1.26 1.26 0 00-.69-1.13z" opacity=".3"/><path d="M351.51 155.32c-.44.8-.78 1.39-1.16 2s-.77 1.26-1.15 1.88c-.78 1.23-1.6 2.42-2.42 3.61a94.234 94.234 0 01-5.32 6.84c-.93 1.11-1.91 2.19-2.88 3.27s-2 2.11-3.07 3.11a78.37 78.37 0 01-6.62 5.83l-.4.33a6 6 0 01-2.22 1.1 50.6 50.6 0 01-10.33 1.35 77.85 77.85 0 01-9.82-.29c-3.22-.3-6.38-.75-9.5-1.35a85.85 85.85 0 01-9.31-2.28 3.84 3.84 0 011.16-7.51h9.02c2.94 0 5.89-.18 8.78-.4s5.73-.53 8.46-1a46.16 46.16 0 007.66-1.87l-2.61 1.43c1.74-1.76 3.45-3.54 5.08-5.44s3.21-3.85 4.74-5.85 3-4.05 4.44-6.15c.72-1 1.4-2.09 2.1-3.13l1-1.57.92-1.45.19-.31a7.69 7.69 0 0113.25 7.81z" fill="#57c278"/><path d="M312.62 179.58a153.05 153.05 0 01-24.7-2.33l.1-.49c.25 0 25.32 4.74 39.53.64 12.3-10.69 20.55-27.89 20.64-28.06l.45.21c-.09.17-8.41 17.51-20.8 28.27l-.1.05a56.22 56.22 0 01-15.12 1.71z" fill="#fff" opacity=".5"/><path d="M294.58 171.69s3 9.78.43 13.14a133.3 133.3 0 01-19.18-5.17s-3.1 5.05-9.73.63 0-9.38 5.16-9.72 23.32 1.12 23.32 1.12zm1.34 47.31c-6 .63-15.07 9-13.93 17.79 6.37-1.79 9.87-4.66 11.25-6.5 2.96-3.99 2.68-11.29 2.68-11.29z" fill="#263238"/><path d="M394.66 233.92c22.13 9.51 41.11 24 41.11 24l-5.94 2s18.7 11 31.16 15.18c-26-6.21-40.44-17.44-40.44-17.44l6.28-1.33s-21.47-16.66-32.17-22.41zm-8.83-71.27a126.87 126.87 0 0127.21-.17l-2.35 2.71s12.43 0 19.77-1.6c-14.63 4.51-25 3.18-25 3.18l2.71-2.48s-15.4-1.92-22.34-1.64zm.66 31.2c14.57 1.42 31.39 9.46 37.34 16a403.77 403.77 0 00-37.34-16zM177 164.09c5.53-1.3 12.81-.22 15.91 1.65a56.65 56.65 0 01-15.91-1.65zM389.15 305.1c5.05 2.61 9.88 8.17 11 11.6a57.14 57.14 0 01-11-11.6zM194.33 158c13.09-.64 28.54 1.67 34.22 4.26-20.82-1.13-34.22-4.26-34.22-4.26z" fill="#57c278"/></svg>